%FSLAX45Y45*%
G04 Gerber Fmt 4.5, Leading zero omitted, Abs format (unit mm)*
G04 Created by KiCad (PCBNEW (5.1.12)-1) date 2022-02-06 21:24:43*
%MOMM*%
%LPD*%
G01*
G04 APERTURE LIST*
%TA.AperFunction,Profile*%
%ADD10C,0.050000*%
%TD*%
%ADD11C,0.200000*%
%ADD12C,0.300000*%
G04 APERTURE END LIST*
D10*
X22990000Y-3440000D02*
G75*
G02*
X23740000Y-4190000I0J-750000D01*
G01*
X23740000Y-15750000D02*
G75*
G02*
X22990000Y-16500000I-750000J0D01*
G01*
X7500000Y-16500000D02*
G75*
G02*
X6750000Y-15750000I0J750000D01*
G01*
X6750000Y-4190000D02*
G75*
G02*
X7500000Y-3440000I750000J0D01*
G01*
X22990000Y-3440000D02*
X7500000Y-3440000D01*
X23740000Y-15750000D02*
X23740000Y-4190000D01*
X7500000Y-16500000D02*
X22990000Y-16500000D01*
X6750000Y-4190000D02*
X6750000Y-15750000D01*
D11*
X8580000Y-4660000D02*
X8700000Y-4780000D01*
X8700000Y-4660000D02*
X8580000Y-4780000D01*
X8580000Y-5600000D02*
X8700000Y-5720000D01*
X8700000Y-5600000D02*
X8580000Y-5720000D01*
X9790000Y-15000000D02*
X9910000Y-15120000D01*
X9910000Y-15000000D02*
X9790000Y-15120000D01*
X10310000Y-5600000D02*
X10430000Y-5720000D01*
X10430000Y-5600000D02*
X10310000Y-5720000D01*
X10310000Y-14310000D02*
X10430000Y-14430000D01*
X10430000Y-14310000D02*
X10310000Y-14430000D01*
X11110000Y-4660000D02*
X11230000Y-4780000D01*
X11230000Y-4660000D02*
X11110000Y-4780000D01*
X11110000Y-15260000D02*
X11230000Y-15380000D01*
X11230000Y-15260000D02*
X11110000Y-15380000D01*
X11920000Y-5620000D02*
X12040000Y-5740000D01*
X12040000Y-5620000D02*
X11920000Y-5740000D01*
X11920000Y-14310000D02*
X12040000Y-14430000D01*
X12040000Y-14310000D02*
X11920000Y-14430000D01*
X13520000Y-5620000D02*
X13640000Y-5740000D01*
X13640000Y-5620000D02*
X13520000Y-5740000D01*
X13520000Y-14310000D02*
X13640000Y-14430000D01*
X13640000Y-14310000D02*
X13520000Y-14430000D01*
X13710000Y-4650000D02*
X13830000Y-4770000D01*
X13830000Y-4650000D02*
X13710000Y-4770000D01*
X13710000Y-15260000D02*
X13830000Y-15380000D01*
X13830000Y-15260000D02*
X13710000Y-15380000D01*
X15130000Y-5620000D02*
X15250000Y-5740000D01*
X15250000Y-5620000D02*
X15130000Y-5740000D01*
X15130000Y-14310000D02*
X15250000Y-14430000D01*
X15250000Y-14310000D02*
X15130000Y-14430000D01*
X16320000Y-4640000D02*
X16440000Y-4760000D01*
X16440000Y-4640000D02*
X16320000Y-4760000D01*
X16320000Y-15260000D02*
X16440000Y-15380000D01*
X16440000Y-15260000D02*
X16320000Y-15380000D01*
X16740000Y-5620000D02*
X16860000Y-5740000D01*
X16860000Y-5620000D02*
X16740000Y-5740000D01*
X16740000Y-14310000D02*
X16860000Y-14430000D01*
X16860000Y-14310000D02*
X16740000Y-14430000D01*
X18350000Y-5620000D02*
X18470000Y-5740000D01*
X18470000Y-5620000D02*
X18350000Y-5740000D01*
X18350000Y-14320000D02*
X18470000Y-14440000D01*
X18470000Y-14320000D02*
X18350000Y-14440000D01*
X22215000Y-14650000D02*
X22335000Y-14770000D01*
X22335000Y-14650000D02*
X22215000Y-14770000D01*
X10911500Y-12279000D02*
G75*
G03*
X10911500Y-12279000I-160000J0D01*
G01*
X11038500Y-7453000D02*
G75*
G03*
X11038500Y-7453000I-160000J0D01*
G01*
X16118500Y-8977000D02*
G75*
G03*
X16118500Y-8977000I-160000J0D01*
G01*
X18531500Y-7580000D02*
G75*
G03*
X18531500Y-7580000I-160000J0D01*
G01*
X18531500Y-12152000D02*
G75*
G03*
X18531500Y-12152000I-160000J0D01*
G01*
D12*
X7033928Y-16968214D02*
X7033928Y-16668214D01*
X7105357Y-16668214D01*
X7148214Y-16682500D01*
X7176786Y-16711071D01*
X7191071Y-16739643D01*
X7205357Y-16796786D01*
X7205357Y-16839643D01*
X7191071Y-16896786D01*
X7176786Y-16925357D01*
X7148214Y-16953929D01*
X7105357Y-16968214D01*
X7033928Y-16968214D01*
X7333928Y-16968214D02*
X7333928Y-16768214D01*
X7333928Y-16825357D02*
X7348214Y-16796786D01*
X7362500Y-16782500D01*
X7391071Y-16768214D01*
X7419643Y-16768214D01*
X7519643Y-16968214D02*
X7519643Y-16768214D01*
X7519643Y-16668214D02*
X7505357Y-16682500D01*
X7519643Y-16696786D01*
X7533928Y-16682500D01*
X7519643Y-16668214D01*
X7519643Y-16696786D01*
X7705357Y-16968214D02*
X7676786Y-16953929D01*
X7662500Y-16925357D01*
X7662500Y-16668214D01*
X7862500Y-16968214D02*
X7833928Y-16953929D01*
X7819643Y-16925357D01*
X7819643Y-16668214D01*
X8205357Y-16968214D02*
X8205357Y-16668214D01*
X8305357Y-16882500D01*
X8405357Y-16668214D01*
X8405357Y-16968214D01*
X8676786Y-16968214D02*
X8676786Y-16811072D01*
X8662500Y-16782500D01*
X8633928Y-16768214D01*
X8576786Y-16768214D01*
X8548214Y-16782500D01*
X8676786Y-16953929D02*
X8648214Y-16968214D01*
X8576786Y-16968214D01*
X8548214Y-16953929D01*
X8533928Y-16925357D01*
X8533928Y-16896786D01*
X8548214Y-16868214D01*
X8576786Y-16853929D01*
X8648214Y-16853929D01*
X8676786Y-16839643D01*
X8819643Y-16768214D02*
X8819643Y-17068214D01*
X8819643Y-16782500D02*
X8848214Y-16768214D01*
X8905357Y-16768214D01*
X8933928Y-16782500D01*
X8948214Y-16796786D01*
X8962500Y-16825357D01*
X8962500Y-16911072D01*
X8948214Y-16939643D01*
X8933928Y-16953929D01*
X8905357Y-16968214D01*
X8848214Y-16968214D01*
X8819643Y-16953929D01*
X9091071Y-16939643D02*
X9105357Y-16953929D01*
X9091071Y-16968214D01*
X9076786Y-16953929D01*
X9091071Y-16939643D01*
X9091071Y-16968214D01*
X9091071Y-16782500D02*
X9105357Y-16796786D01*
X9091071Y-16811072D01*
X9076786Y-16796786D01*
X9091071Y-16782500D01*
X9091071Y-16811072D01*
X6627500Y-17402500D02*
X6747500Y-17522500D01*
X6747500Y-17402500D02*
X6627500Y-17522500D01*
X7191071Y-17598214D02*
X7019643Y-17598214D01*
X7105357Y-17598214D02*
X7105357Y-17298214D01*
X7076786Y-17341072D01*
X7048214Y-17369643D01*
X7019643Y-17383929D01*
X7319643Y-17569643D02*
X7333928Y-17583929D01*
X7319643Y-17598214D01*
X7305357Y-17583929D01*
X7319643Y-17569643D01*
X7319643Y-17598214D01*
X7448214Y-17326786D02*
X7462500Y-17312500D01*
X7491071Y-17298214D01*
X7562500Y-17298214D01*
X7591071Y-17312500D01*
X7605357Y-17326786D01*
X7619643Y-17355357D01*
X7619643Y-17383929D01*
X7605357Y-17426786D01*
X7433928Y-17598214D01*
X7619643Y-17598214D01*
X7805357Y-17298214D02*
X7833928Y-17298214D01*
X7862500Y-17312500D01*
X7876786Y-17326786D01*
X7891071Y-17355357D01*
X7905357Y-17412500D01*
X7905357Y-17483929D01*
X7891071Y-17541072D01*
X7876786Y-17569643D01*
X7862500Y-17583929D01*
X7833928Y-17598214D01*
X7805357Y-17598214D01*
X7776786Y-17583929D01*
X7762500Y-17569643D01*
X7748214Y-17541072D01*
X7733928Y-17483929D01*
X7733928Y-17412500D01*
X7748214Y-17355357D01*
X7762500Y-17326786D01*
X7776786Y-17312500D01*
X7805357Y-17298214D01*
X8091071Y-17298214D02*
X8119643Y-17298214D01*
X8148214Y-17312500D01*
X8162500Y-17326786D01*
X8176786Y-17355357D01*
X8191071Y-17412500D01*
X8191071Y-17483929D01*
X8176786Y-17541072D01*
X8162500Y-17569643D01*
X8148214Y-17583929D01*
X8119643Y-17598214D01*
X8091071Y-17598214D01*
X8062500Y-17583929D01*
X8048214Y-17569643D01*
X8033928Y-17541072D01*
X8019643Y-17483929D01*
X8019643Y-17412500D01*
X8033928Y-17355357D01*
X8048214Y-17326786D01*
X8062500Y-17312500D01*
X8091071Y-17298214D01*
X8319643Y-17598214D02*
X8319643Y-17398214D01*
X8319643Y-17426786D02*
X8333928Y-17412500D01*
X8362500Y-17398214D01*
X8405357Y-17398214D01*
X8433928Y-17412500D01*
X8448214Y-17441072D01*
X8448214Y-17598214D01*
X8448214Y-17441072D02*
X8462500Y-17412500D01*
X8491071Y-17398214D01*
X8533928Y-17398214D01*
X8562500Y-17412500D01*
X8576786Y-17441072D01*
X8576786Y-17598214D01*
X8719643Y-17598214D02*
X8719643Y-17398214D01*
X8719643Y-17426786D02*
X8733928Y-17412500D01*
X8762500Y-17398214D01*
X8805357Y-17398214D01*
X8833928Y-17412500D01*
X8848214Y-17441072D01*
X8848214Y-17598214D01*
X8848214Y-17441072D02*
X8862500Y-17412500D01*
X8891071Y-17398214D01*
X8933928Y-17398214D01*
X8962500Y-17412500D01*
X8976786Y-17441072D01*
X8976786Y-17598214D01*
X9562500Y-17283929D02*
X9305357Y-17669643D01*
X9948214Y-17298214D02*
X9976786Y-17298214D01*
X10005357Y-17312500D01*
X10019643Y-17326786D01*
X10033928Y-17355357D01*
X10048214Y-17412500D01*
X10048214Y-17483929D01*
X10033928Y-17541072D01*
X10019643Y-17569643D01*
X10005357Y-17583929D01*
X9976786Y-17598214D01*
X9948214Y-17598214D01*
X9919643Y-17583929D01*
X9905357Y-17569643D01*
X9891071Y-17541072D01*
X9876786Y-17483929D01*
X9876786Y-17412500D01*
X9891071Y-17355357D01*
X9905357Y-17326786D01*
X9919643Y-17312500D01*
X9948214Y-17298214D01*
X10176786Y-17569643D02*
X10191071Y-17583929D01*
X10176786Y-17598214D01*
X10162500Y-17583929D01*
X10176786Y-17569643D01*
X10176786Y-17598214D01*
X10376786Y-17298214D02*
X10405357Y-17298214D01*
X10433928Y-17312500D01*
X10448214Y-17326786D01*
X10462500Y-17355357D01*
X10476786Y-17412500D01*
X10476786Y-17483929D01*
X10462500Y-17541072D01*
X10448214Y-17569643D01*
X10433928Y-17583929D01*
X10405357Y-17598214D01*
X10376786Y-17598214D01*
X10348214Y-17583929D01*
X10333928Y-17569643D01*
X10319643Y-17541072D01*
X10305357Y-17483929D01*
X10305357Y-17412500D01*
X10319643Y-17355357D01*
X10333928Y-17326786D01*
X10348214Y-17312500D01*
X10376786Y-17298214D01*
X10733928Y-17398214D02*
X10733928Y-17598214D01*
X10662500Y-17283929D02*
X10591071Y-17498214D01*
X10776786Y-17498214D01*
X10862500Y-17298214D02*
X11062500Y-17298214D01*
X10933928Y-17598214D01*
X11162500Y-17326786D02*
X11176786Y-17312500D01*
X11205357Y-17298214D01*
X11276786Y-17298214D01*
X11305357Y-17312500D01*
X11319643Y-17326786D01*
X11333928Y-17355357D01*
X11333928Y-17383929D01*
X11319643Y-17426786D01*
X11148214Y-17598214D01*
X11333928Y-17598214D01*
X11448214Y-17298214D02*
X11448214Y-17355357D01*
X11562500Y-17298214D02*
X11562500Y-17355357D01*
X12005357Y-17712500D02*
X11991071Y-17698214D01*
X11962500Y-17655357D01*
X11948214Y-17626786D01*
X11933928Y-17583929D01*
X11919643Y-17512500D01*
X11919643Y-17455357D01*
X11933928Y-17383929D01*
X11948214Y-17341072D01*
X11962500Y-17312500D01*
X11991071Y-17269643D01*
X12005357Y-17255357D01*
X12105357Y-17326786D02*
X12119643Y-17312500D01*
X12148214Y-17298214D01*
X12219643Y-17298214D01*
X12248214Y-17312500D01*
X12262500Y-17326786D01*
X12276786Y-17355357D01*
X12276786Y-17383929D01*
X12262500Y-17426786D01*
X12091071Y-17598214D01*
X12276786Y-17598214D01*
X12391071Y-17326786D02*
X12405357Y-17312500D01*
X12433928Y-17298214D01*
X12505357Y-17298214D01*
X12533928Y-17312500D01*
X12548214Y-17326786D01*
X12562500Y-17355357D01*
X12562500Y-17383929D01*
X12548214Y-17426786D01*
X12376786Y-17598214D01*
X12562500Y-17598214D01*
X12919643Y-17598214D02*
X12919643Y-17298214D01*
X13048214Y-17598214D02*
X13048214Y-17441072D01*
X13033928Y-17412500D01*
X13005357Y-17398214D01*
X12962500Y-17398214D01*
X12933928Y-17412500D01*
X12919643Y-17426786D01*
X13233928Y-17598214D02*
X13205357Y-17583929D01*
X13191071Y-17569643D01*
X13176786Y-17541072D01*
X13176786Y-17455357D01*
X13191071Y-17426786D01*
X13205357Y-17412500D01*
X13233928Y-17398214D01*
X13276786Y-17398214D01*
X13305357Y-17412500D01*
X13319643Y-17426786D01*
X13333928Y-17455357D01*
X13333928Y-17541072D01*
X13319643Y-17569643D01*
X13305357Y-17583929D01*
X13276786Y-17598214D01*
X13233928Y-17598214D01*
X13505357Y-17598214D02*
X13476786Y-17583929D01*
X13462500Y-17555357D01*
X13462500Y-17298214D01*
X13733928Y-17583929D02*
X13705357Y-17598214D01*
X13648214Y-17598214D01*
X13619643Y-17583929D01*
X13605357Y-17555357D01*
X13605357Y-17441072D01*
X13619643Y-17412500D01*
X13648214Y-17398214D01*
X13705357Y-17398214D01*
X13733928Y-17412500D01*
X13748214Y-17441072D01*
X13748214Y-17469643D01*
X13605357Y-17498214D01*
X13862500Y-17583929D02*
X13891071Y-17598214D01*
X13948214Y-17598214D01*
X13976786Y-17583929D01*
X13991071Y-17555357D01*
X13991071Y-17541072D01*
X13976786Y-17512500D01*
X13948214Y-17498214D01*
X13905357Y-17498214D01*
X13876786Y-17483929D01*
X13862500Y-17455357D01*
X13862500Y-17441072D01*
X13876786Y-17412500D01*
X13905357Y-17398214D01*
X13948214Y-17398214D01*
X13976786Y-17412500D01*
X14091071Y-17712500D02*
X14105357Y-17698214D01*
X14133928Y-17655357D01*
X14148214Y-17626786D01*
X14162500Y-17583929D01*
X14176786Y-17512500D01*
X14176786Y-17455357D01*
X14162500Y-17383929D01*
X14148214Y-17341072D01*
X14133928Y-17312500D01*
X14105357Y-17269643D01*
X14091071Y-17255357D01*
X14633928Y-17712500D02*
X14619643Y-17698214D01*
X14591071Y-17655357D01*
X14576786Y-17626786D01*
X14562500Y-17583929D01*
X14548214Y-17512500D01*
X14548214Y-17455357D01*
X14562500Y-17383929D01*
X14576786Y-17341072D01*
X14591071Y-17312500D01*
X14619643Y-17269643D01*
X14633928Y-17255357D01*
X14748214Y-17398214D02*
X14748214Y-17598214D01*
X14748214Y-17426786D02*
X14762500Y-17412500D01*
X14791071Y-17398214D01*
X14833928Y-17398214D01*
X14862500Y-17412500D01*
X14876786Y-17441072D01*
X14876786Y-17598214D01*
X15062500Y-17598214D02*
X15033928Y-17583929D01*
X15019643Y-17569643D01*
X15005357Y-17541072D01*
X15005357Y-17455357D01*
X15019643Y-17426786D01*
X15033928Y-17412500D01*
X15062500Y-17398214D01*
X15105357Y-17398214D01*
X15133928Y-17412500D01*
X15148214Y-17426786D01*
X15162500Y-17455357D01*
X15162500Y-17541072D01*
X15148214Y-17569643D01*
X15133928Y-17583929D01*
X15105357Y-17598214D01*
X15062500Y-17598214D01*
X15248214Y-17398214D02*
X15362500Y-17398214D01*
X15291071Y-17298214D02*
X15291071Y-17555357D01*
X15305357Y-17583929D01*
X15333928Y-17598214D01*
X15362500Y-17598214D01*
X15691071Y-17398214D02*
X15691071Y-17698214D01*
X15691071Y-17412500D02*
X15719643Y-17398214D01*
X15776786Y-17398214D01*
X15805357Y-17412500D01*
X15819643Y-17426786D01*
X15833928Y-17455357D01*
X15833928Y-17541072D01*
X15819643Y-17569643D01*
X15805357Y-17583929D01*
X15776786Y-17598214D01*
X15719643Y-17598214D01*
X15691071Y-17583929D01*
X16005357Y-17598214D02*
X15976786Y-17583929D01*
X15962500Y-17555357D01*
X15962500Y-17298214D01*
X16248214Y-17598214D02*
X16248214Y-17441072D01*
X16233928Y-17412500D01*
X16205357Y-17398214D01*
X16148214Y-17398214D01*
X16119643Y-17412500D01*
X16248214Y-17583929D02*
X16219643Y-17598214D01*
X16148214Y-17598214D01*
X16119643Y-17583929D01*
X16105357Y-17555357D01*
X16105357Y-17526786D01*
X16119643Y-17498214D01*
X16148214Y-17483929D01*
X16219643Y-17483929D01*
X16248214Y-17469643D01*
X16348214Y-17398214D02*
X16462500Y-17398214D01*
X16391071Y-17298214D02*
X16391071Y-17555357D01*
X16405357Y-17583929D01*
X16433928Y-17598214D01*
X16462500Y-17598214D01*
X16676786Y-17583929D02*
X16648214Y-17598214D01*
X16591071Y-17598214D01*
X16562500Y-17583929D01*
X16548214Y-17555357D01*
X16548214Y-17441072D01*
X16562500Y-17412500D01*
X16591071Y-17398214D01*
X16648214Y-17398214D01*
X16676786Y-17412500D01*
X16691071Y-17441072D01*
X16691071Y-17469643D01*
X16548214Y-17498214D01*
X16948214Y-17598214D02*
X16948214Y-17298214D01*
X16948214Y-17583929D02*
X16919643Y-17598214D01*
X16862500Y-17598214D01*
X16833928Y-17583929D01*
X16819643Y-17569643D01*
X16805357Y-17541072D01*
X16805357Y-17455357D01*
X16819643Y-17426786D01*
X16833928Y-17412500D01*
X16862500Y-17398214D01*
X16919643Y-17398214D01*
X16948214Y-17412500D01*
X17062500Y-17712500D02*
X17076786Y-17698214D01*
X17105357Y-17655357D01*
X17119643Y-17626786D01*
X17133928Y-17583929D01*
X17148214Y-17512500D01*
X17148214Y-17455357D01*
X17133928Y-17383929D01*
X17119643Y-17341072D01*
X17105357Y-17312500D01*
X17076786Y-17269643D01*
X17062500Y-17255357D01*
X6747500Y-17858500D02*
G75*
G03*
X6747500Y-17858500I-160000J0D01*
G01*
X7005357Y-17694214D02*
X7191071Y-17694214D01*
X7091071Y-17808500D01*
X7133928Y-17808500D01*
X7162500Y-17822786D01*
X7176786Y-17837072D01*
X7191071Y-17865643D01*
X7191071Y-17937072D01*
X7176786Y-17965643D01*
X7162500Y-17979929D01*
X7133928Y-17994214D01*
X7048214Y-17994214D01*
X7019643Y-17979929D01*
X7005357Y-17965643D01*
X7319643Y-17965643D02*
X7333928Y-17979929D01*
X7319643Y-17994214D01*
X7305357Y-17979929D01*
X7319643Y-17965643D01*
X7319643Y-17994214D01*
X7448214Y-17722786D02*
X7462500Y-17708500D01*
X7491071Y-17694214D01*
X7562500Y-17694214D01*
X7591071Y-17708500D01*
X7605357Y-17722786D01*
X7619643Y-17751357D01*
X7619643Y-17779929D01*
X7605357Y-17822786D01*
X7433928Y-17994214D01*
X7619643Y-17994214D01*
X7805357Y-17694214D02*
X7833928Y-17694214D01*
X7862500Y-17708500D01*
X7876786Y-17722786D01*
X7891071Y-17751357D01*
X7905357Y-17808500D01*
X7905357Y-17879929D01*
X7891071Y-17937072D01*
X7876786Y-17965643D01*
X7862500Y-17979929D01*
X7833928Y-17994214D01*
X7805357Y-17994214D01*
X7776786Y-17979929D01*
X7762500Y-17965643D01*
X7748214Y-17937072D01*
X7733928Y-17879929D01*
X7733928Y-17808500D01*
X7748214Y-17751357D01*
X7762500Y-17722786D01*
X7776786Y-17708500D01*
X7805357Y-17694214D01*
X8091071Y-17694214D02*
X8119643Y-17694214D01*
X8148214Y-17708500D01*
X8162500Y-17722786D01*
X8176786Y-17751357D01*
X8191071Y-17808500D01*
X8191071Y-17879929D01*
X8176786Y-17937072D01*
X8162500Y-17965643D01*
X8148214Y-17979929D01*
X8119643Y-17994214D01*
X8091071Y-17994214D01*
X8062500Y-17979929D01*
X8048214Y-17965643D01*
X8033928Y-17937072D01*
X8019643Y-17879929D01*
X8019643Y-17808500D01*
X8033928Y-17751357D01*
X8048214Y-17722786D01*
X8062500Y-17708500D01*
X8091071Y-17694214D01*
X8319643Y-17994214D02*
X8319643Y-17794214D01*
X8319643Y-17822786D02*
X8333928Y-17808500D01*
X8362500Y-17794214D01*
X8405357Y-17794214D01*
X8433928Y-17808500D01*
X8448214Y-17837072D01*
X8448214Y-17994214D01*
X8448214Y-17837072D02*
X8462500Y-17808500D01*
X8491071Y-17794214D01*
X8533928Y-17794214D01*
X8562500Y-17808500D01*
X8576786Y-17837072D01*
X8576786Y-17994214D01*
X8719643Y-17994214D02*
X8719643Y-17794214D01*
X8719643Y-17822786D02*
X8733928Y-17808500D01*
X8762500Y-17794214D01*
X8805357Y-17794214D01*
X8833928Y-17808500D01*
X8848214Y-17837072D01*
X8848214Y-17994214D01*
X8848214Y-17837072D02*
X8862500Y-17808500D01*
X8891071Y-17794214D01*
X8933928Y-17794214D01*
X8962500Y-17808500D01*
X8976786Y-17837072D01*
X8976786Y-17994214D01*
X9562500Y-17679929D02*
X9305357Y-18065643D01*
X9948214Y-17694214D02*
X9976786Y-17694214D01*
X10005357Y-17708500D01*
X10019643Y-17722786D01*
X10033928Y-17751357D01*
X10048214Y-17808500D01*
X10048214Y-17879929D01*
X10033928Y-17937072D01*
X10019643Y-17965643D01*
X10005357Y-17979929D01*
X9976786Y-17994214D01*
X9948214Y-17994214D01*
X9919643Y-17979929D01*
X9905357Y-17965643D01*
X9891071Y-17937072D01*
X9876786Y-17879929D01*
X9876786Y-17808500D01*
X9891071Y-17751357D01*
X9905357Y-17722786D01*
X9919643Y-17708500D01*
X9948214Y-17694214D01*
X10176786Y-17965643D02*
X10191071Y-17979929D01*
X10176786Y-17994214D01*
X10162500Y-17979929D01*
X10176786Y-17965643D01*
X10176786Y-17994214D01*
X10476786Y-17994214D02*
X10305357Y-17994214D01*
X10391071Y-17994214D02*
X10391071Y-17694214D01*
X10362500Y-17737072D01*
X10333928Y-17765643D01*
X10305357Y-17779929D01*
X10591071Y-17722786D02*
X10605357Y-17708500D01*
X10633928Y-17694214D01*
X10705357Y-17694214D01*
X10733928Y-17708500D01*
X10748214Y-17722786D01*
X10762500Y-17751357D01*
X10762500Y-17779929D01*
X10748214Y-17822786D01*
X10576786Y-17994214D01*
X10762500Y-17994214D01*
X11019643Y-17694214D02*
X10962500Y-17694214D01*
X10933928Y-17708500D01*
X10919643Y-17722786D01*
X10891071Y-17765643D01*
X10876786Y-17822786D01*
X10876786Y-17937072D01*
X10891071Y-17965643D01*
X10905357Y-17979929D01*
X10933928Y-17994214D01*
X10991071Y-17994214D01*
X11019643Y-17979929D01*
X11033928Y-17965643D01*
X11048214Y-17937072D01*
X11048214Y-17865643D01*
X11033928Y-17837072D01*
X11019643Y-17822786D01*
X10991071Y-17808500D01*
X10933928Y-17808500D01*
X10905357Y-17822786D01*
X10891071Y-17837072D01*
X10876786Y-17865643D01*
X11233928Y-17694214D02*
X11262500Y-17694214D01*
X11291071Y-17708500D01*
X11305357Y-17722786D01*
X11319643Y-17751357D01*
X11333928Y-17808500D01*
X11333928Y-17879929D01*
X11319643Y-17937072D01*
X11305357Y-17965643D01*
X11291071Y-17979929D01*
X11262500Y-17994214D01*
X11233928Y-17994214D01*
X11205357Y-17979929D01*
X11191071Y-17965643D01*
X11176786Y-17937072D01*
X11162500Y-17879929D01*
X11162500Y-17808500D01*
X11176786Y-17751357D01*
X11191071Y-17722786D01*
X11205357Y-17708500D01*
X11233928Y-17694214D01*
X11448214Y-17694214D02*
X11448214Y-17751357D01*
X11562500Y-17694214D02*
X11562500Y-17751357D01*
X12005357Y-18108500D02*
X11991071Y-18094214D01*
X11962500Y-18051357D01*
X11948214Y-18022786D01*
X11933928Y-17979929D01*
X11919643Y-17908500D01*
X11919643Y-17851357D01*
X11933928Y-17779929D01*
X11948214Y-17737072D01*
X11962500Y-17708500D01*
X11991071Y-17665643D01*
X12005357Y-17651357D01*
X12262500Y-17694214D02*
X12119643Y-17694214D01*
X12105357Y-17837072D01*
X12119643Y-17822786D01*
X12148214Y-17808500D01*
X12219643Y-17808500D01*
X12248214Y-17822786D01*
X12262500Y-17837072D01*
X12276786Y-17865643D01*
X12276786Y-17937072D01*
X12262500Y-17965643D01*
X12248214Y-17979929D01*
X12219643Y-17994214D01*
X12148214Y-17994214D01*
X12119643Y-17979929D01*
X12105357Y-17965643D01*
X12633928Y-17994214D02*
X12633928Y-17694214D01*
X12762500Y-17994214D02*
X12762500Y-17837072D01*
X12748214Y-17808500D01*
X12719643Y-17794214D01*
X12676786Y-17794214D01*
X12648214Y-17808500D01*
X12633928Y-17822786D01*
X12948214Y-17994214D02*
X12919643Y-17979929D01*
X12905357Y-17965643D01*
X12891071Y-17937072D01*
X12891071Y-17851357D01*
X12905357Y-17822786D01*
X12919643Y-17808500D01*
X12948214Y-17794214D01*
X12991071Y-17794214D01*
X13019643Y-17808500D01*
X13033928Y-17822786D01*
X13048214Y-17851357D01*
X13048214Y-17937072D01*
X13033928Y-17965643D01*
X13019643Y-17979929D01*
X12991071Y-17994214D01*
X12948214Y-17994214D01*
X13219643Y-17994214D02*
X13191071Y-17979929D01*
X13176786Y-17951357D01*
X13176786Y-17694214D01*
X13448214Y-17979929D02*
X13419643Y-17994214D01*
X13362500Y-17994214D01*
X13333928Y-17979929D01*
X13319643Y-17951357D01*
X13319643Y-17837072D01*
X13333928Y-17808500D01*
X13362500Y-17794214D01*
X13419643Y-17794214D01*
X13448214Y-17808500D01*
X13462500Y-17837072D01*
X13462500Y-17865643D01*
X13319643Y-17894214D01*
X13576786Y-17979929D02*
X13605357Y-17994214D01*
X13662500Y-17994214D01*
X13691071Y-17979929D01*
X13705357Y-17951357D01*
X13705357Y-17937072D01*
X13691071Y-17908500D01*
X13662500Y-17894214D01*
X13619643Y-17894214D01*
X13591071Y-17879929D01*
X13576786Y-17851357D01*
X13576786Y-17837072D01*
X13591071Y-17808500D01*
X13619643Y-17794214D01*
X13662500Y-17794214D01*
X13691071Y-17808500D01*
X13805357Y-18108500D02*
X13819643Y-18094214D01*
X13848214Y-18051357D01*
X13862500Y-18022786D01*
X13876786Y-17979929D01*
X13891071Y-17908500D01*
X13891071Y-17851357D01*
X13876786Y-17779929D01*
X13862500Y-17737072D01*
X13848214Y-17708500D01*
X13819643Y-17665643D01*
X13805357Y-17651357D01*
X14348214Y-18108500D02*
X14333928Y-18094214D01*
X14305357Y-18051357D01*
X14291071Y-18022786D01*
X14276786Y-17979929D01*
X14262500Y-17908500D01*
X14262500Y-17851357D01*
X14276786Y-17779929D01*
X14291071Y-17737072D01*
X14305357Y-17708500D01*
X14333928Y-17665643D01*
X14348214Y-17651357D01*
X14462500Y-17794214D02*
X14462500Y-17994214D01*
X14462500Y-17822786D02*
X14476786Y-17808500D01*
X14505357Y-17794214D01*
X14548214Y-17794214D01*
X14576786Y-17808500D01*
X14591071Y-17837072D01*
X14591071Y-17994214D01*
X14776786Y-17994214D02*
X14748214Y-17979929D01*
X14733928Y-17965643D01*
X14719643Y-17937072D01*
X14719643Y-17851357D01*
X14733928Y-17822786D01*
X14748214Y-17808500D01*
X14776786Y-17794214D01*
X14819643Y-17794214D01*
X14848214Y-17808500D01*
X14862500Y-17822786D01*
X14876786Y-17851357D01*
X14876786Y-17937072D01*
X14862500Y-17965643D01*
X14848214Y-17979929D01*
X14819643Y-17994214D01*
X14776786Y-17994214D01*
X14962500Y-17794214D02*
X15076786Y-17794214D01*
X15005357Y-17694214D02*
X15005357Y-17951357D01*
X15019643Y-17979929D01*
X15048214Y-17994214D01*
X15076786Y-17994214D01*
X15405357Y-17794214D02*
X15405357Y-18094214D01*
X15405357Y-17808500D02*
X15433928Y-17794214D01*
X15491071Y-17794214D01*
X15519643Y-17808500D01*
X15533928Y-17822786D01*
X15548214Y-17851357D01*
X15548214Y-17937072D01*
X15533928Y-17965643D01*
X15519643Y-17979929D01*
X15491071Y-17994214D01*
X15433928Y-17994214D01*
X15405357Y-17979929D01*
X15719643Y-17994214D02*
X15691071Y-17979929D01*
X15676786Y-17951357D01*
X15676786Y-17694214D01*
X15962500Y-17994214D02*
X15962500Y-17837072D01*
X15948214Y-17808500D01*
X15919643Y-17794214D01*
X15862500Y-17794214D01*
X15833928Y-17808500D01*
X15962500Y-17979929D02*
X15933928Y-17994214D01*
X15862500Y-17994214D01*
X15833928Y-17979929D01*
X15819643Y-17951357D01*
X15819643Y-17922786D01*
X15833928Y-17894214D01*
X15862500Y-17879929D01*
X15933928Y-17879929D01*
X15962500Y-17865643D01*
X16062500Y-17794214D02*
X16176786Y-17794214D01*
X16105357Y-17694214D02*
X16105357Y-17951357D01*
X16119643Y-17979929D01*
X16148214Y-17994214D01*
X16176786Y-17994214D01*
X16391071Y-17979929D02*
X16362500Y-17994214D01*
X16305357Y-17994214D01*
X16276786Y-17979929D01*
X16262500Y-17951357D01*
X16262500Y-17837072D01*
X16276786Y-17808500D01*
X16305357Y-17794214D01*
X16362500Y-17794214D01*
X16391071Y-17808500D01*
X16405357Y-17837072D01*
X16405357Y-17865643D01*
X16262500Y-17894214D01*
X16662500Y-17994214D02*
X16662500Y-17694214D01*
X16662500Y-17979929D02*
X16633928Y-17994214D01*
X16576786Y-17994214D01*
X16548214Y-17979929D01*
X16533928Y-17965643D01*
X16519643Y-17937072D01*
X16519643Y-17851357D01*
X16533928Y-17822786D01*
X16548214Y-17808500D01*
X16576786Y-17794214D01*
X16633928Y-17794214D01*
X16662500Y-17808500D01*
X16776786Y-18108500D02*
X16791071Y-18094214D01*
X16819643Y-18051357D01*
X16833928Y-18022786D01*
X16848214Y-17979929D01*
X16862500Y-17908500D01*
X16862500Y-17851357D01*
X16848214Y-17779929D01*
X16833928Y-17737072D01*
X16819643Y-17708500D01*
X16791071Y-17665643D01*
X16776786Y-17651357D01*
M02*
