%TF.GenerationSoftware,KiCad,Pcbnew,(5.1.12)-1*%
%TF.CreationDate,2022-02-06T21:24:49-08:00*%
%TF.ProjectId,DriverBoard,44726976-6572-4426-9f61-72642e6b6963,rev?*%
%TF.SameCoordinates,Original*%
%TF.FileFunction,Legend,Top*%
%TF.FilePolarity,Positive*%
%FSLAX46Y46*%
G04 Gerber Fmt 4.6, Leading zero omitted, Abs format (unit mm)*
G04 Created by KiCad (PCBNEW (5.1.12)-1) date 2022-02-06 21:24:49*
%MOMM*%
%LPD*%
G01*
G04 APERTURE LIST*
%ADD10C,0.187500*%
%ADD11C,0.125000*%
%ADD12C,0.300000*%
%ADD13C,0.120000*%
%ADD14C,0.127000*%
%ADD15C,0.200000*%
%ADD16C,0.100000*%
%ADD17C,0.050000*%
%ADD18C,0.150000*%
G04 APERTURE END LIST*
D10*
X86682142Y-48989285D02*
X87110714Y-48989285D01*
X86896428Y-49739285D02*
X86896428Y-48989285D01*
X87682142Y-49239285D02*
X87682142Y-49739285D01*
X87360714Y-49239285D02*
X87360714Y-49632142D01*
X87396428Y-49703571D01*
X87467857Y-49739285D01*
X87575000Y-49739285D01*
X87646428Y-49703571D01*
X87682142Y-49667857D01*
X88039285Y-49739285D02*
X88039285Y-49239285D01*
X88039285Y-49382142D02*
X88075000Y-49310714D01*
X88110714Y-49275000D01*
X88182142Y-49239285D01*
X88253571Y-49239285D01*
X88503571Y-49739285D02*
X88503571Y-49239285D01*
X88503571Y-49382142D02*
X88539285Y-49310714D01*
X88575000Y-49275000D01*
X88646428Y-49239285D01*
X88717857Y-49239285D01*
X89253571Y-49703571D02*
X89182142Y-49739285D01*
X89039285Y-49739285D01*
X88967857Y-49703571D01*
X88932142Y-49632142D01*
X88932142Y-49346428D01*
X88967857Y-49275000D01*
X89039285Y-49239285D01*
X89182142Y-49239285D01*
X89253571Y-49275000D01*
X89289285Y-49346428D01*
X89289285Y-49417857D01*
X88932142Y-49489285D01*
X89503571Y-49239285D02*
X89789285Y-49239285D01*
X89610714Y-48989285D02*
X89610714Y-49632142D01*
X89646428Y-49703571D01*
X89717857Y-49739285D01*
X89789285Y-49739285D01*
X90575000Y-49703571D02*
X90682142Y-49739285D01*
X90860714Y-49739285D01*
X90932142Y-49703571D01*
X90967857Y-49667857D01*
X91003571Y-49596428D01*
X91003571Y-49525000D01*
X90967857Y-49453571D01*
X90932142Y-49417857D01*
X90860714Y-49382142D01*
X90717857Y-49346428D01*
X90646428Y-49310714D01*
X90610714Y-49275000D01*
X90575000Y-49203571D01*
X90575000Y-49132142D01*
X90610714Y-49060714D01*
X90646428Y-49025000D01*
X90717857Y-48989285D01*
X90896428Y-48989285D01*
X91003571Y-49025000D01*
X91610714Y-49703571D02*
X91539285Y-49739285D01*
X91396428Y-49739285D01*
X91325000Y-49703571D01*
X91289285Y-49632142D01*
X91289285Y-49346428D01*
X91325000Y-49275000D01*
X91396428Y-49239285D01*
X91539285Y-49239285D01*
X91610714Y-49275000D01*
X91646428Y-49346428D01*
X91646428Y-49417857D01*
X91289285Y-49489285D01*
X91967857Y-49739285D02*
X91967857Y-49239285D01*
X91967857Y-49382142D02*
X92003571Y-49310714D01*
X92039285Y-49275000D01*
X92110714Y-49239285D01*
X92182142Y-49239285D01*
X92360714Y-49239285D02*
X92539285Y-49739285D01*
X92717857Y-49239285D01*
X93110714Y-49739285D02*
X93039285Y-49703571D01*
X93003571Y-49667857D01*
X92967857Y-49596428D01*
X92967857Y-49382142D01*
X93003571Y-49310714D01*
X93039285Y-49275000D01*
X93110714Y-49239285D01*
X93217857Y-49239285D01*
X93289285Y-49275000D01*
X93325000Y-49310714D01*
X93360714Y-49382142D01*
X93360714Y-49596428D01*
X93325000Y-49667857D01*
X93289285Y-49703571D01*
X93217857Y-49739285D01*
X93110714Y-49739285D01*
X94646428Y-49739285D02*
X94217857Y-49739285D01*
X94432142Y-49739285D02*
X94432142Y-48989285D01*
X94360714Y-49096428D01*
X94289285Y-49167857D01*
X94217857Y-49203571D01*
X86682142Y-58489285D02*
X87110714Y-58489285D01*
X86896428Y-59239285D02*
X86896428Y-58489285D01*
X87682142Y-58739285D02*
X87682142Y-59239285D01*
X87360714Y-58739285D02*
X87360714Y-59132142D01*
X87396428Y-59203571D01*
X87467857Y-59239285D01*
X87575000Y-59239285D01*
X87646428Y-59203571D01*
X87682142Y-59167857D01*
X88039285Y-59239285D02*
X88039285Y-58739285D01*
X88039285Y-58882142D02*
X88075000Y-58810714D01*
X88110714Y-58775000D01*
X88182142Y-58739285D01*
X88253571Y-58739285D01*
X88503571Y-59239285D02*
X88503571Y-58739285D01*
X88503571Y-58882142D02*
X88539285Y-58810714D01*
X88575000Y-58775000D01*
X88646428Y-58739285D01*
X88717857Y-58739285D01*
X89253571Y-59203571D02*
X89182142Y-59239285D01*
X89039285Y-59239285D01*
X88967857Y-59203571D01*
X88932142Y-59132142D01*
X88932142Y-58846428D01*
X88967857Y-58775000D01*
X89039285Y-58739285D01*
X89182142Y-58739285D01*
X89253571Y-58775000D01*
X89289285Y-58846428D01*
X89289285Y-58917857D01*
X88932142Y-58989285D01*
X89503571Y-58739285D02*
X89789285Y-58739285D01*
X89610714Y-58489285D02*
X89610714Y-59132142D01*
X89646428Y-59203571D01*
X89717857Y-59239285D01*
X89789285Y-59239285D01*
X90575000Y-59203571D02*
X90682142Y-59239285D01*
X90860714Y-59239285D01*
X90932142Y-59203571D01*
X90967857Y-59167857D01*
X91003571Y-59096428D01*
X91003571Y-59025000D01*
X90967857Y-58953571D01*
X90932142Y-58917857D01*
X90860714Y-58882142D01*
X90717857Y-58846428D01*
X90646428Y-58810714D01*
X90610714Y-58775000D01*
X90575000Y-58703571D01*
X90575000Y-58632142D01*
X90610714Y-58560714D01*
X90646428Y-58525000D01*
X90717857Y-58489285D01*
X90896428Y-58489285D01*
X91003571Y-58525000D01*
X91610714Y-59203571D02*
X91539285Y-59239285D01*
X91396428Y-59239285D01*
X91325000Y-59203571D01*
X91289285Y-59132142D01*
X91289285Y-58846428D01*
X91325000Y-58775000D01*
X91396428Y-58739285D01*
X91539285Y-58739285D01*
X91610714Y-58775000D01*
X91646428Y-58846428D01*
X91646428Y-58917857D01*
X91289285Y-58989285D01*
X91967857Y-59239285D02*
X91967857Y-58739285D01*
X91967857Y-58882142D02*
X92003571Y-58810714D01*
X92039285Y-58775000D01*
X92110714Y-58739285D01*
X92182142Y-58739285D01*
X92360714Y-58739285D02*
X92539285Y-59239285D01*
X92717857Y-58739285D01*
X93110714Y-59239285D02*
X93039285Y-59203571D01*
X93003571Y-59167857D01*
X92967857Y-59096428D01*
X92967857Y-58882142D01*
X93003571Y-58810714D01*
X93039285Y-58775000D01*
X93110714Y-58739285D01*
X93217857Y-58739285D01*
X93289285Y-58775000D01*
X93325000Y-58810714D01*
X93360714Y-58882142D01*
X93360714Y-59096428D01*
X93325000Y-59167857D01*
X93289285Y-59203571D01*
X93217857Y-59239285D01*
X93110714Y-59239285D01*
X94217857Y-58560714D02*
X94253571Y-58525000D01*
X94325000Y-58489285D01*
X94503571Y-58489285D01*
X94575000Y-58525000D01*
X94610714Y-58560714D01*
X94646428Y-58632142D01*
X94646428Y-58703571D01*
X94610714Y-58810714D01*
X94182142Y-59239285D01*
X94646428Y-59239285D01*
D11*
X186904761Y-51726190D02*
X186904761Y-51226190D01*
X187023809Y-51226190D01*
X187095238Y-51250000D01*
X187142857Y-51297619D01*
X187166666Y-51345238D01*
X187190476Y-51440476D01*
X187190476Y-51511904D01*
X187166666Y-51607142D01*
X187142857Y-51654761D01*
X187095238Y-51702380D01*
X187023809Y-51726190D01*
X186904761Y-51726190D01*
X187404761Y-51726190D02*
X187404761Y-51392857D01*
X187404761Y-51488095D02*
X187428571Y-51440476D01*
X187452380Y-51416666D01*
X187500000Y-51392857D01*
X187547619Y-51392857D01*
X187714285Y-51726190D02*
X187714285Y-51392857D01*
X187714285Y-51226190D02*
X187690476Y-51250000D01*
X187714285Y-51273809D01*
X187738095Y-51250000D01*
X187714285Y-51226190D01*
X187714285Y-51273809D01*
X187904761Y-51392857D02*
X188023809Y-51726190D01*
X188142857Y-51392857D01*
X188523809Y-51702380D02*
X188476190Y-51726190D01*
X188380952Y-51726190D01*
X188333333Y-51702380D01*
X188309523Y-51654761D01*
X188309523Y-51464285D01*
X188333333Y-51416666D01*
X188380952Y-51392857D01*
X188476190Y-51392857D01*
X188523809Y-51416666D01*
X188547619Y-51464285D01*
X188547619Y-51511904D01*
X188309523Y-51559523D01*
X189357142Y-51226190D02*
X189261904Y-51226190D01*
X189214285Y-51250000D01*
X189190476Y-51273809D01*
X189142857Y-51345238D01*
X189119047Y-51440476D01*
X189119047Y-51630952D01*
X189142857Y-51678571D01*
X189166666Y-51702380D01*
X189214285Y-51726190D01*
X189309523Y-51726190D01*
X189357142Y-51702380D01*
X189380952Y-51678571D01*
X189404761Y-51630952D01*
X189404761Y-51511904D01*
X189380952Y-51464285D01*
X189357142Y-51440476D01*
X189309523Y-51416666D01*
X189214285Y-51416666D01*
X189166666Y-51440476D01*
X189142857Y-51464285D01*
X189119047Y-51511904D01*
X190000000Y-51464285D02*
X190166666Y-51464285D01*
X190238095Y-51726190D02*
X190000000Y-51726190D01*
X190000000Y-51226190D01*
X190238095Y-51226190D01*
X190452380Y-51392857D02*
X190452380Y-51726190D01*
X190452380Y-51440476D02*
X190476190Y-51416666D01*
X190523809Y-51392857D01*
X190595238Y-51392857D01*
X190642857Y-51416666D01*
X190666666Y-51464285D01*
X190666666Y-51726190D01*
X191119047Y-51702380D02*
X191071428Y-51726190D01*
X190976190Y-51726190D01*
X190928571Y-51702380D01*
X190904761Y-51678571D01*
X190880952Y-51630952D01*
X190880952Y-51488095D01*
X190904761Y-51440476D01*
X190928571Y-51416666D01*
X190976190Y-51392857D01*
X191071428Y-51392857D01*
X191119047Y-51416666D01*
X170904761Y-51726190D02*
X170904761Y-51226190D01*
X171023809Y-51226190D01*
X171095238Y-51250000D01*
X171142857Y-51297619D01*
X171166666Y-51345238D01*
X171190476Y-51440476D01*
X171190476Y-51511904D01*
X171166666Y-51607142D01*
X171142857Y-51654761D01*
X171095238Y-51702380D01*
X171023809Y-51726190D01*
X170904761Y-51726190D01*
X171404761Y-51726190D02*
X171404761Y-51392857D01*
X171404761Y-51488095D02*
X171428571Y-51440476D01*
X171452380Y-51416666D01*
X171500000Y-51392857D01*
X171547619Y-51392857D01*
X171714285Y-51726190D02*
X171714285Y-51392857D01*
X171714285Y-51226190D02*
X171690476Y-51250000D01*
X171714285Y-51273809D01*
X171738095Y-51250000D01*
X171714285Y-51226190D01*
X171714285Y-51273809D01*
X171904761Y-51392857D02*
X172023809Y-51726190D01*
X172142857Y-51392857D01*
X172523809Y-51702380D02*
X172476190Y-51726190D01*
X172380952Y-51726190D01*
X172333333Y-51702380D01*
X172309523Y-51654761D01*
X172309523Y-51464285D01*
X172333333Y-51416666D01*
X172380952Y-51392857D01*
X172476190Y-51392857D01*
X172523809Y-51416666D01*
X172547619Y-51464285D01*
X172547619Y-51511904D01*
X172309523Y-51559523D01*
X173380952Y-51226190D02*
X173142857Y-51226190D01*
X173119047Y-51464285D01*
X173142857Y-51440476D01*
X173190476Y-51416666D01*
X173309523Y-51416666D01*
X173357142Y-51440476D01*
X173380952Y-51464285D01*
X173404761Y-51511904D01*
X173404761Y-51630952D01*
X173380952Y-51678571D01*
X173357142Y-51702380D01*
X173309523Y-51726190D01*
X173190476Y-51726190D01*
X173142857Y-51702380D01*
X173119047Y-51678571D01*
X174000000Y-51464285D02*
X174166666Y-51464285D01*
X174238095Y-51726190D02*
X174000000Y-51726190D01*
X174000000Y-51226190D01*
X174238095Y-51226190D01*
X174452380Y-51392857D02*
X174452380Y-51726190D01*
X174452380Y-51440476D02*
X174476190Y-51416666D01*
X174523809Y-51392857D01*
X174595238Y-51392857D01*
X174642857Y-51416666D01*
X174666666Y-51464285D01*
X174666666Y-51726190D01*
X175119047Y-51702380D02*
X175071428Y-51726190D01*
X174976190Y-51726190D01*
X174928571Y-51702380D01*
X174904761Y-51678571D01*
X174880952Y-51630952D01*
X174880952Y-51488095D01*
X174904761Y-51440476D01*
X174928571Y-51416666D01*
X174976190Y-51392857D01*
X175071428Y-51392857D01*
X175119047Y-51416666D01*
X154904761Y-51726190D02*
X154904761Y-51226190D01*
X155023809Y-51226190D01*
X155095238Y-51250000D01*
X155142857Y-51297619D01*
X155166666Y-51345238D01*
X155190476Y-51440476D01*
X155190476Y-51511904D01*
X155166666Y-51607142D01*
X155142857Y-51654761D01*
X155095238Y-51702380D01*
X155023809Y-51726190D01*
X154904761Y-51726190D01*
X155404761Y-51726190D02*
X155404761Y-51392857D01*
X155404761Y-51488095D02*
X155428571Y-51440476D01*
X155452380Y-51416666D01*
X155500000Y-51392857D01*
X155547619Y-51392857D01*
X155714285Y-51726190D02*
X155714285Y-51392857D01*
X155714285Y-51226190D02*
X155690476Y-51250000D01*
X155714285Y-51273809D01*
X155738095Y-51250000D01*
X155714285Y-51226190D01*
X155714285Y-51273809D01*
X155904761Y-51392857D02*
X156023809Y-51726190D01*
X156142857Y-51392857D01*
X156523809Y-51702380D02*
X156476190Y-51726190D01*
X156380952Y-51726190D01*
X156333333Y-51702380D01*
X156309523Y-51654761D01*
X156309523Y-51464285D01*
X156333333Y-51416666D01*
X156380952Y-51392857D01*
X156476190Y-51392857D01*
X156523809Y-51416666D01*
X156547619Y-51464285D01*
X156547619Y-51511904D01*
X156309523Y-51559523D01*
X157357142Y-51392857D02*
X157357142Y-51726190D01*
X157238095Y-51202380D02*
X157119047Y-51559523D01*
X157428571Y-51559523D01*
X158000000Y-51464285D02*
X158166666Y-51464285D01*
X158238095Y-51726190D02*
X158000000Y-51726190D01*
X158000000Y-51226190D01*
X158238095Y-51226190D01*
X158452380Y-51392857D02*
X158452380Y-51726190D01*
X158452380Y-51440476D02*
X158476190Y-51416666D01*
X158523809Y-51392857D01*
X158595238Y-51392857D01*
X158642857Y-51416666D01*
X158666666Y-51464285D01*
X158666666Y-51726190D01*
X159119047Y-51702380D02*
X159071428Y-51726190D01*
X158976190Y-51726190D01*
X158928571Y-51702380D01*
X158904761Y-51678571D01*
X158880952Y-51630952D01*
X158880952Y-51488095D01*
X158904761Y-51440476D01*
X158928571Y-51416666D01*
X158976190Y-51392857D01*
X159071428Y-51392857D01*
X159119047Y-51416666D01*
X138904761Y-51726190D02*
X138904761Y-51226190D01*
X139023809Y-51226190D01*
X139095238Y-51250000D01*
X139142857Y-51297619D01*
X139166666Y-51345238D01*
X139190476Y-51440476D01*
X139190476Y-51511904D01*
X139166666Y-51607142D01*
X139142857Y-51654761D01*
X139095238Y-51702380D01*
X139023809Y-51726190D01*
X138904761Y-51726190D01*
X139404761Y-51726190D02*
X139404761Y-51392857D01*
X139404761Y-51488095D02*
X139428571Y-51440476D01*
X139452380Y-51416666D01*
X139500000Y-51392857D01*
X139547619Y-51392857D01*
X139714285Y-51726190D02*
X139714285Y-51392857D01*
X139714285Y-51226190D02*
X139690476Y-51250000D01*
X139714285Y-51273809D01*
X139738095Y-51250000D01*
X139714285Y-51226190D01*
X139714285Y-51273809D01*
X139904761Y-51392857D02*
X140023809Y-51726190D01*
X140142857Y-51392857D01*
X140523809Y-51702380D02*
X140476190Y-51726190D01*
X140380952Y-51726190D01*
X140333333Y-51702380D01*
X140309523Y-51654761D01*
X140309523Y-51464285D01*
X140333333Y-51416666D01*
X140380952Y-51392857D01*
X140476190Y-51392857D01*
X140523809Y-51416666D01*
X140547619Y-51464285D01*
X140547619Y-51511904D01*
X140309523Y-51559523D01*
X141095238Y-51226190D02*
X141404761Y-51226190D01*
X141238095Y-51416666D01*
X141309523Y-51416666D01*
X141357142Y-51440476D01*
X141380952Y-51464285D01*
X141404761Y-51511904D01*
X141404761Y-51630952D01*
X141380952Y-51678571D01*
X141357142Y-51702380D01*
X141309523Y-51726190D01*
X141166666Y-51726190D01*
X141119047Y-51702380D01*
X141095238Y-51678571D01*
X142000000Y-51464285D02*
X142166666Y-51464285D01*
X142238095Y-51726190D02*
X142000000Y-51726190D01*
X142000000Y-51226190D01*
X142238095Y-51226190D01*
X142452380Y-51392857D02*
X142452380Y-51726190D01*
X142452380Y-51440476D02*
X142476190Y-51416666D01*
X142523809Y-51392857D01*
X142595238Y-51392857D01*
X142642857Y-51416666D01*
X142666666Y-51464285D01*
X142666666Y-51726190D01*
X143119047Y-51702380D02*
X143071428Y-51726190D01*
X142976190Y-51726190D01*
X142928571Y-51702380D01*
X142904761Y-51678571D01*
X142880952Y-51630952D01*
X142880952Y-51488095D01*
X142904761Y-51440476D01*
X142928571Y-51416666D01*
X142976190Y-51392857D01*
X143071428Y-51392857D01*
X143119047Y-51416666D01*
X122904761Y-51726190D02*
X122904761Y-51226190D01*
X123023809Y-51226190D01*
X123095238Y-51250000D01*
X123142857Y-51297619D01*
X123166666Y-51345238D01*
X123190476Y-51440476D01*
X123190476Y-51511904D01*
X123166666Y-51607142D01*
X123142857Y-51654761D01*
X123095238Y-51702380D01*
X123023809Y-51726190D01*
X122904761Y-51726190D01*
X123404761Y-51726190D02*
X123404761Y-51392857D01*
X123404761Y-51488095D02*
X123428571Y-51440476D01*
X123452380Y-51416666D01*
X123500000Y-51392857D01*
X123547619Y-51392857D01*
X123714285Y-51726190D02*
X123714285Y-51392857D01*
X123714285Y-51226190D02*
X123690476Y-51250000D01*
X123714285Y-51273809D01*
X123738095Y-51250000D01*
X123714285Y-51226190D01*
X123714285Y-51273809D01*
X123904761Y-51392857D02*
X124023809Y-51726190D01*
X124142857Y-51392857D01*
X124523809Y-51702380D02*
X124476190Y-51726190D01*
X124380952Y-51726190D01*
X124333333Y-51702380D01*
X124309523Y-51654761D01*
X124309523Y-51464285D01*
X124333333Y-51416666D01*
X124380952Y-51392857D01*
X124476190Y-51392857D01*
X124523809Y-51416666D01*
X124547619Y-51464285D01*
X124547619Y-51511904D01*
X124309523Y-51559523D01*
X125119047Y-51273809D02*
X125142857Y-51250000D01*
X125190476Y-51226190D01*
X125309523Y-51226190D01*
X125357142Y-51250000D01*
X125380952Y-51273809D01*
X125404761Y-51321428D01*
X125404761Y-51369047D01*
X125380952Y-51440476D01*
X125095238Y-51726190D01*
X125404761Y-51726190D01*
X126000000Y-51464285D02*
X126166666Y-51464285D01*
X126238095Y-51726190D02*
X126000000Y-51726190D01*
X126000000Y-51226190D01*
X126238095Y-51226190D01*
X126452380Y-51392857D02*
X126452380Y-51726190D01*
X126452380Y-51440476D02*
X126476190Y-51416666D01*
X126523809Y-51392857D01*
X126595238Y-51392857D01*
X126642857Y-51416666D01*
X126666666Y-51464285D01*
X126666666Y-51726190D01*
X127119047Y-51702380D02*
X127071428Y-51726190D01*
X126976190Y-51726190D01*
X126928571Y-51702380D01*
X126904761Y-51678571D01*
X126880952Y-51630952D01*
X126880952Y-51488095D01*
X126904761Y-51440476D01*
X126928571Y-51416666D01*
X126976190Y-51392857D01*
X127071428Y-51392857D01*
X127119047Y-51416666D01*
X106904761Y-51726190D02*
X106904761Y-51226190D01*
X107023809Y-51226190D01*
X107095238Y-51250000D01*
X107142857Y-51297619D01*
X107166666Y-51345238D01*
X107190476Y-51440476D01*
X107190476Y-51511904D01*
X107166666Y-51607142D01*
X107142857Y-51654761D01*
X107095238Y-51702380D01*
X107023809Y-51726190D01*
X106904761Y-51726190D01*
X107404761Y-51726190D02*
X107404761Y-51392857D01*
X107404761Y-51488095D02*
X107428571Y-51440476D01*
X107452380Y-51416666D01*
X107500000Y-51392857D01*
X107547619Y-51392857D01*
X107714285Y-51726190D02*
X107714285Y-51392857D01*
X107714285Y-51226190D02*
X107690476Y-51250000D01*
X107714285Y-51273809D01*
X107738095Y-51250000D01*
X107714285Y-51226190D01*
X107714285Y-51273809D01*
X107904761Y-51392857D02*
X108023809Y-51726190D01*
X108142857Y-51392857D01*
X108523809Y-51702380D02*
X108476190Y-51726190D01*
X108380952Y-51726190D01*
X108333333Y-51702380D01*
X108309523Y-51654761D01*
X108309523Y-51464285D01*
X108333333Y-51416666D01*
X108380952Y-51392857D01*
X108476190Y-51392857D01*
X108523809Y-51416666D01*
X108547619Y-51464285D01*
X108547619Y-51511904D01*
X108309523Y-51559523D01*
X109404761Y-51726190D02*
X109119047Y-51726190D01*
X109261904Y-51726190D02*
X109261904Y-51226190D01*
X109214285Y-51297619D01*
X109166666Y-51345238D01*
X109119047Y-51369047D01*
X110000000Y-51464285D02*
X110166666Y-51464285D01*
X110238095Y-51726190D02*
X110000000Y-51726190D01*
X110000000Y-51226190D01*
X110238095Y-51226190D01*
X110452380Y-51392857D02*
X110452380Y-51726190D01*
X110452380Y-51440476D02*
X110476190Y-51416666D01*
X110523809Y-51392857D01*
X110595238Y-51392857D01*
X110642857Y-51416666D01*
X110666666Y-51464285D01*
X110666666Y-51726190D01*
X111119047Y-51702380D02*
X111071428Y-51726190D01*
X110976190Y-51726190D01*
X110928571Y-51702380D01*
X110904761Y-51678571D01*
X110880952Y-51630952D01*
X110880952Y-51488095D01*
X110904761Y-51440476D01*
X110928571Y-51416666D01*
X110976190Y-51392857D01*
X111071428Y-51392857D01*
X111119047Y-51416666D01*
D12*
X226407142Y-138635714D02*
X226478571Y-138421428D01*
X226478571Y-138064285D01*
X226407142Y-137921428D01*
X226335714Y-137850000D01*
X226192857Y-137778571D01*
X226050000Y-137778571D01*
X225907142Y-137850000D01*
X225835714Y-137921428D01*
X225764285Y-138064285D01*
X225692857Y-138350000D01*
X225621428Y-138492857D01*
X225550000Y-138564285D01*
X225407142Y-138635714D01*
X225264285Y-138635714D01*
X225121428Y-138564285D01*
X225050000Y-138492857D01*
X224978571Y-138350000D01*
X224978571Y-137992857D01*
X225050000Y-137778571D01*
X226478571Y-137135714D02*
X224978571Y-137135714D01*
X224978571Y-136564285D01*
X225050000Y-136421428D01*
X225121428Y-136350000D01*
X225264285Y-136278571D01*
X225478571Y-136278571D01*
X225621428Y-136350000D01*
X225692857Y-136421428D01*
X225764285Y-136564285D01*
X225764285Y-137135714D01*
X226478571Y-135635714D02*
X224978571Y-135635714D01*
D11*
X186845238Y-138702380D02*
X186916666Y-138726190D01*
X187035714Y-138726190D01*
X187083333Y-138702380D01*
X187107142Y-138678571D01*
X187130952Y-138630952D01*
X187130952Y-138583333D01*
X187107142Y-138535714D01*
X187083333Y-138511904D01*
X187035714Y-138488095D01*
X186940476Y-138464285D01*
X186892857Y-138440476D01*
X186869047Y-138416666D01*
X186845238Y-138369047D01*
X186845238Y-138321428D01*
X186869047Y-138273809D01*
X186892857Y-138250000D01*
X186940476Y-138226190D01*
X187059523Y-138226190D01*
X187130952Y-138250000D01*
X187273809Y-138392857D02*
X187464285Y-138392857D01*
X187345238Y-138226190D02*
X187345238Y-138654761D01*
X187369047Y-138702380D01*
X187416666Y-138726190D01*
X187464285Y-138726190D01*
X187821428Y-138702380D02*
X187773809Y-138726190D01*
X187678571Y-138726190D01*
X187630952Y-138702380D01*
X187607142Y-138654761D01*
X187607142Y-138464285D01*
X187630952Y-138416666D01*
X187678571Y-138392857D01*
X187773809Y-138392857D01*
X187821428Y-138416666D01*
X187845238Y-138464285D01*
X187845238Y-138511904D01*
X187607142Y-138559523D01*
X188250000Y-138702380D02*
X188202380Y-138726190D01*
X188107142Y-138726190D01*
X188059523Y-138702380D01*
X188035714Y-138654761D01*
X188035714Y-138464285D01*
X188059523Y-138416666D01*
X188107142Y-138392857D01*
X188202380Y-138392857D01*
X188250000Y-138416666D01*
X188273809Y-138464285D01*
X188273809Y-138511904D01*
X188035714Y-138559523D01*
X188488095Y-138726190D02*
X188488095Y-138392857D01*
X188488095Y-138488095D02*
X188511904Y-138440476D01*
X188535714Y-138416666D01*
X188583333Y-138392857D01*
X188630952Y-138392857D01*
X189392857Y-138226190D02*
X189297619Y-138226190D01*
X189250000Y-138250000D01*
X189226190Y-138273809D01*
X189178571Y-138345238D01*
X189154761Y-138440476D01*
X189154761Y-138630952D01*
X189178571Y-138678571D01*
X189202380Y-138702380D01*
X189250000Y-138726190D01*
X189345238Y-138726190D01*
X189392857Y-138702380D01*
X189416666Y-138678571D01*
X189440476Y-138630952D01*
X189440476Y-138511904D01*
X189416666Y-138464285D01*
X189392857Y-138440476D01*
X189345238Y-138416666D01*
X189250000Y-138416666D01*
X189202380Y-138440476D01*
X189178571Y-138464285D01*
X189154761Y-138511904D01*
X190035714Y-138464285D02*
X190202380Y-138464285D01*
X190273809Y-138726190D02*
X190035714Y-138726190D01*
X190035714Y-138226190D01*
X190273809Y-138226190D01*
X190488095Y-138392857D02*
X190488095Y-138726190D01*
X190488095Y-138440476D02*
X190511904Y-138416666D01*
X190559523Y-138392857D01*
X190630952Y-138392857D01*
X190678571Y-138416666D01*
X190702380Y-138464285D01*
X190702380Y-138726190D01*
X191154761Y-138702380D02*
X191107142Y-138726190D01*
X191011904Y-138726190D01*
X190964285Y-138702380D01*
X190940476Y-138678571D01*
X190916666Y-138630952D01*
X190916666Y-138488095D01*
X190940476Y-138440476D01*
X190964285Y-138416666D01*
X191011904Y-138392857D01*
X191107142Y-138392857D01*
X191154761Y-138416666D01*
X170845238Y-138702380D02*
X170916666Y-138726190D01*
X171035714Y-138726190D01*
X171083333Y-138702380D01*
X171107142Y-138678571D01*
X171130952Y-138630952D01*
X171130952Y-138583333D01*
X171107142Y-138535714D01*
X171083333Y-138511904D01*
X171035714Y-138488095D01*
X170940476Y-138464285D01*
X170892857Y-138440476D01*
X170869047Y-138416666D01*
X170845238Y-138369047D01*
X170845238Y-138321428D01*
X170869047Y-138273809D01*
X170892857Y-138250000D01*
X170940476Y-138226190D01*
X171059523Y-138226190D01*
X171130952Y-138250000D01*
X171273809Y-138392857D02*
X171464285Y-138392857D01*
X171345238Y-138226190D02*
X171345238Y-138654761D01*
X171369047Y-138702380D01*
X171416666Y-138726190D01*
X171464285Y-138726190D01*
X171821428Y-138702380D02*
X171773809Y-138726190D01*
X171678571Y-138726190D01*
X171630952Y-138702380D01*
X171607142Y-138654761D01*
X171607142Y-138464285D01*
X171630952Y-138416666D01*
X171678571Y-138392857D01*
X171773809Y-138392857D01*
X171821428Y-138416666D01*
X171845238Y-138464285D01*
X171845238Y-138511904D01*
X171607142Y-138559523D01*
X172250000Y-138702380D02*
X172202380Y-138726190D01*
X172107142Y-138726190D01*
X172059523Y-138702380D01*
X172035714Y-138654761D01*
X172035714Y-138464285D01*
X172059523Y-138416666D01*
X172107142Y-138392857D01*
X172202380Y-138392857D01*
X172250000Y-138416666D01*
X172273809Y-138464285D01*
X172273809Y-138511904D01*
X172035714Y-138559523D01*
X172488095Y-138726190D02*
X172488095Y-138392857D01*
X172488095Y-138488095D02*
X172511904Y-138440476D01*
X172535714Y-138416666D01*
X172583333Y-138392857D01*
X172630952Y-138392857D01*
X173416666Y-138226190D02*
X173178571Y-138226190D01*
X173154761Y-138464285D01*
X173178571Y-138440476D01*
X173226190Y-138416666D01*
X173345238Y-138416666D01*
X173392857Y-138440476D01*
X173416666Y-138464285D01*
X173440476Y-138511904D01*
X173440476Y-138630952D01*
X173416666Y-138678571D01*
X173392857Y-138702380D01*
X173345238Y-138726190D01*
X173226190Y-138726190D01*
X173178571Y-138702380D01*
X173154761Y-138678571D01*
X174035714Y-138464285D02*
X174202380Y-138464285D01*
X174273809Y-138726190D02*
X174035714Y-138726190D01*
X174035714Y-138226190D01*
X174273809Y-138226190D01*
X174488095Y-138392857D02*
X174488095Y-138726190D01*
X174488095Y-138440476D02*
X174511904Y-138416666D01*
X174559523Y-138392857D01*
X174630952Y-138392857D01*
X174678571Y-138416666D01*
X174702380Y-138464285D01*
X174702380Y-138726190D01*
X175154761Y-138702380D02*
X175107142Y-138726190D01*
X175011904Y-138726190D01*
X174964285Y-138702380D01*
X174940476Y-138678571D01*
X174916666Y-138630952D01*
X174916666Y-138488095D01*
X174940476Y-138440476D01*
X174964285Y-138416666D01*
X175011904Y-138392857D01*
X175107142Y-138392857D01*
X175154761Y-138416666D01*
X154845238Y-138702380D02*
X154916666Y-138726190D01*
X155035714Y-138726190D01*
X155083333Y-138702380D01*
X155107142Y-138678571D01*
X155130952Y-138630952D01*
X155130952Y-138583333D01*
X155107142Y-138535714D01*
X155083333Y-138511904D01*
X155035714Y-138488095D01*
X154940476Y-138464285D01*
X154892857Y-138440476D01*
X154869047Y-138416666D01*
X154845238Y-138369047D01*
X154845238Y-138321428D01*
X154869047Y-138273809D01*
X154892857Y-138250000D01*
X154940476Y-138226190D01*
X155059523Y-138226190D01*
X155130952Y-138250000D01*
X155273809Y-138392857D02*
X155464285Y-138392857D01*
X155345238Y-138226190D02*
X155345238Y-138654761D01*
X155369047Y-138702380D01*
X155416666Y-138726190D01*
X155464285Y-138726190D01*
X155821428Y-138702380D02*
X155773809Y-138726190D01*
X155678571Y-138726190D01*
X155630952Y-138702380D01*
X155607142Y-138654761D01*
X155607142Y-138464285D01*
X155630952Y-138416666D01*
X155678571Y-138392857D01*
X155773809Y-138392857D01*
X155821428Y-138416666D01*
X155845238Y-138464285D01*
X155845238Y-138511904D01*
X155607142Y-138559523D01*
X156250000Y-138702380D02*
X156202380Y-138726190D01*
X156107142Y-138726190D01*
X156059523Y-138702380D01*
X156035714Y-138654761D01*
X156035714Y-138464285D01*
X156059523Y-138416666D01*
X156107142Y-138392857D01*
X156202380Y-138392857D01*
X156250000Y-138416666D01*
X156273809Y-138464285D01*
X156273809Y-138511904D01*
X156035714Y-138559523D01*
X156488095Y-138726190D02*
X156488095Y-138392857D01*
X156488095Y-138488095D02*
X156511904Y-138440476D01*
X156535714Y-138416666D01*
X156583333Y-138392857D01*
X156630952Y-138392857D01*
X157392857Y-138392857D02*
X157392857Y-138726190D01*
X157273809Y-138202380D02*
X157154761Y-138559523D01*
X157464285Y-138559523D01*
X158035714Y-138464285D02*
X158202380Y-138464285D01*
X158273809Y-138726190D02*
X158035714Y-138726190D01*
X158035714Y-138226190D01*
X158273809Y-138226190D01*
X158488095Y-138392857D02*
X158488095Y-138726190D01*
X158488095Y-138440476D02*
X158511904Y-138416666D01*
X158559523Y-138392857D01*
X158630952Y-138392857D01*
X158678571Y-138416666D01*
X158702380Y-138464285D01*
X158702380Y-138726190D01*
X159154761Y-138702380D02*
X159107142Y-138726190D01*
X159011904Y-138726190D01*
X158964285Y-138702380D01*
X158940476Y-138678571D01*
X158916666Y-138630952D01*
X158916666Y-138488095D01*
X158940476Y-138440476D01*
X158964285Y-138416666D01*
X159011904Y-138392857D01*
X159107142Y-138392857D01*
X159154761Y-138416666D01*
X138845238Y-138702380D02*
X138916666Y-138726190D01*
X139035714Y-138726190D01*
X139083333Y-138702380D01*
X139107142Y-138678571D01*
X139130952Y-138630952D01*
X139130952Y-138583333D01*
X139107142Y-138535714D01*
X139083333Y-138511904D01*
X139035714Y-138488095D01*
X138940476Y-138464285D01*
X138892857Y-138440476D01*
X138869047Y-138416666D01*
X138845238Y-138369047D01*
X138845238Y-138321428D01*
X138869047Y-138273809D01*
X138892857Y-138250000D01*
X138940476Y-138226190D01*
X139059523Y-138226190D01*
X139130952Y-138250000D01*
X139273809Y-138392857D02*
X139464285Y-138392857D01*
X139345238Y-138226190D02*
X139345238Y-138654761D01*
X139369047Y-138702380D01*
X139416666Y-138726190D01*
X139464285Y-138726190D01*
X139821428Y-138702380D02*
X139773809Y-138726190D01*
X139678571Y-138726190D01*
X139630952Y-138702380D01*
X139607142Y-138654761D01*
X139607142Y-138464285D01*
X139630952Y-138416666D01*
X139678571Y-138392857D01*
X139773809Y-138392857D01*
X139821428Y-138416666D01*
X139845238Y-138464285D01*
X139845238Y-138511904D01*
X139607142Y-138559523D01*
X140250000Y-138702380D02*
X140202380Y-138726190D01*
X140107142Y-138726190D01*
X140059523Y-138702380D01*
X140035714Y-138654761D01*
X140035714Y-138464285D01*
X140059523Y-138416666D01*
X140107142Y-138392857D01*
X140202380Y-138392857D01*
X140250000Y-138416666D01*
X140273809Y-138464285D01*
X140273809Y-138511904D01*
X140035714Y-138559523D01*
X140488095Y-138726190D02*
X140488095Y-138392857D01*
X140488095Y-138488095D02*
X140511904Y-138440476D01*
X140535714Y-138416666D01*
X140583333Y-138392857D01*
X140630952Y-138392857D01*
X141130952Y-138226190D02*
X141440476Y-138226190D01*
X141273809Y-138416666D01*
X141345238Y-138416666D01*
X141392857Y-138440476D01*
X141416666Y-138464285D01*
X141440476Y-138511904D01*
X141440476Y-138630952D01*
X141416666Y-138678571D01*
X141392857Y-138702380D01*
X141345238Y-138726190D01*
X141202380Y-138726190D01*
X141154761Y-138702380D01*
X141130952Y-138678571D01*
X142035714Y-138464285D02*
X142202380Y-138464285D01*
X142273809Y-138726190D02*
X142035714Y-138726190D01*
X142035714Y-138226190D01*
X142273809Y-138226190D01*
X142488095Y-138392857D02*
X142488095Y-138726190D01*
X142488095Y-138440476D02*
X142511904Y-138416666D01*
X142559523Y-138392857D01*
X142630952Y-138392857D01*
X142678571Y-138416666D01*
X142702380Y-138464285D01*
X142702380Y-138726190D01*
X143154761Y-138702380D02*
X143107142Y-138726190D01*
X143011904Y-138726190D01*
X142964285Y-138702380D01*
X142940476Y-138678571D01*
X142916666Y-138630952D01*
X142916666Y-138488095D01*
X142940476Y-138440476D01*
X142964285Y-138416666D01*
X143011904Y-138392857D01*
X143107142Y-138392857D01*
X143154761Y-138416666D01*
X122845238Y-138702380D02*
X122916666Y-138726190D01*
X123035714Y-138726190D01*
X123083333Y-138702380D01*
X123107142Y-138678571D01*
X123130952Y-138630952D01*
X123130952Y-138583333D01*
X123107142Y-138535714D01*
X123083333Y-138511904D01*
X123035714Y-138488095D01*
X122940476Y-138464285D01*
X122892857Y-138440476D01*
X122869047Y-138416666D01*
X122845238Y-138369047D01*
X122845238Y-138321428D01*
X122869047Y-138273809D01*
X122892857Y-138250000D01*
X122940476Y-138226190D01*
X123059523Y-138226190D01*
X123130952Y-138250000D01*
X123273809Y-138392857D02*
X123464285Y-138392857D01*
X123345238Y-138226190D02*
X123345238Y-138654761D01*
X123369047Y-138702380D01*
X123416666Y-138726190D01*
X123464285Y-138726190D01*
X123821428Y-138702380D02*
X123773809Y-138726190D01*
X123678571Y-138726190D01*
X123630952Y-138702380D01*
X123607142Y-138654761D01*
X123607142Y-138464285D01*
X123630952Y-138416666D01*
X123678571Y-138392857D01*
X123773809Y-138392857D01*
X123821428Y-138416666D01*
X123845238Y-138464285D01*
X123845238Y-138511904D01*
X123607142Y-138559523D01*
X124250000Y-138702380D02*
X124202380Y-138726190D01*
X124107142Y-138726190D01*
X124059523Y-138702380D01*
X124035714Y-138654761D01*
X124035714Y-138464285D01*
X124059523Y-138416666D01*
X124107142Y-138392857D01*
X124202380Y-138392857D01*
X124250000Y-138416666D01*
X124273809Y-138464285D01*
X124273809Y-138511904D01*
X124035714Y-138559523D01*
X124488095Y-138726190D02*
X124488095Y-138392857D01*
X124488095Y-138488095D02*
X124511904Y-138440476D01*
X124535714Y-138416666D01*
X124583333Y-138392857D01*
X124630952Y-138392857D01*
X125154761Y-138273809D02*
X125178571Y-138250000D01*
X125226190Y-138226190D01*
X125345238Y-138226190D01*
X125392857Y-138250000D01*
X125416666Y-138273809D01*
X125440476Y-138321428D01*
X125440476Y-138369047D01*
X125416666Y-138440476D01*
X125130952Y-138726190D01*
X125440476Y-138726190D01*
X126035714Y-138464285D02*
X126202380Y-138464285D01*
X126273809Y-138726190D02*
X126035714Y-138726190D01*
X126035714Y-138226190D01*
X126273809Y-138226190D01*
X126488095Y-138392857D02*
X126488095Y-138726190D01*
X126488095Y-138440476D02*
X126511904Y-138416666D01*
X126559523Y-138392857D01*
X126630952Y-138392857D01*
X126678571Y-138416666D01*
X126702380Y-138464285D01*
X126702380Y-138726190D01*
X127154761Y-138702380D02*
X127107142Y-138726190D01*
X127011904Y-138726190D01*
X126964285Y-138702380D01*
X126940476Y-138678571D01*
X126916666Y-138630952D01*
X126916666Y-138488095D01*
X126940476Y-138440476D01*
X126964285Y-138416666D01*
X127011904Y-138392857D01*
X127107142Y-138392857D01*
X127154761Y-138416666D01*
X106845238Y-138702380D02*
X106916666Y-138726190D01*
X107035714Y-138726190D01*
X107083333Y-138702380D01*
X107107142Y-138678571D01*
X107130952Y-138630952D01*
X107130952Y-138583333D01*
X107107142Y-138535714D01*
X107083333Y-138511904D01*
X107035714Y-138488095D01*
X106940476Y-138464285D01*
X106892857Y-138440476D01*
X106869047Y-138416666D01*
X106845238Y-138369047D01*
X106845238Y-138321428D01*
X106869047Y-138273809D01*
X106892857Y-138250000D01*
X106940476Y-138226190D01*
X107059523Y-138226190D01*
X107130952Y-138250000D01*
X107273809Y-138392857D02*
X107464285Y-138392857D01*
X107345238Y-138226190D02*
X107345238Y-138654761D01*
X107369047Y-138702380D01*
X107416666Y-138726190D01*
X107464285Y-138726190D01*
X107821428Y-138702380D02*
X107773809Y-138726190D01*
X107678571Y-138726190D01*
X107630952Y-138702380D01*
X107607142Y-138654761D01*
X107607142Y-138464285D01*
X107630952Y-138416666D01*
X107678571Y-138392857D01*
X107773809Y-138392857D01*
X107821428Y-138416666D01*
X107845238Y-138464285D01*
X107845238Y-138511904D01*
X107607142Y-138559523D01*
X108250000Y-138702380D02*
X108202380Y-138726190D01*
X108107142Y-138726190D01*
X108059523Y-138702380D01*
X108035714Y-138654761D01*
X108035714Y-138464285D01*
X108059523Y-138416666D01*
X108107142Y-138392857D01*
X108202380Y-138392857D01*
X108250000Y-138416666D01*
X108273809Y-138464285D01*
X108273809Y-138511904D01*
X108035714Y-138559523D01*
X108488095Y-138726190D02*
X108488095Y-138392857D01*
X108488095Y-138488095D02*
X108511904Y-138440476D01*
X108535714Y-138416666D01*
X108583333Y-138392857D01*
X108630952Y-138392857D01*
X109440476Y-138726190D02*
X109154761Y-138726190D01*
X109297619Y-138726190D02*
X109297619Y-138226190D01*
X109250000Y-138297619D01*
X109202380Y-138345238D01*
X109154761Y-138369047D01*
X110035714Y-138464285D02*
X110202380Y-138464285D01*
X110273809Y-138726190D02*
X110035714Y-138726190D01*
X110035714Y-138226190D01*
X110273809Y-138226190D01*
X110488095Y-138392857D02*
X110488095Y-138726190D01*
X110488095Y-138440476D02*
X110511904Y-138416666D01*
X110559523Y-138392857D01*
X110630952Y-138392857D01*
X110678571Y-138416666D01*
X110702380Y-138464285D01*
X110702380Y-138726190D01*
X111154761Y-138702380D02*
X111107142Y-138726190D01*
X111011904Y-138726190D01*
X110964285Y-138702380D01*
X110940476Y-138678571D01*
X110916666Y-138630952D01*
X110916666Y-138488095D01*
X110940476Y-138440476D01*
X110964285Y-138416666D01*
X111011904Y-138392857D01*
X111107142Y-138392857D01*
X111154761Y-138416666D01*
D12*
X119278571Y-157107142D02*
X119492857Y-157178571D01*
X119850000Y-157178571D01*
X119992857Y-157107142D01*
X120064285Y-157035714D01*
X120135714Y-156892857D01*
X120135714Y-156750000D01*
X120064285Y-156607142D01*
X119992857Y-156535714D01*
X119850000Y-156464285D01*
X119564285Y-156392857D01*
X119421428Y-156321428D01*
X119350000Y-156250000D01*
X119278571Y-156107142D01*
X119278571Y-155964285D01*
X119350000Y-155821428D01*
X119421428Y-155750000D01*
X119564285Y-155678571D01*
X119921428Y-155678571D01*
X120135714Y-155750000D01*
X120564285Y-156178571D02*
X121135714Y-156178571D01*
X120778571Y-155678571D02*
X120778571Y-156964285D01*
X120850000Y-157107142D01*
X120992857Y-157178571D01*
X121135714Y-157178571D01*
X122207142Y-157107142D02*
X122064285Y-157178571D01*
X121778571Y-157178571D01*
X121635714Y-157107142D01*
X121564285Y-156964285D01*
X121564285Y-156392857D01*
X121635714Y-156250000D01*
X121778571Y-156178571D01*
X122064285Y-156178571D01*
X122207142Y-156250000D01*
X122278571Y-156392857D01*
X122278571Y-156535714D01*
X121564285Y-156678571D01*
X123492857Y-157107142D02*
X123350000Y-157178571D01*
X123064285Y-157178571D01*
X122921428Y-157107142D01*
X122850000Y-156964285D01*
X122850000Y-156392857D01*
X122921428Y-156250000D01*
X123064285Y-156178571D01*
X123350000Y-156178571D01*
X123492857Y-156250000D01*
X123564285Y-156392857D01*
X123564285Y-156535714D01*
X122850000Y-156678571D01*
X124207142Y-157178571D02*
X124207142Y-156178571D01*
X124207142Y-156464285D02*
X124278571Y-156321428D01*
X124350000Y-156250000D01*
X124492857Y-156178571D01*
X124635714Y-156178571D01*
X125921428Y-157178571D02*
X125064285Y-157178571D01*
X125492857Y-157178571D02*
X125492857Y-155678571D01*
X125350000Y-155892857D01*
X125207142Y-156035714D01*
X125064285Y-156107142D01*
X170285714Y-41978571D02*
X170285714Y-40478571D01*
X170642857Y-40478571D01*
X170857142Y-40550000D01*
X171000000Y-40692857D01*
X171071428Y-40835714D01*
X171142857Y-41121428D01*
X171142857Y-41335714D01*
X171071428Y-41621428D01*
X171000000Y-41764285D01*
X170857142Y-41907142D01*
X170642857Y-41978571D01*
X170285714Y-41978571D01*
X171785714Y-41978571D02*
X171785714Y-40978571D01*
X171785714Y-41264285D02*
X171857142Y-41121428D01*
X171928571Y-41050000D01*
X172071428Y-40978571D01*
X172214285Y-40978571D01*
X172714285Y-41978571D02*
X172714285Y-40978571D01*
X172714285Y-40478571D02*
X172642857Y-40550000D01*
X172714285Y-40621428D01*
X172785714Y-40550000D01*
X172714285Y-40478571D01*
X172714285Y-40621428D01*
X173285714Y-40978571D02*
X173642857Y-41978571D01*
X174000000Y-40978571D01*
X175142857Y-41907142D02*
X175000000Y-41978571D01*
X174714285Y-41978571D01*
X174571428Y-41907142D01*
X174500000Y-41764285D01*
X174500000Y-41192857D01*
X174571428Y-41050000D01*
X174714285Y-40978571D01*
X175000000Y-40978571D01*
X175142857Y-41050000D01*
X175214285Y-41192857D01*
X175214285Y-41335714D01*
X174500000Y-41478571D01*
X176857142Y-40478571D02*
X177785714Y-40478571D01*
X177285714Y-41050000D01*
X177500000Y-41050000D01*
X177642857Y-41121428D01*
X177714285Y-41192857D01*
X177785714Y-41335714D01*
X177785714Y-41692857D01*
X177714285Y-41835714D01*
X177642857Y-41907142D01*
X177500000Y-41978571D01*
X177071428Y-41978571D01*
X176928571Y-41907142D01*
X176857142Y-41835714D01*
X144485714Y-42178571D02*
X144485714Y-40678571D01*
X144842857Y-40678571D01*
X145057142Y-40750000D01*
X145200000Y-40892857D01*
X145271428Y-41035714D01*
X145342857Y-41321428D01*
X145342857Y-41535714D01*
X145271428Y-41821428D01*
X145200000Y-41964285D01*
X145057142Y-42107142D01*
X144842857Y-42178571D01*
X144485714Y-42178571D01*
X145985714Y-42178571D02*
X145985714Y-41178571D01*
X145985714Y-41464285D02*
X146057142Y-41321428D01*
X146128571Y-41250000D01*
X146271428Y-41178571D01*
X146414285Y-41178571D01*
X146914285Y-42178571D02*
X146914285Y-41178571D01*
X146914285Y-40678571D02*
X146842857Y-40750000D01*
X146914285Y-40821428D01*
X146985714Y-40750000D01*
X146914285Y-40678571D01*
X146914285Y-40821428D01*
X147485714Y-41178571D02*
X147842857Y-42178571D01*
X148200000Y-41178571D01*
X149342857Y-42107142D02*
X149200000Y-42178571D01*
X148914285Y-42178571D01*
X148771428Y-42107142D01*
X148700000Y-41964285D01*
X148700000Y-41392857D01*
X148771428Y-41250000D01*
X148914285Y-41178571D01*
X149200000Y-41178571D01*
X149342857Y-41250000D01*
X149414285Y-41392857D01*
X149414285Y-41535714D01*
X148700000Y-41678571D01*
X151128571Y-40821428D02*
X151200000Y-40750000D01*
X151342857Y-40678571D01*
X151700000Y-40678571D01*
X151842857Y-40750000D01*
X151914285Y-40821428D01*
X151985714Y-40964285D01*
X151985714Y-41107142D01*
X151914285Y-41321428D01*
X151057142Y-42178571D01*
X151985714Y-42178571D01*
X118885714Y-42378571D02*
X118885714Y-40878571D01*
X119242857Y-40878571D01*
X119457142Y-40950000D01*
X119600000Y-41092857D01*
X119671428Y-41235714D01*
X119742857Y-41521428D01*
X119742857Y-41735714D01*
X119671428Y-42021428D01*
X119600000Y-42164285D01*
X119457142Y-42307142D01*
X119242857Y-42378571D01*
X118885714Y-42378571D01*
X120385714Y-42378571D02*
X120385714Y-41378571D01*
X120385714Y-41664285D02*
X120457142Y-41521428D01*
X120528571Y-41450000D01*
X120671428Y-41378571D01*
X120814285Y-41378571D01*
X121314285Y-42378571D02*
X121314285Y-41378571D01*
X121314285Y-40878571D02*
X121242857Y-40950000D01*
X121314285Y-41021428D01*
X121385714Y-40950000D01*
X121314285Y-40878571D01*
X121314285Y-41021428D01*
X121885714Y-41378571D02*
X122242857Y-42378571D01*
X122600000Y-41378571D01*
X123742857Y-42307142D02*
X123600000Y-42378571D01*
X123314285Y-42378571D01*
X123171428Y-42307142D01*
X123100000Y-42164285D01*
X123100000Y-41592857D01*
X123171428Y-41450000D01*
X123314285Y-41378571D01*
X123600000Y-41378571D01*
X123742857Y-41450000D01*
X123814285Y-41592857D01*
X123814285Y-41735714D01*
X123100000Y-41878571D01*
X126385714Y-42378571D02*
X125528571Y-42378571D01*
X125957142Y-42378571D02*
X125957142Y-40878571D01*
X125814285Y-41092857D01*
X125671428Y-41235714D01*
X125528571Y-41307142D01*
X196757142Y-42078571D02*
X196757142Y-40578571D01*
X197471428Y-42078571D02*
X197471428Y-40578571D01*
X197971428Y-41650000D01*
X198471428Y-40578571D01*
X198471428Y-42078571D01*
X199185714Y-40578571D02*
X199185714Y-41792857D01*
X199257142Y-41935714D01*
X199328571Y-42007142D01*
X199471428Y-42078571D01*
X199757142Y-42078571D01*
X199900000Y-42007142D01*
X199971428Y-41935714D01*
X200042857Y-41792857D01*
X200042857Y-40578571D01*
X196535714Y-157178571D02*
X196535714Y-155678571D01*
X197178571Y-155821428D02*
X197250000Y-155750000D01*
X197392857Y-155678571D01*
X197750000Y-155678571D01*
X197892857Y-155750000D01*
X197964285Y-155821428D01*
X198035714Y-155964285D01*
X198035714Y-156107142D01*
X197964285Y-156321428D01*
X197107142Y-157178571D01*
X198035714Y-157178571D01*
X199535714Y-157035714D02*
X199464285Y-157107142D01*
X199250000Y-157178571D01*
X199107142Y-157178571D01*
X198892857Y-157107142D01*
X198750000Y-156964285D01*
X198678571Y-156821428D01*
X198607142Y-156535714D01*
X198607142Y-156321428D01*
X198678571Y-156035714D01*
X198750000Y-155892857D01*
X198892857Y-155750000D01*
X199107142Y-155678571D01*
X199250000Y-155678571D01*
X199464285Y-155750000D01*
X199535714Y-155821428D01*
X170207142Y-157107142D02*
X170421428Y-157178571D01*
X170778571Y-157178571D01*
X170921428Y-157107142D01*
X170992857Y-157035714D01*
X171064285Y-156892857D01*
X171064285Y-156750000D01*
X170992857Y-156607142D01*
X170921428Y-156535714D01*
X170778571Y-156464285D01*
X170492857Y-156392857D01*
X170350000Y-156321428D01*
X170278571Y-156250000D01*
X170207142Y-156107142D01*
X170207142Y-155964285D01*
X170278571Y-155821428D01*
X170350000Y-155750000D01*
X170492857Y-155678571D01*
X170850000Y-155678571D01*
X171064285Y-155750000D01*
X171492857Y-156178571D02*
X172064285Y-156178571D01*
X171707142Y-155678571D02*
X171707142Y-156964285D01*
X171778571Y-157107142D01*
X171921428Y-157178571D01*
X172064285Y-157178571D01*
X173135714Y-157107142D02*
X172992857Y-157178571D01*
X172707142Y-157178571D01*
X172564285Y-157107142D01*
X172492857Y-156964285D01*
X172492857Y-156392857D01*
X172564285Y-156250000D01*
X172707142Y-156178571D01*
X172992857Y-156178571D01*
X173135714Y-156250000D01*
X173207142Y-156392857D01*
X173207142Y-156535714D01*
X172492857Y-156678571D01*
X174421428Y-157107142D02*
X174278571Y-157178571D01*
X173992857Y-157178571D01*
X173850000Y-157107142D01*
X173778571Y-156964285D01*
X173778571Y-156392857D01*
X173850000Y-156250000D01*
X173992857Y-156178571D01*
X174278571Y-156178571D01*
X174421428Y-156250000D01*
X174492857Y-156392857D01*
X174492857Y-156535714D01*
X173778571Y-156678571D01*
X175135714Y-157178571D02*
X175135714Y-156178571D01*
X175135714Y-156464285D02*
X175207142Y-156321428D01*
X175278571Y-156250000D01*
X175421428Y-156178571D01*
X175564285Y-156178571D01*
X177064285Y-155678571D02*
X177992857Y-155678571D01*
X177492857Y-156250000D01*
X177707142Y-156250000D01*
X177850000Y-156321428D01*
X177921428Y-156392857D01*
X177992857Y-156535714D01*
X177992857Y-156892857D01*
X177921428Y-157035714D01*
X177850000Y-157107142D01*
X177707142Y-157178571D01*
X177278571Y-157178571D01*
X177135714Y-157107142D01*
X177064285Y-157035714D01*
X144107142Y-157107142D02*
X144321428Y-157178571D01*
X144678571Y-157178571D01*
X144821428Y-157107142D01*
X144892857Y-157035714D01*
X144964285Y-156892857D01*
X144964285Y-156750000D01*
X144892857Y-156607142D01*
X144821428Y-156535714D01*
X144678571Y-156464285D01*
X144392857Y-156392857D01*
X144250000Y-156321428D01*
X144178571Y-156250000D01*
X144107142Y-156107142D01*
X144107142Y-155964285D01*
X144178571Y-155821428D01*
X144250000Y-155750000D01*
X144392857Y-155678571D01*
X144750000Y-155678571D01*
X144964285Y-155750000D01*
X145392857Y-156178571D02*
X145964285Y-156178571D01*
X145607142Y-155678571D02*
X145607142Y-156964285D01*
X145678571Y-157107142D01*
X145821428Y-157178571D01*
X145964285Y-157178571D01*
X147035714Y-157107142D02*
X146892857Y-157178571D01*
X146607142Y-157178571D01*
X146464285Y-157107142D01*
X146392857Y-156964285D01*
X146392857Y-156392857D01*
X146464285Y-156250000D01*
X146607142Y-156178571D01*
X146892857Y-156178571D01*
X147035714Y-156250000D01*
X147107142Y-156392857D01*
X147107142Y-156535714D01*
X146392857Y-156678571D01*
X148321428Y-157107142D02*
X148178571Y-157178571D01*
X147892857Y-157178571D01*
X147750000Y-157107142D01*
X147678571Y-156964285D01*
X147678571Y-156392857D01*
X147750000Y-156250000D01*
X147892857Y-156178571D01*
X148178571Y-156178571D01*
X148321428Y-156250000D01*
X148392857Y-156392857D01*
X148392857Y-156535714D01*
X147678571Y-156678571D01*
X149035714Y-157178571D02*
X149035714Y-156178571D01*
X149035714Y-156464285D02*
X149107142Y-156321428D01*
X149178571Y-156250000D01*
X149321428Y-156178571D01*
X149464285Y-156178571D01*
X151035714Y-155821428D02*
X151107142Y-155750000D01*
X151250000Y-155678571D01*
X151607142Y-155678571D01*
X151750000Y-155750000D01*
X151821428Y-155821428D01*
X151892857Y-155964285D01*
X151892857Y-156107142D01*
X151821428Y-156321428D01*
X150964285Y-157178571D01*
X151892857Y-157178571D01*
X198321428Y-84235714D02*
X198250000Y-84307142D01*
X198035714Y-84378571D01*
X197892857Y-84378571D01*
X197678571Y-84307142D01*
X197535714Y-84164285D01*
X197464285Y-84021428D01*
X197392857Y-83735714D01*
X197392857Y-83521428D01*
X197464285Y-83235714D01*
X197535714Y-83092857D01*
X197678571Y-82950000D01*
X197892857Y-82878571D01*
X198035714Y-82878571D01*
X198250000Y-82950000D01*
X198321428Y-83021428D01*
X198892857Y-83950000D02*
X199607142Y-83950000D01*
X198750000Y-84378571D02*
X199250000Y-82878571D01*
X199750000Y-84378571D01*
X200250000Y-84378571D02*
X200250000Y-82878571D01*
X201107142Y-84378571D01*
X201107142Y-82878571D01*
X201678571Y-82878571D02*
X202607142Y-82878571D01*
X202107142Y-83450000D01*
X202321428Y-83450000D01*
X202464285Y-83521428D01*
X202535714Y-83592857D01*
X202607142Y-83735714D01*
X202607142Y-84092857D01*
X202535714Y-84235714D01*
X202464285Y-84307142D01*
X202321428Y-84378571D01*
X201892857Y-84378571D01*
X201750000Y-84307142D01*
X201678571Y-84235714D01*
X198421428Y-97935714D02*
X198350000Y-98007142D01*
X198135714Y-98078571D01*
X197992857Y-98078571D01*
X197778571Y-98007142D01*
X197635714Y-97864285D01*
X197564285Y-97721428D01*
X197492857Y-97435714D01*
X197492857Y-97221428D01*
X197564285Y-96935714D01*
X197635714Y-96792857D01*
X197778571Y-96650000D01*
X197992857Y-96578571D01*
X198135714Y-96578571D01*
X198350000Y-96650000D01*
X198421428Y-96721428D01*
X198992857Y-97650000D02*
X199707142Y-97650000D01*
X198850000Y-98078571D02*
X199350000Y-96578571D01*
X199850000Y-98078571D01*
X200350000Y-98078571D02*
X200350000Y-96578571D01*
X201207142Y-98078571D01*
X201207142Y-96578571D01*
X201850000Y-96721428D02*
X201921428Y-96650000D01*
X202064285Y-96578571D01*
X202421428Y-96578571D01*
X202564285Y-96650000D01*
X202635714Y-96721428D01*
X202707142Y-96864285D01*
X202707142Y-97007142D01*
X202635714Y-97221428D01*
X201778571Y-98078571D01*
X202707142Y-98078571D01*
X198421428Y-119635714D02*
X198350000Y-119707142D01*
X198135714Y-119778571D01*
X197992857Y-119778571D01*
X197778571Y-119707142D01*
X197635714Y-119564285D01*
X197564285Y-119421428D01*
X197492857Y-119135714D01*
X197492857Y-118921428D01*
X197564285Y-118635714D01*
X197635714Y-118492857D01*
X197778571Y-118350000D01*
X197992857Y-118278571D01*
X198135714Y-118278571D01*
X198350000Y-118350000D01*
X198421428Y-118421428D01*
X198992857Y-119350000D02*
X199707142Y-119350000D01*
X198850000Y-119778571D02*
X199350000Y-118278571D01*
X199850000Y-119778571D01*
X200350000Y-119778571D02*
X200350000Y-118278571D01*
X201207142Y-119778571D01*
X201207142Y-118278571D01*
X202707142Y-119778571D02*
X201850000Y-119778571D01*
X202278571Y-119778571D02*
X202278571Y-118278571D01*
X202135714Y-118492857D01*
X201992857Y-118635714D01*
X201850000Y-118707142D01*
X89714285Y-154107142D02*
X89928571Y-154178571D01*
X90285714Y-154178571D01*
X90428571Y-154107142D01*
X90500000Y-154035714D01*
X90571428Y-153892857D01*
X90571428Y-153750000D01*
X90500000Y-153607142D01*
X90428571Y-153535714D01*
X90285714Y-153464285D01*
X90000000Y-153392857D01*
X89857142Y-153321428D01*
X89785714Y-153250000D01*
X89714285Y-153107142D01*
X89714285Y-152964285D01*
X89785714Y-152821428D01*
X89857142Y-152750000D01*
X90000000Y-152678571D01*
X90357142Y-152678571D01*
X90571428Y-152750000D01*
X91857142Y-154178571D02*
X91857142Y-153392857D01*
X91785714Y-153250000D01*
X91642857Y-153178571D01*
X91357142Y-153178571D01*
X91214285Y-153250000D01*
X91857142Y-154107142D02*
X91714285Y-154178571D01*
X91357142Y-154178571D01*
X91214285Y-154107142D01*
X91142857Y-153964285D01*
X91142857Y-153821428D01*
X91214285Y-153678571D01*
X91357142Y-153607142D01*
X91714285Y-153607142D01*
X91857142Y-153535714D01*
X92571428Y-154178571D02*
X92571428Y-152678571D01*
X92571428Y-153250000D02*
X92714285Y-153178571D01*
X93000000Y-153178571D01*
X93142857Y-153250000D01*
X93214285Y-153321428D01*
X93285714Y-153464285D01*
X93285714Y-153892857D01*
X93214285Y-154035714D01*
X93142857Y-154107142D01*
X93000000Y-154178571D01*
X92714285Y-154178571D01*
X92571428Y-154107142D01*
X93928571Y-154178571D02*
X93928571Y-153178571D01*
X93928571Y-153464285D02*
X94000000Y-153321428D01*
X94071428Y-153250000D01*
X94214285Y-153178571D01*
X94357142Y-153178571D01*
X95428571Y-154107142D02*
X95285714Y-154178571D01*
X95000000Y-154178571D01*
X94857142Y-154107142D01*
X94785714Y-153964285D01*
X94785714Y-153392857D01*
X94857142Y-153250000D01*
X95000000Y-153178571D01*
X95285714Y-153178571D01*
X95428571Y-153250000D01*
X95500000Y-153392857D01*
X95500000Y-153535714D01*
X94785714Y-153678571D01*
X95928571Y-152678571D02*
X96785714Y-152678571D01*
X96357142Y-154178571D02*
X96357142Y-152678571D01*
X97500000Y-154178571D02*
X97357142Y-154107142D01*
X97285714Y-154035714D01*
X97214285Y-153892857D01*
X97214285Y-153464285D01*
X97285714Y-153321428D01*
X97357142Y-153250000D01*
X97500000Y-153178571D01*
X97714285Y-153178571D01*
X97857142Y-153250000D01*
X97928571Y-153321428D01*
X98000000Y-153464285D01*
X98000000Y-153892857D01*
X97928571Y-154035714D01*
X97857142Y-154107142D01*
X97714285Y-154178571D01*
X97500000Y-154178571D01*
X98857142Y-154178571D02*
X98714285Y-154107142D01*
X98642857Y-154035714D01*
X98571428Y-153892857D01*
X98571428Y-153464285D01*
X98642857Y-153321428D01*
X98714285Y-153250000D01*
X98857142Y-153178571D01*
X99071428Y-153178571D01*
X99214285Y-153250000D01*
X99285714Y-153321428D01*
X99357142Y-153464285D01*
X99357142Y-153892857D01*
X99285714Y-154035714D01*
X99214285Y-154107142D01*
X99071428Y-154178571D01*
X98857142Y-154178571D01*
X99785714Y-153178571D02*
X100357142Y-153178571D01*
X100000000Y-152678571D02*
X100000000Y-153964285D01*
X100071428Y-154107142D01*
X100214285Y-154178571D01*
X100357142Y-154178571D01*
X100857142Y-154178571D02*
X100857142Y-152678571D01*
X101500000Y-154178571D02*
X101500000Y-153392857D01*
X101428571Y-153250000D01*
X101285714Y-153178571D01*
X101071428Y-153178571D01*
X100928571Y-153250000D01*
X100857142Y-153321428D01*
X103142857Y-152678571D02*
X104000000Y-152678571D01*
X103571428Y-154178571D02*
X103571428Y-152678571D01*
X104357142Y-152678571D02*
X105357142Y-154178571D01*
X105357142Y-152678571D02*
X104357142Y-154178571D01*
X226535714Y-74178571D02*
X226607142Y-74250000D01*
X226678571Y-74464285D01*
X226678571Y-74607142D01*
X226607142Y-74821428D01*
X226464285Y-74964285D01*
X226321428Y-75035714D01*
X226035714Y-75107142D01*
X225821428Y-75107142D01*
X225535714Y-75035714D01*
X225392857Y-74964285D01*
X225250000Y-74821428D01*
X225178571Y-74607142D01*
X225178571Y-74464285D01*
X225250000Y-74250000D01*
X225321428Y-74178571D01*
X226250000Y-73607142D02*
X226250000Y-72892857D01*
X226678571Y-73750000D02*
X225178571Y-73250000D01*
X226678571Y-72750000D01*
X226678571Y-72250000D02*
X225178571Y-72250000D01*
X226678571Y-71392857D01*
X225178571Y-71392857D01*
X225178571Y-70821428D02*
X225178571Y-69892857D01*
X225750000Y-70392857D01*
X225750000Y-70178571D01*
X225821428Y-70035714D01*
X225892857Y-69964285D01*
X226035714Y-69892857D01*
X226392857Y-69892857D01*
X226535714Y-69964285D01*
X226607142Y-70035714D01*
X226678571Y-70178571D01*
X226678571Y-70607142D01*
X226607142Y-70750000D01*
X226535714Y-70821428D01*
X227035714Y-92678571D02*
X227107142Y-92750000D01*
X227178571Y-92964285D01*
X227178571Y-93107142D01*
X227107142Y-93321428D01*
X226964285Y-93464285D01*
X226821428Y-93535714D01*
X226535714Y-93607142D01*
X226321428Y-93607142D01*
X226035714Y-93535714D01*
X225892857Y-93464285D01*
X225750000Y-93321428D01*
X225678571Y-93107142D01*
X225678571Y-92964285D01*
X225750000Y-92750000D01*
X225821428Y-92678571D01*
X226750000Y-92107142D02*
X226750000Y-91392857D01*
X227178571Y-92250000D02*
X225678571Y-91750000D01*
X227178571Y-91250000D01*
X227178571Y-90750000D02*
X225678571Y-90750000D01*
X227178571Y-89892857D01*
X225678571Y-89892857D01*
X225821428Y-89250000D02*
X225750000Y-89178571D01*
X225678571Y-89035714D01*
X225678571Y-88678571D01*
X225750000Y-88535714D01*
X225821428Y-88464285D01*
X225964285Y-88392857D01*
X226107142Y-88392857D01*
X226321428Y-88464285D01*
X227178571Y-89321428D01*
X227178571Y-88392857D01*
X227035714Y-111070000D02*
X227107142Y-111141428D01*
X227178571Y-111355714D01*
X227178571Y-111498571D01*
X227107142Y-111712857D01*
X226964285Y-111855714D01*
X226821428Y-111927142D01*
X226535714Y-111998571D01*
X226321428Y-111998571D01*
X226035714Y-111927142D01*
X225892857Y-111855714D01*
X225750000Y-111712857D01*
X225678571Y-111498571D01*
X225678571Y-111355714D01*
X225750000Y-111141428D01*
X225821428Y-111070000D01*
X226750000Y-110498571D02*
X226750000Y-109784285D01*
X227178571Y-110641428D02*
X225678571Y-110141428D01*
X227178571Y-109641428D01*
X227178571Y-109141428D02*
X225678571Y-109141428D01*
X227178571Y-108284285D01*
X225678571Y-108284285D01*
X227178571Y-105641428D02*
X227178571Y-106498571D01*
X227178571Y-106070000D02*
X225678571Y-106070000D01*
X225892857Y-106212857D01*
X226035714Y-106355714D01*
X226107142Y-106498571D01*
D13*
%TO.C,J25*%
X182850000Y-52050000D02*
X182850000Y-53300000D01*
X184100000Y-52050000D02*
X182850000Y-52050000D01*
X195000000Y-57550000D02*
X189450000Y-57550000D01*
X195000000Y-54600000D02*
X195000000Y-57550000D01*
X195750000Y-54600000D02*
X195000000Y-54600000D01*
X189450000Y-57550000D02*
X184960000Y-57550000D01*
X183900000Y-54600000D02*
X183900000Y-55940000D01*
X183150000Y-54600000D02*
X183900000Y-54600000D01*
X195750000Y-52350000D02*
X193950000Y-52350000D01*
X195750000Y-53100000D02*
X195750000Y-52350000D01*
X193950000Y-53100000D02*
X195750000Y-53100000D01*
X193950000Y-52350000D02*
X193950000Y-53100000D01*
X184950000Y-52350000D02*
X183150000Y-52350000D01*
X184950000Y-53100000D02*
X184950000Y-52350000D01*
X183150000Y-53100000D02*
X184950000Y-53100000D01*
X183150000Y-52350000D02*
X183150000Y-53100000D01*
X192450000Y-52350000D02*
X186450000Y-52350000D01*
X192450000Y-53100000D02*
X192450000Y-52350000D01*
X186450000Y-53100000D02*
X192450000Y-53100000D01*
X186450000Y-52350000D02*
X186450000Y-53100000D01*
X195760000Y-52340000D02*
X183140000Y-52340000D01*
X195760000Y-58310000D02*
X195760000Y-52340000D01*
X183140000Y-58310000D02*
X195760000Y-58310000D01*
X183140000Y-52340000D02*
X183140000Y-58310000D01*
%TO.C,J5*%
X134550000Y-52050000D02*
X134550000Y-53300000D01*
X135800000Y-52050000D02*
X134550000Y-52050000D01*
X146700000Y-57550000D02*
X141150000Y-57550000D01*
X146700000Y-54600000D02*
X146700000Y-57550000D01*
X147450000Y-54600000D02*
X146700000Y-54600000D01*
X141150000Y-57550000D02*
X136660000Y-57550000D01*
X135600000Y-54600000D02*
X135600000Y-55940000D01*
X134850000Y-54600000D02*
X135600000Y-54600000D01*
X147450000Y-52350000D02*
X145650000Y-52350000D01*
X147450000Y-53100000D02*
X147450000Y-52350000D01*
X145650000Y-53100000D02*
X147450000Y-53100000D01*
X145650000Y-52350000D02*
X145650000Y-53100000D01*
X136650000Y-52350000D02*
X134850000Y-52350000D01*
X136650000Y-53100000D02*
X136650000Y-52350000D01*
X134850000Y-53100000D02*
X136650000Y-53100000D01*
X134850000Y-52350000D02*
X134850000Y-53100000D01*
X144150000Y-52350000D02*
X138150000Y-52350000D01*
X144150000Y-53100000D02*
X144150000Y-52350000D01*
X138150000Y-53100000D02*
X144150000Y-53100000D01*
X138150000Y-52350000D02*
X138150000Y-53100000D01*
X147460000Y-52340000D02*
X134840000Y-52340000D01*
X147460000Y-58310000D02*
X147460000Y-52340000D01*
X134840000Y-58310000D02*
X147460000Y-58310000D01*
X134840000Y-52340000D02*
X134840000Y-58310000D01*
D14*
%TO.C,U1*%
X104145000Y-79660800D02*
X104145000Y-63660000D01*
X104145000Y-91040000D02*
X104145000Y-83724800D01*
X104145000Y-114662000D02*
X104145000Y-95662800D01*
X104145000Y-133660000D02*
X104145000Y-118167200D01*
X105085000Y-79660800D02*
X105085000Y-63660000D01*
X105085000Y-91040000D02*
X105085000Y-83724800D01*
X105085000Y-114662000D02*
X105085000Y-95662800D01*
X105085000Y-133660000D02*
X105085000Y-118167200D01*
D15*
X139365000Y-78820000D02*
G75*
G03*
X139365000Y-78820000I-100000J0D01*
G01*
X112441000Y-78820000D02*
G75*
G03*
X112441000Y-78820000I-100000J0D01*
G01*
X144445000Y-124540000D02*
G75*
G03*
X144445000Y-124540000I-100000J0D01*
G01*
X121585000Y-124540000D02*
G75*
G03*
X121585000Y-124540000I-100000J0D01*
G01*
X111450400Y-71200000D02*
G75*
G03*
X111450400Y-71200000I-100000J0D01*
G01*
X111425000Y-132160000D02*
G75*
G03*
X111425000Y-132160000I-100000J0D01*
G01*
D14*
X81585000Y-133660000D02*
X104145000Y-133660000D01*
X79585000Y-65660000D02*
X79585000Y-131660000D01*
X104145000Y-63660000D02*
X81585000Y-63660000D01*
X210925000Y-63660000D02*
X105085000Y-63660000D01*
X212925000Y-131660000D02*
X212925000Y-65660000D01*
X105085000Y-133660000D02*
X210925000Y-133660000D01*
X104145000Y-118167199D02*
G75*
G02*
X105085000Y-118167200I470000J-7462D01*
G01*
X105085000Y-114662001D02*
G75*
G02*
X104145000Y-114662000I-470000J7462D01*
G01*
X104145000Y-95662799D02*
G75*
G02*
X105085000Y-95662800I470000J-7462D01*
G01*
X105085000Y-91040001D02*
G75*
G02*
X104145000Y-91040000I-470000J7462D01*
G01*
X104145000Y-83724799D02*
G75*
G02*
X105085000Y-83724800I470000J-7462D01*
G01*
X105085000Y-79660801D02*
G75*
G02*
X104145000Y-79660800I-470000J7462D01*
G01*
X79585000Y-131660000D02*
G75*
G03*
X81585000Y-133660000I2000000J0D01*
G01*
X81585000Y-63660000D02*
G75*
G03*
X79585000Y-65660000I0J-2000000D01*
G01*
X212925000Y-65660000D02*
G75*
G03*
X210925000Y-63660000I-2000000J0D01*
G01*
X210925000Y-133660000D02*
G75*
G03*
X212925000Y-131660000I0J2000000D01*
G01*
D13*
%TO.C,J30*%
X94040000Y-151560000D02*
X100010000Y-151560000D01*
X100010000Y-151560000D02*
X100010000Y-138940000D01*
X100010000Y-138940000D02*
X94040000Y-138940000D01*
X94040000Y-138940000D02*
X94040000Y-151560000D01*
X94050000Y-148250000D02*
X94800000Y-148250000D01*
X94800000Y-148250000D02*
X94800000Y-142250000D01*
X94800000Y-142250000D02*
X94050000Y-142250000D01*
X94050000Y-142250000D02*
X94050000Y-148250000D01*
X94050000Y-151550000D02*
X94800000Y-151550000D01*
X94800000Y-151550000D02*
X94800000Y-149750000D01*
X94800000Y-149750000D02*
X94050000Y-149750000D01*
X94050000Y-149750000D02*
X94050000Y-151550000D01*
X94050000Y-140750000D02*
X94800000Y-140750000D01*
X94800000Y-140750000D02*
X94800000Y-138950000D01*
X94800000Y-138950000D02*
X94050000Y-138950000D01*
X94050000Y-138950000D02*
X94050000Y-140750000D01*
X96300000Y-151550000D02*
X96300000Y-150800000D01*
X96300000Y-150800000D02*
X97640000Y-150800000D01*
X99250000Y-145250000D02*
X99250000Y-149740000D01*
X96300000Y-138950000D02*
X96300000Y-139700000D01*
X96300000Y-139700000D02*
X99250000Y-139700000D01*
X99250000Y-139700000D02*
X99250000Y-145250000D01*
X93750000Y-150600000D02*
X93750000Y-151850000D01*
X93750000Y-151850000D02*
X95000000Y-151850000D01*
%TO.C,J29*%
X150650000Y-52050000D02*
X150650000Y-53300000D01*
X151900000Y-52050000D02*
X150650000Y-52050000D01*
X162800000Y-57550000D02*
X157250000Y-57550000D01*
X162800000Y-54600000D02*
X162800000Y-57550000D01*
X163550000Y-54600000D02*
X162800000Y-54600000D01*
X157250000Y-57550000D02*
X152760000Y-57550000D01*
X151700000Y-54600000D02*
X151700000Y-55940000D01*
X150950000Y-54600000D02*
X151700000Y-54600000D01*
X163550000Y-52350000D02*
X161750000Y-52350000D01*
X163550000Y-53100000D02*
X163550000Y-52350000D01*
X161750000Y-53100000D02*
X163550000Y-53100000D01*
X161750000Y-52350000D02*
X161750000Y-53100000D01*
X152750000Y-52350000D02*
X150950000Y-52350000D01*
X152750000Y-53100000D02*
X152750000Y-52350000D01*
X150950000Y-53100000D02*
X152750000Y-53100000D01*
X150950000Y-52350000D02*
X150950000Y-53100000D01*
X160250000Y-52350000D02*
X154250000Y-52350000D01*
X160250000Y-53100000D02*
X160250000Y-52350000D01*
X154250000Y-53100000D02*
X160250000Y-53100000D01*
X154250000Y-52350000D02*
X154250000Y-53100000D01*
X163560000Y-52340000D02*
X150940000Y-52340000D01*
X163560000Y-58310000D02*
X163560000Y-52340000D01*
X150940000Y-58310000D02*
X163560000Y-58310000D01*
X150940000Y-52340000D02*
X150940000Y-58310000D01*
%TO.C,J28*%
X182850000Y-139050000D02*
X182850000Y-140300000D01*
X184100000Y-139050000D02*
X182850000Y-139050000D01*
X195000000Y-144550000D02*
X189450000Y-144550000D01*
X195000000Y-141600000D02*
X195000000Y-144550000D01*
X195750000Y-141600000D02*
X195000000Y-141600000D01*
X189450000Y-144550000D02*
X184960000Y-144550000D01*
X183900000Y-141600000D02*
X183900000Y-142940000D01*
X183150000Y-141600000D02*
X183900000Y-141600000D01*
X195750000Y-139350000D02*
X193950000Y-139350000D01*
X195750000Y-140100000D02*
X195750000Y-139350000D01*
X193950000Y-140100000D02*
X195750000Y-140100000D01*
X193950000Y-139350000D02*
X193950000Y-140100000D01*
X184950000Y-139350000D02*
X183150000Y-139350000D01*
X184950000Y-140100000D02*
X184950000Y-139350000D01*
X183150000Y-140100000D02*
X184950000Y-140100000D01*
X183150000Y-139350000D02*
X183150000Y-140100000D01*
X192450000Y-139350000D02*
X186450000Y-139350000D01*
X192450000Y-140100000D02*
X192450000Y-139350000D01*
X186450000Y-140100000D02*
X192450000Y-140100000D01*
X186450000Y-139350000D02*
X186450000Y-140100000D01*
X195760000Y-139340000D02*
X183140000Y-139340000D01*
X195760000Y-145310000D02*
X195760000Y-139340000D01*
X183140000Y-145310000D02*
X195760000Y-145310000D01*
X183140000Y-139340000D02*
X183140000Y-145310000D01*
%TO.C,J27*%
X166750000Y-138950000D02*
X166750000Y-140200000D01*
X168000000Y-138950000D02*
X166750000Y-138950000D01*
X178900000Y-144450000D02*
X173350000Y-144450000D01*
X178900000Y-141500000D02*
X178900000Y-144450000D01*
X179650000Y-141500000D02*
X178900000Y-141500000D01*
X173350000Y-144450000D02*
X168860000Y-144450000D01*
X167800000Y-141500000D02*
X167800000Y-142840000D01*
X167050000Y-141500000D02*
X167800000Y-141500000D01*
X179650000Y-139250000D02*
X177850000Y-139250000D01*
X179650000Y-140000000D02*
X179650000Y-139250000D01*
X177850000Y-140000000D02*
X179650000Y-140000000D01*
X177850000Y-139250000D02*
X177850000Y-140000000D01*
X168850000Y-139250000D02*
X167050000Y-139250000D01*
X168850000Y-140000000D02*
X168850000Y-139250000D01*
X167050000Y-140000000D02*
X168850000Y-140000000D01*
X167050000Y-139250000D02*
X167050000Y-140000000D01*
X176350000Y-139250000D02*
X170350000Y-139250000D01*
X176350000Y-140000000D02*
X176350000Y-139250000D01*
X170350000Y-140000000D02*
X176350000Y-140000000D01*
X170350000Y-139250000D02*
X170350000Y-140000000D01*
X179660000Y-139240000D02*
X167040000Y-139240000D01*
X179660000Y-145210000D02*
X179660000Y-139240000D01*
X167040000Y-145210000D02*
X179660000Y-145210000D01*
X167040000Y-139240000D02*
X167040000Y-145210000D01*
%TO.C,J26*%
X150650000Y-138950000D02*
X150650000Y-140200000D01*
X151900000Y-138950000D02*
X150650000Y-138950000D01*
X162800000Y-144450000D02*
X157250000Y-144450000D01*
X162800000Y-141500000D02*
X162800000Y-144450000D01*
X163550000Y-141500000D02*
X162800000Y-141500000D01*
X157250000Y-144450000D02*
X152760000Y-144450000D01*
X151700000Y-141500000D02*
X151700000Y-142840000D01*
X150950000Y-141500000D02*
X151700000Y-141500000D01*
X163550000Y-139250000D02*
X161750000Y-139250000D01*
X163550000Y-140000000D02*
X163550000Y-139250000D01*
X161750000Y-140000000D02*
X163550000Y-140000000D01*
X161750000Y-139250000D02*
X161750000Y-140000000D01*
X152750000Y-139250000D02*
X150950000Y-139250000D01*
X152750000Y-140000000D02*
X152750000Y-139250000D01*
X150950000Y-140000000D02*
X152750000Y-140000000D01*
X150950000Y-139250000D02*
X150950000Y-140000000D01*
X160250000Y-139250000D02*
X154250000Y-139250000D01*
X160250000Y-140000000D02*
X160250000Y-139250000D01*
X154250000Y-140000000D02*
X160250000Y-140000000D01*
X154250000Y-139250000D02*
X154250000Y-140000000D01*
X163560000Y-139240000D02*
X150940000Y-139240000D01*
X163560000Y-145210000D02*
X163560000Y-139240000D01*
X150940000Y-145210000D02*
X163560000Y-145210000D01*
X150940000Y-139240000D02*
X150940000Y-145210000D01*
%TO.C,J24*%
X166750000Y-52050000D02*
X166750000Y-53300000D01*
X168000000Y-52050000D02*
X166750000Y-52050000D01*
X178900000Y-57550000D02*
X173350000Y-57550000D01*
X178900000Y-54600000D02*
X178900000Y-57550000D01*
X179650000Y-54600000D02*
X178900000Y-54600000D01*
X173350000Y-57550000D02*
X168860000Y-57550000D01*
X167800000Y-54600000D02*
X167800000Y-55940000D01*
X167050000Y-54600000D02*
X167800000Y-54600000D01*
X179650000Y-52350000D02*
X177850000Y-52350000D01*
X179650000Y-53100000D02*
X179650000Y-52350000D01*
X177850000Y-53100000D02*
X179650000Y-53100000D01*
X177850000Y-52350000D02*
X177850000Y-53100000D01*
X168850000Y-52350000D02*
X167050000Y-52350000D01*
X168850000Y-53100000D02*
X168850000Y-52350000D01*
X167050000Y-53100000D02*
X168850000Y-53100000D01*
X167050000Y-52350000D02*
X167050000Y-53100000D01*
X176350000Y-52350000D02*
X170350000Y-52350000D01*
X176350000Y-53100000D02*
X176350000Y-52350000D01*
X170350000Y-53100000D02*
X176350000Y-53100000D01*
X170350000Y-52350000D02*
X170350000Y-53100000D01*
X179660000Y-52340000D02*
X167040000Y-52340000D01*
X179660000Y-58310000D02*
X179660000Y-52340000D01*
X167040000Y-58310000D02*
X179660000Y-58310000D01*
X167040000Y-52340000D02*
X167040000Y-58310000D01*
%TO.C,J15*%
X218000000Y-148350000D02*
X219250000Y-148350000D01*
X218000000Y-147100000D02*
X218000000Y-148350000D01*
X223500000Y-126200000D02*
X223500000Y-136750000D01*
X220550000Y-126200000D02*
X223500000Y-126200000D01*
X220550000Y-125450000D02*
X220550000Y-126200000D01*
X223500000Y-136750000D02*
X223500000Y-146240000D01*
X220550000Y-147300000D02*
X221890000Y-147300000D01*
X220550000Y-148050000D02*
X220550000Y-147300000D01*
X218300000Y-125450000D02*
X218300000Y-127250000D01*
X219050000Y-125450000D02*
X218300000Y-125450000D01*
X219050000Y-127250000D02*
X219050000Y-125450000D01*
X218300000Y-127250000D02*
X219050000Y-127250000D01*
X218300000Y-146250000D02*
X218300000Y-148050000D01*
X219050000Y-146250000D02*
X218300000Y-146250000D01*
X219050000Y-148050000D02*
X219050000Y-146250000D01*
X218300000Y-148050000D02*
X219050000Y-148050000D01*
X218300000Y-128750000D02*
X218300000Y-144750000D01*
X219050000Y-128750000D02*
X218300000Y-128750000D01*
X219050000Y-144750000D02*
X219050000Y-128750000D01*
X218300000Y-144750000D02*
X219050000Y-144750000D01*
X218290000Y-125440000D02*
X218290000Y-148060000D01*
X224260000Y-125440000D02*
X218290000Y-125440000D01*
X224260000Y-148060000D02*
X224260000Y-125440000D01*
X218290000Y-148060000D02*
X224260000Y-148060000D01*
%TO.C,J9*%
X136740000Y-42640000D02*
X136740000Y-48610000D01*
X136740000Y-48610000D02*
X159360000Y-48610000D01*
X159360000Y-48610000D02*
X159360000Y-42640000D01*
X159360000Y-42640000D02*
X136740000Y-42640000D01*
X140050000Y-42650000D02*
X140050000Y-43400000D01*
X140050000Y-43400000D02*
X156050000Y-43400000D01*
X156050000Y-43400000D02*
X156050000Y-42650000D01*
X156050000Y-42650000D02*
X140050000Y-42650000D01*
X136750000Y-42650000D02*
X136750000Y-43400000D01*
X136750000Y-43400000D02*
X138550000Y-43400000D01*
X138550000Y-43400000D02*
X138550000Y-42650000D01*
X138550000Y-42650000D02*
X136750000Y-42650000D01*
X157550000Y-42650000D02*
X157550000Y-43400000D01*
X157550000Y-43400000D02*
X159350000Y-43400000D01*
X159350000Y-43400000D02*
X159350000Y-42650000D01*
X159350000Y-42650000D02*
X157550000Y-42650000D01*
X136750000Y-44900000D02*
X137500000Y-44900000D01*
X137500000Y-44900000D02*
X137500000Y-46240000D01*
X148050000Y-47850000D02*
X138560000Y-47850000D01*
X159350000Y-44900000D02*
X158600000Y-44900000D01*
X158600000Y-44900000D02*
X158600000Y-47850000D01*
X158600000Y-47850000D02*
X148050000Y-47850000D01*
X137700000Y-42350000D02*
X136450000Y-42350000D01*
X136450000Y-42350000D02*
X136450000Y-43600000D01*
D15*
%TO.C,J19*%
X217035000Y-110070000D02*
G75*
G03*
X217035000Y-110070000I-100000J0D01*
G01*
D14*
X217560000Y-112520000D02*
X217560000Y-105120000D01*
X223310000Y-112520000D02*
X217560000Y-112520000D01*
X223310000Y-105120000D02*
X223310000Y-112520000D01*
X217560000Y-105120000D02*
X223310000Y-105120000D01*
D13*
%TO.C,J1*%
X102450000Y-51850000D02*
X102450000Y-53100000D01*
X103700000Y-51850000D02*
X102450000Y-51850000D01*
X114600000Y-57350000D02*
X109050000Y-57350000D01*
X114600000Y-54400000D02*
X114600000Y-57350000D01*
X115350000Y-54400000D02*
X114600000Y-54400000D01*
X109050000Y-57350000D02*
X104560000Y-57350000D01*
X103500000Y-54400000D02*
X103500000Y-55740000D01*
X102750000Y-54400000D02*
X103500000Y-54400000D01*
X115350000Y-52150000D02*
X113550000Y-52150000D01*
X115350000Y-52900000D02*
X115350000Y-52150000D01*
X113550000Y-52900000D02*
X115350000Y-52900000D01*
X113550000Y-52150000D02*
X113550000Y-52900000D01*
X104550000Y-52150000D02*
X102750000Y-52150000D01*
X104550000Y-52900000D02*
X104550000Y-52150000D01*
X102750000Y-52900000D02*
X104550000Y-52900000D01*
X102750000Y-52150000D02*
X102750000Y-52900000D01*
X112050000Y-52150000D02*
X106050000Y-52150000D01*
X112050000Y-52900000D02*
X112050000Y-52150000D01*
X106050000Y-52900000D02*
X112050000Y-52900000D01*
X106050000Y-52150000D02*
X106050000Y-52900000D01*
X115360000Y-52140000D02*
X102740000Y-52140000D01*
X115360000Y-58110000D02*
X115360000Y-52140000D01*
X102740000Y-58110000D02*
X115360000Y-58110000D01*
X102740000Y-52140000D02*
X102740000Y-58110000D01*
%TO.C,J2*%
X102450000Y-138950000D02*
X102450000Y-140200000D01*
X103700000Y-138950000D02*
X102450000Y-138950000D01*
X114600000Y-144450000D02*
X109050000Y-144450000D01*
X114600000Y-141500000D02*
X114600000Y-144450000D01*
X115350000Y-141500000D02*
X114600000Y-141500000D01*
X109050000Y-144450000D02*
X104560000Y-144450000D01*
X103500000Y-141500000D02*
X103500000Y-142840000D01*
X102750000Y-141500000D02*
X103500000Y-141500000D01*
X115350000Y-139250000D02*
X113550000Y-139250000D01*
X115350000Y-140000000D02*
X115350000Y-139250000D01*
X113550000Y-140000000D02*
X115350000Y-140000000D01*
X113550000Y-139250000D02*
X113550000Y-140000000D01*
X104550000Y-139250000D02*
X102750000Y-139250000D01*
X104550000Y-140000000D02*
X104550000Y-139250000D01*
X102750000Y-140000000D02*
X104550000Y-140000000D01*
X102750000Y-139250000D02*
X102750000Y-140000000D01*
X112050000Y-139250000D02*
X106050000Y-139250000D01*
X112050000Y-140000000D02*
X112050000Y-139250000D01*
X106050000Y-140000000D02*
X112050000Y-140000000D01*
X106050000Y-139250000D02*
X106050000Y-140000000D01*
X115360000Y-139240000D02*
X102740000Y-139240000D01*
X115360000Y-145210000D02*
X115360000Y-139240000D01*
X102740000Y-145210000D02*
X115360000Y-145210000D01*
X102740000Y-139240000D02*
X102740000Y-145210000D01*
%TO.C,J3*%
X118550000Y-52050000D02*
X118550000Y-53300000D01*
X119800000Y-52050000D02*
X118550000Y-52050000D01*
X130700000Y-57550000D02*
X125150000Y-57550000D01*
X130700000Y-54600000D02*
X130700000Y-57550000D01*
X131450000Y-54600000D02*
X130700000Y-54600000D01*
X125150000Y-57550000D02*
X120660000Y-57550000D01*
X119600000Y-54600000D02*
X119600000Y-55940000D01*
X118850000Y-54600000D02*
X119600000Y-54600000D01*
X131450000Y-52350000D02*
X129650000Y-52350000D01*
X131450000Y-53100000D02*
X131450000Y-52350000D01*
X129650000Y-53100000D02*
X131450000Y-53100000D01*
X129650000Y-52350000D02*
X129650000Y-53100000D01*
X120650000Y-52350000D02*
X118850000Y-52350000D01*
X120650000Y-53100000D02*
X120650000Y-52350000D01*
X118850000Y-53100000D02*
X120650000Y-53100000D01*
X118850000Y-52350000D02*
X118850000Y-53100000D01*
X128150000Y-52350000D02*
X122150000Y-52350000D01*
X128150000Y-53100000D02*
X128150000Y-52350000D01*
X122150000Y-53100000D02*
X128150000Y-53100000D01*
X122150000Y-52350000D02*
X122150000Y-53100000D01*
X131460000Y-52340000D02*
X118840000Y-52340000D01*
X131460000Y-58310000D02*
X131460000Y-52340000D01*
X118840000Y-58310000D02*
X131460000Y-58310000D01*
X118840000Y-52340000D02*
X118840000Y-58310000D01*
%TO.C,J4*%
X118550000Y-138950000D02*
X118550000Y-140200000D01*
X119800000Y-138950000D02*
X118550000Y-138950000D01*
X130700000Y-144450000D02*
X125150000Y-144450000D01*
X130700000Y-141500000D02*
X130700000Y-144450000D01*
X131450000Y-141500000D02*
X130700000Y-141500000D01*
X125150000Y-144450000D02*
X120660000Y-144450000D01*
X119600000Y-141500000D02*
X119600000Y-142840000D01*
X118850000Y-141500000D02*
X119600000Y-141500000D01*
X131450000Y-139250000D02*
X129650000Y-139250000D01*
X131450000Y-140000000D02*
X131450000Y-139250000D01*
X129650000Y-140000000D02*
X131450000Y-140000000D01*
X129650000Y-139250000D02*
X129650000Y-140000000D01*
X120650000Y-139250000D02*
X118850000Y-139250000D01*
X120650000Y-140000000D02*
X120650000Y-139250000D01*
X118850000Y-140000000D02*
X120650000Y-140000000D01*
X118850000Y-139250000D02*
X118850000Y-140000000D01*
X128150000Y-139250000D02*
X122150000Y-139250000D01*
X128150000Y-140000000D02*
X128150000Y-139250000D01*
X122150000Y-140000000D02*
X128150000Y-140000000D01*
X122150000Y-139250000D02*
X122150000Y-140000000D01*
X131460000Y-139240000D02*
X118840000Y-139240000D01*
X131460000Y-145210000D02*
X131460000Y-139240000D01*
X118840000Y-145210000D02*
X131460000Y-145210000D01*
X118840000Y-139240000D02*
X118840000Y-145210000D01*
%TO.C,J6*%
X134550000Y-138950000D02*
X134550000Y-140200000D01*
X135800000Y-138950000D02*
X134550000Y-138950000D01*
X146700000Y-144450000D02*
X141150000Y-144450000D01*
X146700000Y-141500000D02*
X146700000Y-144450000D01*
X147450000Y-141500000D02*
X146700000Y-141500000D01*
X141150000Y-144450000D02*
X136660000Y-144450000D01*
X135600000Y-141500000D02*
X135600000Y-142840000D01*
X134850000Y-141500000D02*
X135600000Y-141500000D01*
X147450000Y-139250000D02*
X145650000Y-139250000D01*
X147450000Y-140000000D02*
X147450000Y-139250000D01*
X145650000Y-140000000D02*
X147450000Y-140000000D01*
X145650000Y-139250000D02*
X145650000Y-140000000D01*
X136650000Y-139250000D02*
X134850000Y-139250000D01*
X136650000Y-140000000D02*
X136650000Y-139250000D01*
X134850000Y-140000000D02*
X136650000Y-140000000D01*
X134850000Y-139250000D02*
X134850000Y-140000000D01*
X144150000Y-139250000D02*
X138150000Y-139250000D01*
X144150000Y-140000000D02*
X144150000Y-139250000D01*
X138150000Y-140000000D02*
X144150000Y-140000000D01*
X138150000Y-139250000D02*
X138150000Y-140000000D01*
X147460000Y-139240000D02*
X134840000Y-139240000D01*
X147460000Y-145210000D02*
X147460000Y-139240000D01*
X134840000Y-145210000D02*
X147460000Y-145210000D01*
X134840000Y-139240000D02*
X134840000Y-145210000D01*
D16*
%TO.C,D1*%
X217812000Y-60700000D02*
G75*
G03*
X217812000Y-60700000I-127000J0D01*
G01*
D14*
X212985000Y-57200000D02*
X215185000Y-57200000D01*
X215185000Y-60400000D02*
X212985000Y-60400000D01*
%TO.C,D2*%
X215185000Y-50100000D02*
X212985000Y-50100000D01*
X212985000Y-46900000D02*
X215185000Y-46900000D01*
D16*
X217812000Y-50400000D02*
G75*
G03*
X217812000Y-50400000I-127000J0D01*
G01*
D13*
%TO.C,J7*%
X206576901Y-42531801D02*
X188873101Y-42531801D01*
X188873101Y-42531801D02*
X188873101Y-48577001D01*
X188873101Y-48577001D02*
X206576901Y-48577001D01*
X206576901Y-48577001D02*
X206576901Y-42531801D01*
X208735901Y-45000000D02*
G75*
G03*
X208735901Y-45000000I-381000J0D01*
G01*
%TO.C,J8*%
X110450000Y-42450000D02*
X110450000Y-43700000D01*
X111700000Y-42450000D02*
X110450000Y-42450000D01*
X132600000Y-47950000D02*
X122050000Y-47950000D01*
X132600000Y-45000000D02*
X132600000Y-47950000D01*
X133350000Y-45000000D02*
X132600000Y-45000000D01*
X122050000Y-47950000D02*
X112560000Y-47950000D01*
X111500000Y-45000000D02*
X111500000Y-46340000D01*
X110750000Y-45000000D02*
X111500000Y-45000000D01*
X133350000Y-42750000D02*
X131550000Y-42750000D01*
X133350000Y-43500000D02*
X133350000Y-42750000D01*
X131550000Y-43500000D02*
X133350000Y-43500000D01*
X131550000Y-42750000D02*
X131550000Y-43500000D01*
X112550000Y-42750000D02*
X110750000Y-42750000D01*
X112550000Y-43500000D02*
X112550000Y-42750000D01*
X110750000Y-43500000D02*
X112550000Y-43500000D01*
X110750000Y-42750000D02*
X110750000Y-43500000D01*
X130050000Y-42750000D02*
X114050000Y-42750000D01*
X130050000Y-43500000D02*
X130050000Y-42750000D01*
X114050000Y-43500000D02*
X130050000Y-43500000D01*
X114050000Y-42750000D02*
X114050000Y-43500000D01*
X133360000Y-42740000D02*
X110740000Y-42740000D01*
X133360000Y-48710000D02*
X133360000Y-42740000D01*
X110740000Y-48710000D02*
X133360000Y-48710000D01*
X110740000Y-42740000D02*
X110740000Y-48710000D01*
%TO.C,J10*%
X162550000Y-42250000D02*
X162550000Y-43500000D01*
X163800000Y-42250000D02*
X162550000Y-42250000D01*
X184700000Y-47750000D02*
X174150000Y-47750000D01*
X184700000Y-44800000D02*
X184700000Y-47750000D01*
X185450000Y-44800000D02*
X184700000Y-44800000D01*
X174150000Y-47750000D02*
X164660000Y-47750000D01*
X163600000Y-44800000D02*
X163600000Y-46140000D01*
X162850000Y-44800000D02*
X163600000Y-44800000D01*
X185450000Y-42550000D02*
X183650000Y-42550000D01*
X185450000Y-43300000D02*
X185450000Y-42550000D01*
X183650000Y-43300000D02*
X185450000Y-43300000D01*
X183650000Y-42550000D02*
X183650000Y-43300000D01*
X164650000Y-42550000D02*
X162850000Y-42550000D01*
X164650000Y-43300000D02*
X164650000Y-42550000D01*
X162850000Y-43300000D02*
X164650000Y-43300000D01*
X162850000Y-42550000D02*
X162850000Y-43300000D01*
X182150000Y-42550000D02*
X166150000Y-42550000D01*
X182150000Y-43300000D02*
X182150000Y-42550000D01*
X166150000Y-43300000D02*
X182150000Y-43300000D01*
X166150000Y-42550000D02*
X166150000Y-43300000D01*
X185460000Y-42540000D02*
X162840000Y-42540000D01*
X185460000Y-48510000D02*
X185460000Y-42540000D01*
X162840000Y-48510000D02*
X185460000Y-48510000D01*
X162840000Y-42540000D02*
X162840000Y-48510000D01*
%TO.C,J11*%
X110740000Y-148740000D02*
X110740000Y-154710000D01*
X110740000Y-154710000D02*
X133360000Y-154710000D01*
X133360000Y-154710000D02*
X133360000Y-148740000D01*
X133360000Y-148740000D02*
X110740000Y-148740000D01*
X114050000Y-148750000D02*
X114050000Y-149500000D01*
X114050000Y-149500000D02*
X130050000Y-149500000D01*
X130050000Y-149500000D02*
X130050000Y-148750000D01*
X130050000Y-148750000D02*
X114050000Y-148750000D01*
X110750000Y-148750000D02*
X110750000Y-149500000D01*
X110750000Y-149500000D02*
X112550000Y-149500000D01*
X112550000Y-149500000D02*
X112550000Y-148750000D01*
X112550000Y-148750000D02*
X110750000Y-148750000D01*
X131550000Y-148750000D02*
X131550000Y-149500000D01*
X131550000Y-149500000D02*
X133350000Y-149500000D01*
X133350000Y-149500000D02*
X133350000Y-148750000D01*
X133350000Y-148750000D02*
X131550000Y-148750000D01*
X110750000Y-151000000D02*
X111500000Y-151000000D01*
X111500000Y-151000000D02*
X111500000Y-152340000D01*
X122050000Y-153950000D02*
X112560000Y-153950000D01*
X133350000Y-151000000D02*
X132600000Y-151000000D01*
X132600000Y-151000000D02*
X132600000Y-153950000D01*
X132600000Y-153950000D02*
X122050000Y-153950000D01*
X111700000Y-148450000D02*
X110450000Y-148450000D01*
X110450000Y-148450000D02*
X110450000Y-149700000D01*
%TO.C,J12*%
X136450000Y-148450000D02*
X136450000Y-149700000D01*
X137700000Y-148450000D02*
X136450000Y-148450000D01*
X158600000Y-153950000D02*
X148050000Y-153950000D01*
X158600000Y-151000000D02*
X158600000Y-153950000D01*
X159350000Y-151000000D02*
X158600000Y-151000000D01*
X148050000Y-153950000D02*
X138560000Y-153950000D01*
X137500000Y-151000000D02*
X137500000Y-152340000D01*
X136750000Y-151000000D02*
X137500000Y-151000000D01*
X159350000Y-148750000D02*
X157550000Y-148750000D01*
X159350000Y-149500000D02*
X159350000Y-148750000D01*
X157550000Y-149500000D02*
X159350000Y-149500000D01*
X157550000Y-148750000D02*
X157550000Y-149500000D01*
X138550000Y-148750000D02*
X136750000Y-148750000D01*
X138550000Y-149500000D02*
X138550000Y-148750000D01*
X136750000Y-149500000D02*
X138550000Y-149500000D01*
X136750000Y-148750000D02*
X136750000Y-149500000D01*
X156050000Y-148750000D02*
X140050000Y-148750000D01*
X156050000Y-149500000D02*
X156050000Y-148750000D01*
X140050000Y-149500000D02*
X156050000Y-149500000D01*
X140050000Y-148750000D02*
X140050000Y-149500000D01*
X159360000Y-148740000D02*
X136740000Y-148740000D01*
X159360000Y-154710000D02*
X159360000Y-148740000D01*
X136740000Y-154710000D02*
X159360000Y-154710000D01*
X136740000Y-148740000D02*
X136740000Y-154710000D01*
%TO.C,J13*%
X162840000Y-148740000D02*
X162840000Y-154710000D01*
X162840000Y-154710000D02*
X185460000Y-154710000D01*
X185460000Y-154710000D02*
X185460000Y-148740000D01*
X185460000Y-148740000D02*
X162840000Y-148740000D01*
X166150000Y-148750000D02*
X166150000Y-149500000D01*
X166150000Y-149500000D02*
X182150000Y-149500000D01*
X182150000Y-149500000D02*
X182150000Y-148750000D01*
X182150000Y-148750000D02*
X166150000Y-148750000D01*
X162850000Y-148750000D02*
X162850000Y-149500000D01*
X162850000Y-149500000D02*
X164650000Y-149500000D01*
X164650000Y-149500000D02*
X164650000Y-148750000D01*
X164650000Y-148750000D02*
X162850000Y-148750000D01*
X183650000Y-148750000D02*
X183650000Y-149500000D01*
X183650000Y-149500000D02*
X185450000Y-149500000D01*
X185450000Y-149500000D02*
X185450000Y-148750000D01*
X185450000Y-148750000D02*
X183650000Y-148750000D01*
X162850000Y-151000000D02*
X163600000Y-151000000D01*
X163600000Y-151000000D02*
X163600000Y-152340000D01*
X174150000Y-153950000D02*
X164660000Y-153950000D01*
X185450000Y-151000000D02*
X184700000Y-151000000D01*
X184700000Y-151000000D02*
X184700000Y-153950000D01*
X184700000Y-153950000D02*
X174150000Y-153950000D01*
X163800000Y-148450000D02*
X162550000Y-148450000D01*
X162550000Y-148450000D02*
X162550000Y-149700000D01*
%TO.C,J14*%
X206576901Y-148731801D02*
X188873101Y-148731801D01*
X188873101Y-148731801D02*
X188873101Y-154777001D01*
X188873101Y-154777001D02*
X206576901Y-154777001D01*
X206576901Y-154777001D02*
X206576901Y-148731801D01*
X208735901Y-151200000D02*
G75*
G03*
X208735901Y-151200000I-381000J0D01*
G01*
%TO.C,J17*%
X223780000Y-96060000D02*
X223780000Y-97390000D01*
X222450000Y-96060000D02*
X223780000Y-96060000D01*
X221180000Y-96060000D02*
X221180000Y-98720000D01*
X221180000Y-98720000D02*
X218580000Y-98720000D01*
X221180000Y-96060000D02*
X218580000Y-96060000D01*
X218580000Y-96060000D02*
X218580000Y-98720000D01*
%TO.C,J18*%
X218580000Y-77010000D02*
X218580000Y-79670000D01*
X221180000Y-77010000D02*
X218580000Y-77010000D01*
X221180000Y-79670000D02*
X218580000Y-79670000D01*
X221180000Y-77010000D02*
X221180000Y-79670000D01*
X222450000Y-77010000D02*
X223780000Y-77010000D01*
X223780000Y-77010000D02*
X223780000Y-78340000D01*
D14*
%TO.C,J20*%
X217560000Y-87340000D02*
X223310000Y-87340000D01*
X223310000Y-87340000D02*
X223310000Y-94740000D01*
X223310000Y-94740000D02*
X217560000Y-94740000D01*
X217560000Y-94740000D02*
X217560000Y-87340000D01*
D15*
X217035000Y-92290000D02*
G75*
G03*
X217035000Y-92290000I-100000J0D01*
G01*
%TO.C,J21*%
X217035000Y-73240000D02*
G75*
G03*
X217035000Y-73240000I-100000J0D01*
G01*
D14*
X217560000Y-75690000D02*
X217560000Y-68290000D01*
X223310000Y-75690000D02*
X217560000Y-75690000D01*
X223310000Y-68290000D02*
X223310000Y-75690000D01*
X217560000Y-68290000D02*
X223310000Y-68290000D01*
D13*
%TO.C,J23*%
X218580000Y-113840000D02*
X218580000Y-116500000D01*
X221180000Y-113840000D02*
X218580000Y-113840000D01*
X221180000Y-116500000D02*
X218580000Y-116500000D01*
X221180000Y-113840000D02*
X221180000Y-116500000D01*
X222450000Y-113840000D02*
X223780000Y-113840000D01*
X223780000Y-113840000D02*
X223780000Y-115170000D01*
D17*
%TO.C,U3*%
X197441419Y-112670000D02*
G75*
G03*
X197441419Y-112670000I-141419J0D01*
G01*
D15*
X198425000Y-117620000D02*
X198425000Y-112720000D01*
X201575000Y-117620000D02*
X198425000Y-117620000D01*
X201575000Y-112720000D02*
X201575000Y-117620000D01*
X198425000Y-112720000D02*
X201575000Y-112720000D01*
%TO.C,U4*%
X198425000Y-90870000D02*
X201575000Y-90870000D01*
X201575000Y-90870000D02*
X201575000Y-95770000D01*
X201575000Y-95770000D02*
X198425000Y-95770000D01*
X198425000Y-95770000D02*
X198425000Y-90870000D01*
D17*
X197441419Y-90820000D02*
G75*
G03*
X197441419Y-90820000I-141419J0D01*
G01*
%TO.C,U5*%
X197441419Y-77220000D02*
G75*
G03*
X197441419Y-77220000I-141419J0D01*
G01*
D15*
X198425000Y-82170000D02*
X198425000Y-77270000D01*
X201575000Y-82170000D02*
X198425000Y-82170000D01*
X201575000Y-77270000D02*
X201575000Y-82170000D01*
X198425000Y-77270000D02*
X201575000Y-77270000D01*
D13*
%TO.C,J31*%
X85150000Y-42450000D02*
X85150000Y-43700000D01*
X86400000Y-42450000D02*
X85150000Y-42450000D01*
X94800000Y-47950000D02*
X90500000Y-47950000D01*
X94800000Y-45000000D02*
X94800000Y-47950000D01*
X95550000Y-45000000D02*
X94800000Y-45000000D01*
X90500000Y-47950000D02*
X87260000Y-47950000D01*
X86200000Y-45000000D02*
X86200000Y-46340000D01*
X85450000Y-45000000D02*
X86200000Y-45000000D01*
X95550000Y-42750000D02*
X93750000Y-42750000D01*
X95550000Y-43500000D02*
X95550000Y-42750000D01*
X93750000Y-43500000D02*
X95550000Y-43500000D01*
X93750000Y-42750000D02*
X93750000Y-43500000D01*
X87250000Y-42750000D02*
X85450000Y-42750000D01*
X87250000Y-43500000D02*
X87250000Y-42750000D01*
X85450000Y-43500000D02*
X87250000Y-43500000D01*
X85450000Y-42750000D02*
X85450000Y-43500000D01*
X92250000Y-42750000D02*
X88750000Y-42750000D01*
X92250000Y-43500000D02*
X92250000Y-42750000D01*
X88750000Y-43500000D02*
X92250000Y-43500000D01*
X88750000Y-42750000D02*
X88750000Y-43500000D01*
X95560000Y-42740000D02*
X85440000Y-42740000D01*
X95560000Y-48710000D02*
X95560000Y-42740000D01*
X85440000Y-48710000D02*
X95560000Y-48710000D01*
X85440000Y-42740000D02*
X85440000Y-48710000D01*
%TO.C,J32*%
X85440000Y-52140000D02*
X85440000Y-58110000D01*
X85440000Y-58110000D02*
X95560000Y-58110000D01*
X95560000Y-58110000D02*
X95560000Y-52140000D01*
X95560000Y-52140000D02*
X85440000Y-52140000D01*
X88750000Y-52150000D02*
X88750000Y-52900000D01*
X88750000Y-52900000D02*
X92250000Y-52900000D01*
X92250000Y-52900000D02*
X92250000Y-52150000D01*
X92250000Y-52150000D02*
X88750000Y-52150000D01*
X85450000Y-52150000D02*
X85450000Y-52900000D01*
X85450000Y-52900000D02*
X87250000Y-52900000D01*
X87250000Y-52900000D02*
X87250000Y-52150000D01*
X87250000Y-52150000D02*
X85450000Y-52150000D01*
X93750000Y-52150000D02*
X93750000Y-52900000D01*
X93750000Y-52900000D02*
X95550000Y-52900000D01*
X95550000Y-52900000D02*
X95550000Y-52150000D01*
X95550000Y-52150000D02*
X93750000Y-52150000D01*
X85450000Y-54400000D02*
X86200000Y-54400000D01*
X86200000Y-54400000D02*
X86200000Y-55740000D01*
X90500000Y-57350000D02*
X87260000Y-57350000D01*
X95550000Y-54400000D02*
X94800000Y-54400000D01*
X94800000Y-54400000D02*
X94800000Y-57350000D01*
X94800000Y-57350000D02*
X90500000Y-57350000D01*
X86400000Y-51850000D02*
X85150000Y-51850000D01*
X85150000Y-51850000D02*
X85150000Y-53100000D01*
%TO.C,J25*%
D18*
X182190476Y-50702380D02*
X182190476Y-51416666D01*
X182142857Y-51559523D01*
X182047619Y-51654761D01*
X181904761Y-51702380D01*
X181809523Y-51702380D01*
X182619047Y-50797619D02*
X182666666Y-50750000D01*
X182761904Y-50702380D01*
X183000000Y-50702380D01*
X183095238Y-50750000D01*
X183142857Y-50797619D01*
X183190476Y-50892857D01*
X183190476Y-50988095D01*
X183142857Y-51130952D01*
X182571428Y-51702380D01*
X183190476Y-51702380D01*
X184095238Y-50702380D02*
X183619047Y-50702380D01*
X183571428Y-51178571D01*
X183619047Y-51130952D01*
X183714285Y-51083333D01*
X183952380Y-51083333D01*
X184047619Y-51130952D01*
X184095238Y-51178571D01*
X184142857Y-51273809D01*
X184142857Y-51511904D01*
X184095238Y-51607142D01*
X184047619Y-51654761D01*
X183952380Y-51702380D01*
X183714285Y-51702380D01*
X183619047Y-51654761D01*
X183571428Y-51607142D01*
%TO.C,J5*%
X134666666Y-50702380D02*
X134666666Y-51416666D01*
X134619047Y-51559523D01*
X134523809Y-51654761D01*
X134380952Y-51702380D01*
X134285714Y-51702380D01*
X135619047Y-50702380D02*
X135142857Y-50702380D01*
X135095238Y-51178571D01*
X135142857Y-51130952D01*
X135238095Y-51083333D01*
X135476190Y-51083333D01*
X135571428Y-51130952D01*
X135619047Y-51178571D01*
X135666666Y-51273809D01*
X135666666Y-51511904D01*
X135619047Y-51607142D01*
X135571428Y-51654761D01*
X135476190Y-51702380D01*
X135238095Y-51702380D01*
X135142857Y-51654761D01*
X135095238Y-51607142D01*
%TO.C,U1*%
X77269333Y-130031666D02*
X78402666Y-130031666D01*
X78536000Y-129965000D01*
X78602666Y-129898333D01*
X78669333Y-129765000D01*
X78669333Y-129498333D01*
X78602666Y-129365000D01*
X78536000Y-129298333D01*
X78402666Y-129231666D01*
X77269333Y-129231666D01*
X78669333Y-127831666D02*
X78669333Y-128631666D01*
X78669333Y-128231666D02*
X77269333Y-128231666D01*
X77469333Y-128365000D01*
X77602666Y-128498333D01*
X77669333Y-128631666D01*
%TO.C,R2*%
X221933333Y-50252380D02*
X221600000Y-49776190D01*
X221361904Y-50252380D02*
X221361904Y-49252380D01*
X221742857Y-49252380D01*
X221838095Y-49300000D01*
X221885714Y-49347619D01*
X221933333Y-49442857D01*
X221933333Y-49585714D01*
X221885714Y-49680952D01*
X221838095Y-49728571D01*
X221742857Y-49776190D01*
X221361904Y-49776190D01*
X222314285Y-49347619D02*
X222361904Y-49300000D01*
X222457142Y-49252380D01*
X222695238Y-49252380D01*
X222790476Y-49300000D01*
X222838095Y-49347619D01*
X222885714Y-49442857D01*
X222885714Y-49538095D01*
X222838095Y-49680952D01*
X222266666Y-50252380D01*
X222885714Y-50252380D01*
%TO.C,R1*%
X221833233Y-58052380D02*
X221499900Y-57576190D01*
X221261804Y-58052380D02*
X221261804Y-57052380D01*
X221642757Y-57052380D01*
X221737995Y-57100000D01*
X221785614Y-57147619D01*
X221833233Y-57242857D01*
X221833233Y-57385714D01*
X221785614Y-57480952D01*
X221737995Y-57528571D01*
X221642757Y-57576190D01*
X221261804Y-57576190D01*
X222785614Y-58052380D02*
X222214185Y-58052380D01*
X222499900Y-58052380D02*
X222499900Y-57052380D01*
X222404661Y-57195238D01*
X222309423Y-57290476D01*
X222214185Y-57338095D01*
%TO.C,*%
%TO.C,J30*%
X92190476Y-137452380D02*
X92190476Y-138166666D01*
X92142857Y-138309523D01*
X92047619Y-138404761D01*
X91904761Y-138452380D01*
X91809523Y-138452380D01*
X92571428Y-137452380D02*
X93190476Y-137452380D01*
X92857142Y-137833333D01*
X93000000Y-137833333D01*
X93095238Y-137880952D01*
X93142857Y-137928571D01*
X93190476Y-138023809D01*
X93190476Y-138261904D01*
X93142857Y-138357142D01*
X93095238Y-138404761D01*
X93000000Y-138452380D01*
X92714285Y-138452380D01*
X92619047Y-138404761D01*
X92571428Y-138357142D01*
X93809523Y-137452380D02*
X93904761Y-137452380D01*
X94000000Y-137500000D01*
X94047619Y-137547619D01*
X94095238Y-137642857D01*
X94142857Y-137833333D01*
X94142857Y-138071428D01*
X94095238Y-138261904D01*
X94047619Y-138357142D01*
X94000000Y-138404761D01*
X93904761Y-138452380D01*
X93809523Y-138452380D01*
X93714285Y-138404761D01*
X93666666Y-138357142D01*
X93619047Y-138261904D01*
X93571428Y-138071428D01*
X93571428Y-137833333D01*
X93619047Y-137642857D01*
X93666666Y-137547619D01*
X93714285Y-137500000D01*
X93809523Y-137452380D01*
%TO.C,J29*%
X150190476Y-50702380D02*
X150190476Y-51416666D01*
X150142857Y-51559523D01*
X150047619Y-51654761D01*
X149904761Y-51702380D01*
X149809523Y-51702380D01*
X150619047Y-50797619D02*
X150666666Y-50750000D01*
X150761904Y-50702380D01*
X151000000Y-50702380D01*
X151095238Y-50750000D01*
X151142857Y-50797619D01*
X151190476Y-50892857D01*
X151190476Y-50988095D01*
X151142857Y-51130952D01*
X150571428Y-51702380D01*
X151190476Y-51702380D01*
X151666666Y-51702380D02*
X151857142Y-51702380D01*
X151952380Y-51654761D01*
X152000000Y-51607142D01*
X152095238Y-51464285D01*
X152142857Y-51273809D01*
X152142857Y-50892857D01*
X152095238Y-50797619D01*
X152047619Y-50750000D01*
X151952380Y-50702380D01*
X151761904Y-50702380D01*
X151666666Y-50750000D01*
X151619047Y-50797619D01*
X151571428Y-50892857D01*
X151571428Y-51130952D01*
X151619047Y-51226190D01*
X151666666Y-51273809D01*
X151761904Y-51321428D01*
X151952380Y-51321428D01*
X152047619Y-51273809D01*
X152095238Y-51226190D01*
X152142857Y-51130952D01*
%TO.C,J28*%
X182090476Y-137852380D02*
X182090476Y-138566666D01*
X182042857Y-138709523D01*
X181947619Y-138804761D01*
X181804761Y-138852380D01*
X181709523Y-138852380D01*
X182519047Y-137947619D02*
X182566666Y-137900000D01*
X182661904Y-137852380D01*
X182900000Y-137852380D01*
X182995238Y-137900000D01*
X183042857Y-137947619D01*
X183090476Y-138042857D01*
X183090476Y-138138095D01*
X183042857Y-138280952D01*
X182471428Y-138852380D01*
X183090476Y-138852380D01*
X183661904Y-138280952D02*
X183566666Y-138233333D01*
X183519047Y-138185714D01*
X183471428Y-138090476D01*
X183471428Y-138042857D01*
X183519047Y-137947619D01*
X183566666Y-137900000D01*
X183661904Y-137852380D01*
X183852380Y-137852380D01*
X183947619Y-137900000D01*
X183995238Y-137947619D01*
X184042857Y-138042857D01*
X184042857Y-138090476D01*
X183995238Y-138185714D01*
X183947619Y-138233333D01*
X183852380Y-138280952D01*
X183661904Y-138280952D01*
X183566666Y-138328571D01*
X183519047Y-138376190D01*
X183471428Y-138471428D01*
X183471428Y-138661904D01*
X183519047Y-138757142D01*
X183566666Y-138804761D01*
X183661904Y-138852380D01*
X183852380Y-138852380D01*
X183947619Y-138804761D01*
X183995238Y-138757142D01*
X184042857Y-138661904D01*
X184042857Y-138471428D01*
X183995238Y-138376190D01*
X183947619Y-138328571D01*
X183852380Y-138280952D01*
%TO.C,J27*%
X166390476Y-137752380D02*
X166390476Y-138466666D01*
X166342857Y-138609523D01*
X166247619Y-138704761D01*
X166104761Y-138752380D01*
X166009523Y-138752380D01*
X166819047Y-137847619D02*
X166866666Y-137800000D01*
X166961904Y-137752380D01*
X167200000Y-137752380D01*
X167295238Y-137800000D01*
X167342857Y-137847619D01*
X167390476Y-137942857D01*
X167390476Y-138038095D01*
X167342857Y-138180952D01*
X166771428Y-138752380D01*
X167390476Y-138752380D01*
X167723809Y-137752380D02*
X168390476Y-137752380D01*
X167961904Y-138752380D01*
%TO.C,J26*%
X149990476Y-137752380D02*
X149990476Y-138466666D01*
X149942857Y-138609523D01*
X149847619Y-138704761D01*
X149704761Y-138752380D01*
X149609523Y-138752380D01*
X150419047Y-137847619D02*
X150466666Y-137800000D01*
X150561904Y-137752380D01*
X150800000Y-137752380D01*
X150895238Y-137800000D01*
X150942857Y-137847619D01*
X150990476Y-137942857D01*
X150990476Y-138038095D01*
X150942857Y-138180952D01*
X150371428Y-138752380D01*
X150990476Y-138752380D01*
X151847619Y-137752380D02*
X151657142Y-137752380D01*
X151561904Y-137800000D01*
X151514285Y-137847619D01*
X151419047Y-137990476D01*
X151371428Y-138180952D01*
X151371428Y-138561904D01*
X151419047Y-138657142D01*
X151466666Y-138704761D01*
X151561904Y-138752380D01*
X151752380Y-138752380D01*
X151847619Y-138704761D01*
X151895238Y-138657142D01*
X151942857Y-138561904D01*
X151942857Y-138323809D01*
X151895238Y-138228571D01*
X151847619Y-138180952D01*
X151752380Y-138133333D01*
X151561904Y-138133333D01*
X151466666Y-138180952D01*
X151419047Y-138228571D01*
X151371428Y-138323809D01*
%TO.C,J24*%
X166190476Y-50702380D02*
X166190476Y-51416666D01*
X166142857Y-51559523D01*
X166047619Y-51654761D01*
X165904761Y-51702380D01*
X165809523Y-51702380D01*
X166619047Y-50797619D02*
X166666666Y-50750000D01*
X166761904Y-50702380D01*
X167000000Y-50702380D01*
X167095238Y-50750000D01*
X167142857Y-50797619D01*
X167190476Y-50892857D01*
X167190476Y-50988095D01*
X167142857Y-51130952D01*
X166571428Y-51702380D01*
X167190476Y-51702380D01*
X168047619Y-51035714D02*
X168047619Y-51702380D01*
X167809523Y-50654761D02*
X167571428Y-51369047D01*
X168190476Y-51369047D01*
%TO.C,J15*%
X216652380Y-137559523D02*
X217366666Y-137559523D01*
X217509523Y-137607142D01*
X217604761Y-137702380D01*
X217652380Y-137845238D01*
X217652380Y-137940476D01*
X217652380Y-136559523D02*
X217652380Y-137130952D01*
X217652380Y-136845238D02*
X216652380Y-136845238D01*
X216795238Y-136940476D01*
X216890476Y-137035714D01*
X216938095Y-137130952D01*
X216652380Y-135654761D02*
X216652380Y-136130952D01*
X217128571Y-136178571D01*
X217080952Y-136130952D01*
X217033333Y-136035714D01*
X217033333Y-135797619D01*
X217080952Y-135702380D01*
X217128571Y-135654761D01*
X217223809Y-135607142D01*
X217461904Y-135607142D01*
X217557142Y-135654761D01*
X217604761Y-135702380D01*
X217652380Y-135797619D01*
X217652380Y-136035714D01*
X217604761Y-136130952D01*
X217557142Y-136178571D01*
%TO.C,J9*%
X135516666Y-41052380D02*
X135516666Y-41766666D01*
X135469047Y-41909523D01*
X135373809Y-42004761D01*
X135230952Y-42052380D01*
X135135714Y-42052380D01*
X136040476Y-42052380D02*
X136230952Y-42052380D01*
X136326190Y-42004761D01*
X136373809Y-41957142D01*
X136469047Y-41814285D01*
X136516666Y-41623809D01*
X136516666Y-41242857D01*
X136469047Y-41147619D01*
X136421428Y-41100000D01*
X136326190Y-41052380D01*
X136135714Y-41052380D01*
X136040476Y-41100000D01*
X135992857Y-41147619D01*
X135945238Y-41242857D01*
X135945238Y-41480952D01*
X135992857Y-41576190D01*
X136040476Y-41623809D01*
X136135714Y-41671428D01*
X136326190Y-41671428D01*
X136421428Y-41623809D01*
X136469047Y-41576190D01*
X136516666Y-41480952D01*
%TO.C,*%
%TO.C,J19*%
X215552380Y-109629523D02*
X216266666Y-109629523D01*
X216409523Y-109677142D01*
X216504761Y-109772380D01*
X216552380Y-109915238D01*
X216552380Y-110010476D01*
X216552380Y-108629523D02*
X216552380Y-109200952D01*
X216552380Y-108915238D02*
X215552380Y-108915238D01*
X215695238Y-109010476D01*
X215790476Y-109105714D01*
X215838095Y-109200952D01*
X216552380Y-108153333D02*
X216552380Y-107962857D01*
X216504761Y-107867619D01*
X216457142Y-107820000D01*
X216314285Y-107724761D01*
X216123809Y-107677142D01*
X215742857Y-107677142D01*
X215647619Y-107724761D01*
X215600000Y-107772380D01*
X215552380Y-107867619D01*
X215552380Y-108058095D01*
X215600000Y-108153333D01*
X215647619Y-108200952D01*
X215742857Y-108248571D01*
X215980952Y-108248571D01*
X216076190Y-108200952D01*
X216123809Y-108153333D01*
X216171428Y-108058095D01*
X216171428Y-107867619D01*
X216123809Y-107772380D01*
X216076190Y-107724761D01*
X215980952Y-107677142D01*
%TO.C,J1*%
X102666666Y-50502380D02*
X102666666Y-51216666D01*
X102619047Y-51359523D01*
X102523809Y-51454761D01*
X102380952Y-51502380D01*
X102285714Y-51502380D01*
X103666666Y-51502380D02*
X103095238Y-51502380D01*
X103380952Y-51502380D02*
X103380952Y-50502380D01*
X103285714Y-50645238D01*
X103190476Y-50740476D01*
X103095238Y-50788095D01*
%TO.C,J2*%
X102666666Y-137752380D02*
X102666666Y-138466666D01*
X102619047Y-138609523D01*
X102523809Y-138704761D01*
X102380952Y-138752380D01*
X102285714Y-138752380D01*
X103095238Y-137847619D02*
X103142857Y-137800000D01*
X103238095Y-137752380D01*
X103476190Y-137752380D01*
X103571428Y-137800000D01*
X103619047Y-137847619D01*
X103666666Y-137942857D01*
X103666666Y-138038095D01*
X103619047Y-138180952D01*
X103047619Y-138752380D01*
X103666666Y-138752380D01*
%TO.C,J3*%
X118666666Y-50702380D02*
X118666666Y-51416666D01*
X118619047Y-51559523D01*
X118523809Y-51654761D01*
X118380952Y-51702380D01*
X118285714Y-51702380D01*
X119047619Y-50702380D02*
X119666666Y-50702380D01*
X119333333Y-51083333D01*
X119476190Y-51083333D01*
X119571428Y-51130952D01*
X119619047Y-51178571D01*
X119666666Y-51273809D01*
X119666666Y-51511904D01*
X119619047Y-51607142D01*
X119571428Y-51654761D01*
X119476190Y-51702380D01*
X119190476Y-51702380D01*
X119095238Y-51654761D01*
X119047619Y-51607142D01*
%TO.C,J4*%
X118766666Y-137752380D02*
X118766666Y-138466666D01*
X118719047Y-138609523D01*
X118623809Y-138704761D01*
X118480952Y-138752380D01*
X118385714Y-138752380D01*
X119671428Y-138085714D02*
X119671428Y-138752380D01*
X119433333Y-137704761D02*
X119195238Y-138419047D01*
X119814285Y-138419047D01*
%TO.C,J6*%
X134866666Y-137752380D02*
X134866666Y-138466666D01*
X134819047Y-138609523D01*
X134723809Y-138704761D01*
X134580952Y-138752380D01*
X134485714Y-138752380D01*
X135771428Y-137752380D02*
X135580952Y-137752380D01*
X135485714Y-137800000D01*
X135438095Y-137847619D01*
X135342857Y-137990476D01*
X135295238Y-138180952D01*
X135295238Y-138561904D01*
X135342857Y-138657142D01*
X135390476Y-138704761D01*
X135485714Y-138752380D01*
X135676190Y-138752380D01*
X135771428Y-138704761D01*
X135819047Y-138657142D01*
X135866666Y-138561904D01*
X135866666Y-138323809D01*
X135819047Y-138228571D01*
X135771428Y-138180952D01*
X135676190Y-138133333D01*
X135485714Y-138133333D01*
X135390476Y-138180952D01*
X135342857Y-138228571D01*
X135295238Y-138323809D01*
%TO.C,C5*%
X205027142Y-97466766D02*
X205074761Y-97514385D01*
X205122380Y-97657242D01*
X205122380Y-97752480D01*
X205074761Y-97895338D01*
X204979523Y-97990576D01*
X204884285Y-98038195D01*
X204693809Y-98085814D01*
X204550952Y-98085814D01*
X204360476Y-98038195D01*
X204265238Y-97990576D01*
X204170000Y-97895338D01*
X204122380Y-97752480D01*
X204122380Y-97657242D01*
X204170000Y-97514385D01*
X204217619Y-97466766D01*
X204122380Y-96562004D02*
X204122380Y-97038195D01*
X204598571Y-97085814D01*
X204550952Y-97038195D01*
X204503333Y-96942957D01*
X204503333Y-96704861D01*
X204550952Y-96609623D01*
X204598571Y-96562004D01*
X204693809Y-96514385D01*
X204931904Y-96514385D01*
X205027142Y-96562004D01*
X205074761Y-96609623D01*
X205122380Y-96704861D01*
X205122380Y-96942957D01*
X205074761Y-97038195D01*
X205027142Y-97085814D01*
%TO.C,C1*%
X205027142Y-119616566D02*
X205074761Y-119664185D01*
X205122380Y-119807042D01*
X205122380Y-119902280D01*
X205074761Y-120045138D01*
X204979523Y-120140376D01*
X204884285Y-120187995D01*
X204693809Y-120235614D01*
X204550952Y-120235614D01*
X204360476Y-120187995D01*
X204265238Y-120140376D01*
X204170000Y-120045138D01*
X204122380Y-119902280D01*
X204122380Y-119807042D01*
X204170000Y-119664185D01*
X204217619Y-119616566D01*
X205122380Y-118664185D02*
X205122380Y-119235614D01*
X205122380Y-118949900D02*
X204122380Y-118949900D01*
X204265238Y-119045138D01*
X204360476Y-119140376D01*
X204408095Y-119235614D01*
%TO.C,C2*%
X201757142Y-122366666D02*
X201804761Y-122414285D01*
X201852380Y-122557142D01*
X201852380Y-122652380D01*
X201804761Y-122795238D01*
X201709523Y-122890476D01*
X201614285Y-122938095D01*
X201423809Y-122985714D01*
X201280952Y-122985714D01*
X201090476Y-122938095D01*
X200995238Y-122890476D01*
X200900000Y-122795238D01*
X200852380Y-122652380D01*
X200852380Y-122557142D01*
X200900000Y-122414285D01*
X200947619Y-122366666D01*
X200947619Y-121985714D02*
X200900000Y-121938095D01*
X200852380Y-121842857D01*
X200852380Y-121604761D01*
X200900000Y-121509523D01*
X200947619Y-121461904D01*
X201042857Y-121414285D01*
X201138095Y-121414285D01*
X201280952Y-121461904D01*
X201852380Y-122033333D01*
X201852380Y-121414285D01*
%TO.C,C3*%
X201427142Y-100866566D02*
X201474761Y-100914185D01*
X201522380Y-101057042D01*
X201522380Y-101152280D01*
X201474761Y-101295138D01*
X201379523Y-101390376D01*
X201284285Y-101437995D01*
X201093809Y-101485614D01*
X200950952Y-101485614D01*
X200760476Y-101437995D01*
X200665238Y-101390376D01*
X200570000Y-101295138D01*
X200522380Y-101152280D01*
X200522380Y-101057042D01*
X200570000Y-100914185D01*
X200617619Y-100866566D01*
X200522380Y-100533233D02*
X200522380Y-99914185D01*
X200903333Y-100247519D01*
X200903333Y-100104661D01*
X200950952Y-100009423D01*
X200998571Y-99961804D01*
X201093809Y-99914185D01*
X201331904Y-99914185D01*
X201427142Y-99961804D01*
X201474761Y-100009423D01*
X201522380Y-100104661D01*
X201522380Y-100390376D01*
X201474761Y-100485614D01*
X201427142Y-100533233D01*
%TO.C,C4*%
X201427142Y-85966666D02*
X201474761Y-86014285D01*
X201522380Y-86157142D01*
X201522380Y-86252380D01*
X201474761Y-86395238D01*
X201379523Y-86490476D01*
X201284285Y-86538095D01*
X201093809Y-86585714D01*
X200950952Y-86585714D01*
X200760476Y-86538095D01*
X200665238Y-86490476D01*
X200570000Y-86395238D01*
X200522380Y-86252380D01*
X200522380Y-86157142D01*
X200570000Y-86014285D01*
X200617619Y-85966666D01*
X200855714Y-85109523D02*
X201522380Y-85109523D01*
X200474761Y-85347619D02*
X201189047Y-85585714D01*
X201189047Y-84966666D01*
%TO.C,C6*%
X207567142Y-84496766D02*
X207614761Y-84544385D01*
X207662380Y-84687242D01*
X207662380Y-84782480D01*
X207614761Y-84925338D01*
X207519523Y-85020576D01*
X207424285Y-85068195D01*
X207233809Y-85115814D01*
X207090952Y-85115814D01*
X206900476Y-85068195D01*
X206805238Y-85020576D01*
X206710000Y-84925338D01*
X206662380Y-84782480D01*
X206662380Y-84687242D01*
X206710000Y-84544385D01*
X206757619Y-84496766D01*
X206662380Y-83639623D02*
X206662380Y-83830100D01*
X206710000Y-83925338D01*
X206757619Y-83972957D01*
X206900476Y-84068195D01*
X207090952Y-84115814D01*
X207471904Y-84115814D01*
X207567142Y-84068195D01*
X207614761Y-84020576D01*
X207662380Y-83925338D01*
X207662380Y-83734861D01*
X207614761Y-83639623D01*
X207567142Y-83592004D01*
X207471904Y-83544385D01*
X207233809Y-83544385D01*
X207138571Y-83592004D01*
X207090952Y-83639623D01*
X207043333Y-83734861D01*
X207043333Y-83925338D01*
X207090952Y-84020576D01*
X207138571Y-84068195D01*
X207233809Y-84115814D01*
%TO.C,D1*%
X210127562Y-59618391D02*
X209127160Y-59618391D01*
X209127160Y-59380201D01*
X209174799Y-59237286D01*
X209270075Y-59142010D01*
X209365351Y-59094371D01*
X209555904Y-59046733D01*
X209698819Y-59046733D01*
X209889371Y-59094371D01*
X209984648Y-59142010D01*
X210079924Y-59237286D01*
X210127562Y-59380201D01*
X210127562Y-59618391D01*
X210127562Y-58093969D02*
X210127562Y-58665628D01*
X210127562Y-58379799D02*
X209127160Y-58379799D01*
X209270075Y-58475075D01*
X209365351Y-58570351D01*
X209412989Y-58665628D01*
%TO.C,D2*%
X210152562Y-49148391D02*
X209152160Y-49148391D01*
X209152160Y-48910201D01*
X209199799Y-48767286D01*
X209295075Y-48672010D01*
X209390351Y-48624371D01*
X209580904Y-48576733D01*
X209723819Y-48576733D01*
X209914371Y-48624371D01*
X210009648Y-48672010D01*
X210104924Y-48767286D01*
X210152562Y-48910201D01*
X210152562Y-49148391D01*
X209247437Y-48195628D02*
X209199799Y-48147989D01*
X209152160Y-48052713D01*
X209152160Y-47814522D01*
X209199799Y-47719246D01*
X209247437Y-47671608D01*
X209342713Y-47623969D01*
X209437989Y-47623969D01*
X209580904Y-47671608D01*
X210152562Y-48243266D01*
X210152562Y-47623969D01*
%TO.C,J7*%
X187916666Y-41202380D02*
X187916666Y-41916666D01*
X187869047Y-42059523D01*
X187773809Y-42154761D01*
X187630952Y-42202380D01*
X187535714Y-42202380D01*
X188297619Y-41202380D02*
X188964285Y-41202380D01*
X188535714Y-42202380D01*
X204000000Y-44452380D02*
X204000000Y-44690476D01*
X203761904Y-44595238D02*
X204000000Y-44690476D01*
X204238095Y-44595238D01*
X203857142Y-44880952D02*
X204000000Y-44690476D01*
X204142857Y-44880952D01*
%TO.C,J8*%
X109486666Y-41152380D02*
X109486666Y-41866666D01*
X109439047Y-42009523D01*
X109343809Y-42104761D01*
X109200952Y-42152380D01*
X109105714Y-42152380D01*
X110105714Y-41580952D02*
X110010476Y-41533333D01*
X109962857Y-41485714D01*
X109915238Y-41390476D01*
X109915238Y-41342857D01*
X109962857Y-41247619D01*
X110010476Y-41200000D01*
X110105714Y-41152380D01*
X110296190Y-41152380D01*
X110391428Y-41200000D01*
X110439047Y-41247619D01*
X110486666Y-41342857D01*
X110486666Y-41390476D01*
X110439047Y-41485714D01*
X110391428Y-41533333D01*
X110296190Y-41580952D01*
X110105714Y-41580952D01*
X110010476Y-41628571D01*
X109962857Y-41676190D01*
X109915238Y-41771428D01*
X109915238Y-41961904D01*
X109962857Y-42057142D01*
X110010476Y-42104761D01*
X110105714Y-42152380D01*
X110296190Y-42152380D01*
X110391428Y-42104761D01*
X110439047Y-42057142D01*
X110486666Y-41961904D01*
X110486666Y-41771428D01*
X110439047Y-41676190D01*
X110391428Y-41628571D01*
X110296190Y-41580952D01*
%TO.C,J10*%
X160610476Y-41152380D02*
X160610476Y-41866666D01*
X160562857Y-42009523D01*
X160467619Y-42104761D01*
X160324761Y-42152380D01*
X160229523Y-42152380D01*
X161610476Y-42152380D02*
X161039047Y-42152380D01*
X161324761Y-42152380D02*
X161324761Y-41152380D01*
X161229523Y-41295238D01*
X161134285Y-41390476D01*
X161039047Y-41438095D01*
X162229523Y-41152380D02*
X162324761Y-41152380D01*
X162420000Y-41200000D01*
X162467619Y-41247619D01*
X162515238Y-41342857D01*
X162562857Y-41533333D01*
X162562857Y-41771428D01*
X162515238Y-41961904D01*
X162467619Y-42057142D01*
X162420000Y-42104761D01*
X162324761Y-42152380D01*
X162229523Y-42152380D01*
X162134285Y-42104761D01*
X162086666Y-42057142D01*
X162039047Y-41961904D01*
X161991428Y-41771428D01*
X161991428Y-41533333D01*
X162039047Y-41342857D01*
X162086666Y-41247619D01*
X162134285Y-41200000D01*
X162229523Y-41152380D01*
%TO.C,J11*%
X108590476Y-146952380D02*
X108590476Y-147666666D01*
X108542857Y-147809523D01*
X108447619Y-147904761D01*
X108304761Y-147952380D01*
X108209523Y-147952380D01*
X109590476Y-147952380D02*
X109019047Y-147952380D01*
X109304761Y-147952380D02*
X109304761Y-146952380D01*
X109209523Y-147095238D01*
X109114285Y-147190476D01*
X109019047Y-147238095D01*
X110542857Y-147952380D02*
X109971428Y-147952380D01*
X110257142Y-147952380D02*
X110257142Y-146952380D01*
X110161904Y-147095238D01*
X110066666Y-147190476D01*
X109971428Y-147238095D01*
%TO.C,J12*%
X134590476Y-146952380D02*
X134590476Y-147666666D01*
X134542857Y-147809523D01*
X134447619Y-147904761D01*
X134304761Y-147952380D01*
X134209523Y-147952380D01*
X135590476Y-147952380D02*
X135019047Y-147952380D01*
X135304761Y-147952380D02*
X135304761Y-146952380D01*
X135209523Y-147095238D01*
X135114285Y-147190476D01*
X135019047Y-147238095D01*
X135971428Y-147047619D02*
X136019047Y-147000000D01*
X136114285Y-146952380D01*
X136352380Y-146952380D01*
X136447619Y-147000000D01*
X136495238Y-147047619D01*
X136542857Y-147142857D01*
X136542857Y-147238095D01*
X136495238Y-147380952D01*
X135923809Y-147952380D01*
X136542857Y-147952380D01*
%TO.C,J13*%
X160640476Y-146952380D02*
X160640476Y-147666666D01*
X160592857Y-147809523D01*
X160497619Y-147904761D01*
X160354761Y-147952380D01*
X160259523Y-147952380D01*
X161640476Y-147952380D02*
X161069047Y-147952380D01*
X161354761Y-147952380D02*
X161354761Y-146952380D01*
X161259523Y-147095238D01*
X161164285Y-147190476D01*
X161069047Y-147238095D01*
X161973809Y-146952380D02*
X162592857Y-146952380D01*
X162259523Y-147333333D01*
X162402380Y-147333333D01*
X162497619Y-147380952D01*
X162545238Y-147428571D01*
X162592857Y-147523809D01*
X162592857Y-147761904D01*
X162545238Y-147857142D01*
X162497619Y-147904761D01*
X162402380Y-147952380D01*
X162116666Y-147952380D01*
X162021428Y-147904761D01*
X161973809Y-147857142D01*
%TO.C,J14*%
X196990476Y-147452380D02*
X196990476Y-148166666D01*
X196942857Y-148309523D01*
X196847619Y-148404761D01*
X196704761Y-148452380D01*
X196609523Y-148452380D01*
X197990476Y-148452380D02*
X197419047Y-148452380D01*
X197704761Y-148452380D02*
X197704761Y-147452380D01*
X197609523Y-147595238D01*
X197514285Y-147690476D01*
X197419047Y-147738095D01*
X198847619Y-147785714D02*
X198847619Y-148452380D01*
X198609523Y-147404761D02*
X198371428Y-148119047D01*
X198990476Y-148119047D01*
X204000000Y-150652380D02*
X204000000Y-150890476D01*
X203761904Y-150795238D02*
X204000000Y-150890476D01*
X204238095Y-150795238D01*
X203857142Y-151080952D02*
X204000000Y-150890476D01*
X204142857Y-151080952D01*
%TO.C,J17*%
X217202380Y-98199523D02*
X217916666Y-98199523D01*
X218059523Y-98247142D01*
X218154761Y-98342380D01*
X218202380Y-98485238D01*
X218202380Y-98580476D01*
X218202380Y-97199523D02*
X218202380Y-97770952D01*
X218202380Y-97485238D02*
X217202380Y-97485238D01*
X217345238Y-97580476D01*
X217440476Y-97675714D01*
X217488095Y-97770952D01*
X217202380Y-96866190D02*
X217202380Y-96199523D01*
X218202380Y-96628095D01*
%TO.C,J18*%
X217202380Y-79059523D02*
X217916666Y-79059523D01*
X218059523Y-79107142D01*
X218154761Y-79202380D01*
X218202380Y-79345238D01*
X218202380Y-79440476D01*
X218202380Y-78059523D02*
X218202380Y-78630952D01*
X218202380Y-78345238D02*
X217202380Y-78345238D01*
X217345238Y-78440476D01*
X217440476Y-78535714D01*
X217488095Y-78630952D01*
X217630952Y-77488095D02*
X217583333Y-77583333D01*
X217535714Y-77630952D01*
X217440476Y-77678571D01*
X217392857Y-77678571D01*
X217297619Y-77630952D01*
X217250000Y-77583333D01*
X217202380Y-77488095D01*
X217202380Y-77297619D01*
X217250000Y-77202380D01*
X217297619Y-77154761D01*
X217392857Y-77107142D01*
X217440476Y-77107142D01*
X217535714Y-77154761D01*
X217583333Y-77202380D01*
X217630952Y-77297619D01*
X217630952Y-77488095D01*
X217678571Y-77583333D01*
X217726190Y-77630952D01*
X217821428Y-77678571D01*
X218011904Y-77678571D01*
X218107142Y-77630952D01*
X218154761Y-77583333D01*
X218202380Y-77488095D01*
X218202380Y-77297619D01*
X218154761Y-77202380D01*
X218107142Y-77154761D01*
X218011904Y-77107142D01*
X217821428Y-77107142D01*
X217726190Y-77154761D01*
X217678571Y-77202380D01*
X217630952Y-77297619D01*
%TO.C,J20*%
X215552380Y-91849523D02*
X216266666Y-91849523D01*
X216409523Y-91897142D01*
X216504761Y-91992380D01*
X216552380Y-92135238D01*
X216552380Y-92230476D01*
X215647619Y-91420952D02*
X215600000Y-91373333D01*
X215552380Y-91278095D01*
X215552380Y-91040000D01*
X215600000Y-90944761D01*
X215647619Y-90897142D01*
X215742857Y-90849523D01*
X215838095Y-90849523D01*
X215980952Y-90897142D01*
X216552380Y-91468571D01*
X216552380Y-90849523D01*
X215552380Y-90230476D02*
X215552380Y-90135238D01*
X215600000Y-90040000D01*
X215647619Y-89992380D01*
X215742857Y-89944761D01*
X215933333Y-89897142D01*
X216171428Y-89897142D01*
X216361904Y-89944761D01*
X216457142Y-89992380D01*
X216504761Y-90040000D01*
X216552380Y-90135238D01*
X216552380Y-90230476D01*
X216504761Y-90325714D01*
X216457142Y-90373333D01*
X216361904Y-90420952D01*
X216171428Y-90468571D01*
X215933333Y-90468571D01*
X215742857Y-90420952D01*
X215647619Y-90373333D01*
X215600000Y-90325714D01*
X215552380Y-90230476D01*
%TO.C,J21*%
X215552380Y-72799523D02*
X216266666Y-72799523D01*
X216409523Y-72847142D01*
X216504761Y-72942380D01*
X216552380Y-73085238D01*
X216552380Y-73180476D01*
X215647619Y-72370952D02*
X215600000Y-72323333D01*
X215552380Y-72228095D01*
X215552380Y-71990000D01*
X215600000Y-71894761D01*
X215647619Y-71847142D01*
X215742857Y-71799523D01*
X215838095Y-71799523D01*
X215980952Y-71847142D01*
X216552380Y-72418571D01*
X216552380Y-71799523D01*
X216552380Y-70847142D02*
X216552380Y-71418571D01*
X216552380Y-71132857D02*
X215552380Y-71132857D01*
X215695238Y-71228095D01*
X215790476Y-71323333D01*
X215838095Y-71418571D01*
%TO.C,J23*%
X217202380Y-116059523D02*
X217916666Y-116059523D01*
X218059523Y-116107142D01*
X218154761Y-116202380D01*
X218202380Y-116345238D01*
X218202380Y-116440476D01*
X217297619Y-115630952D02*
X217250000Y-115583333D01*
X217202380Y-115488095D01*
X217202380Y-115250000D01*
X217250000Y-115154761D01*
X217297619Y-115107142D01*
X217392857Y-115059523D01*
X217488095Y-115059523D01*
X217630952Y-115107142D01*
X218202380Y-115678571D01*
X218202380Y-115059523D01*
X217202380Y-114726190D02*
X217202380Y-114107142D01*
X217583333Y-114440476D01*
X217583333Y-114297619D01*
X217630952Y-114202380D01*
X217678571Y-114154761D01*
X217773809Y-114107142D01*
X218011904Y-114107142D01*
X218107142Y-114154761D01*
X218154761Y-114202380D01*
X218202380Y-114297619D01*
X218202380Y-114583333D01*
X218154761Y-114678571D01*
X218107142Y-114726190D01*
%TO.C,R3*%
X220213233Y-121972380D02*
X219879900Y-121496190D01*
X219641804Y-121972380D02*
X219641804Y-120972380D01*
X220022757Y-120972380D01*
X220117995Y-121020000D01*
X220165614Y-121067619D01*
X220213233Y-121162857D01*
X220213233Y-121305714D01*
X220165614Y-121400952D01*
X220117995Y-121448571D01*
X220022757Y-121496190D01*
X219641804Y-121496190D01*
X220546566Y-120972380D02*
X221165614Y-120972380D01*
X220832280Y-121353333D01*
X220975138Y-121353333D01*
X221070376Y-121400952D01*
X221117995Y-121448571D01*
X221165614Y-121543809D01*
X221165614Y-121781904D01*
X221117995Y-121877142D01*
X221070376Y-121924761D01*
X220975138Y-121972380D01*
X220689423Y-121972380D01*
X220594185Y-121924761D01*
X220546566Y-121877142D01*
%TO.C,R4*%
X220083333Y-103702380D02*
X219750000Y-103226190D01*
X219511904Y-103702380D02*
X219511904Y-102702380D01*
X219892857Y-102702380D01*
X219988095Y-102750000D01*
X220035714Y-102797619D01*
X220083333Y-102892857D01*
X220083333Y-103035714D01*
X220035714Y-103130952D01*
X219988095Y-103178571D01*
X219892857Y-103226190D01*
X219511904Y-103226190D01*
X220940476Y-103035714D02*
X220940476Y-103702380D01*
X220702380Y-102654761D02*
X220464285Y-103369047D01*
X221083333Y-103369047D01*
%TO.C,R5*%
X220213233Y-85142380D02*
X219879900Y-84666190D01*
X219641804Y-85142380D02*
X219641804Y-84142380D01*
X220022757Y-84142380D01*
X220117995Y-84190000D01*
X220165614Y-84237619D01*
X220213233Y-84332857D01*
X220213233Y-84475714D01*
X220165614Y-84570952D01*
X220117995Y-84618571D01*
X220022757Y-84666190D01*
X219641804Y-84666190D01*
X221117995Y-84142380D02*
X220641804Y-84142380D01*
X220594185Y-84618571D01*
X220641804Y-84570952D01*
X220737042Y-84523333D01*
X220975138Y-84523333D01*
X221070376Y-84570952D01*
X221117995Y-84618571D01*
X221165614Y-84713809D01*
X221165614Y-84951904D01*
X221117995Y-85047142D01*
X221070376Y-85094761D01*
X220975138Y-85142380D01*
X220737042Y-85142380D01*
X220641804Y-85094761D01*
X220594185Y-85047142D01*
%TO.C,U3*%
X199413081Y-111087282D02*
X199413081Y-111896826D01*
X199460702Y-111992066D01*
X199508322Y-112039686D01*
X199603562Y-112087306D01*
X199794043Y-112087306D01*
X199889283Y-112039686D01*
X199936904Y-111992066D01*
X199984524Y-111896826D01*
X199984524Y-111087282D01*
X200365485Y-111087282D02*
X200984548Y-111087282D01*
X200651206Y-111468244D01*
X200794067Y-111468244D01*
X200889307Y-111515864D01*
X200936928Y-111563484D01*
X200984548Y-111658725D01*
X200984548Y-111896826D01*
X200936928Y-111992066D01*
X200889307Y-112039686D01*
X200794067Y-112087306D01*
X200508346Y-112087306D01*
X200413105Y-112039686D01*
X200365485Y-111992066D01*
%TO.C,U4*%
X199238076Y-89237282D02*
X199238076Y-90046826D01*
X199285697Y-90142066D01*
X199333317Y-90189686D01*
X199428557Y-90237306D01*
X199619038Y-90237306D01*
X199714278Y-90189686D01*
X199761899Y-90142066D01*
X199809519Y-90046826D01*
X199809519Y-89237282D01*
X200714302Y-89570624D02*
X200714302Y-90237306D01*
X200476201Y-89189662D02*
X200238100Y-89903965D01*
X200857163Y-89903965D01*
%TO.C,U5*%
X199413081Y-75637282D02*
X199413081Y-76446826D01*
X199460702Y-76542066D01*
X199508322Y-76589686D01*
X199603562Y-76637306D01*
X199794043Y-76637306D01*
X199889283Y-76589686D01*
X199936904Y-76542066D01*
X199984524Y-76446826D01*
X199984524Y-75637282D01*
X200936928Y-75637282D02*
X200460726Y-75637282D01*
X200413105Y-76113484D01*
X200460726Y-76065864D01*
X200555966Y-76018244D01*
X200794067Y-76018244D01*
X200889307Y-76065864D01*
X200936928Y-76113484D01*
X200984548Y-76208725D01*
X200984548Y-76446826D01*
X200936928Y-76542066D01*
X200889307Y-76589686D01*
X200794067Y-76637306D01*
X200555966Y-76637306D01*
X200460726Y-76589686D01*
X200413105Y-76542066D01*
%TO.C,J31*%
X83465475Y-41102380D02*
X83465475Y-41816666D01*
X83417856Y-41959523D01*
X83322618Y-42054761D01*
X83179760Y-42102380D01*
X83084522Y-42102380D01*
X83846427Y-41102380D02*
X84465475Y-41102380D01*
X84132141Y-41483333D01*
X84274999Y-41483333D01*
X84370237Y-41530952D01*
X84417856Y-41578571D01*
X84465475Y-41673809D01*
X84465475Y-41911904D01*
X84417856Y-42007142D01*
X84370237Y-42054761D01*
X84274999Y-42102380D01*
X83989284Y-42102380D01*
X83894046Y-42054761D01*
X83846427Y-42007142D01*
X85417856Y-42102380D02*
X84846427Y-42102380D01*
X85132141Y-42102380D02*
X85132141Y-41102380D01*
X85036903Y-41245238D01*
X84941665Y-41340476D01*
X84846427Y-41388095D01*
%TO.C,J32*%
X83440476Y-50302380D02*
X83440476Y-51016666D01*
X83392857Y-51159523D01*
X83297619Y-51254761D01*
X83154761Y-51302380D01*
X83059523Y-51302380D01*
X83821428Y-50302380D02*
X84440476Y-50302380D01*
X84107142Y-50683333D01*
X84250000Y-50683333D01*
X84345238Y-50730952D01*
X84392857Y-50778571D01*
X84440476Y-50873809D01*
X84440476Y-51111904D01*
X84392857Y-51207142D01*
X84345238Y-51254761D01*
X84250000Y-51302380D01*
X83964285Y-51302380D01*
X83869047Y-51254761D01*
X83821428Y-51207142D01*
X84821428Y-50397619D02*
X84869047Y-50350000D01*
X84964285Y-50302380D01*
X85202380Y-50302380D01*
X85297619Y-50350000D01*
X85345238Y-50397619D01*
X85392857Y-50492857D01*
X85392857Y-50588095D01*
X85345238Y-50730952D01*
X84773809Y-51302380D01*
X85392857Y-51302380D01*
%TD*%
M02*
