%TF.GenerationSoftware,KiCad,Pcbnew,(5.1.12)-1*%
%TF.CreationDate,2022-02-06T21:24:49-08:00*%
%TF.ProjectId,DriverBoard,44726976-6572-4426-9f61-72642e6b6963,rev?*%
%TF.SameCoordinates,Original*%
%TF.FileFunction,Soldermask,Top*%
%TF.FilePolarity,Negative*%
%FSLAX46Y46*%
G04 Gerber Fmt 4.6, Leading zero omitted, Abs format (unit mm)*
G04 Created by KiCad (PCBNEW (5.1.12)-1) date 2022-02-06 21:24:49*
%MOMM*%
%LPD*%
G01*
G04 APERTURE LIST*
%ADD10C,5.000000*%
%ADD11C,1.200000*%
%ADD12O,1.700000X1.950000*%
%ADD13C,1.530000*%
%ADD14C,3.200000*%
%ADD15R,1.530000X1.530000*%
%ADD16R,0.863600X0.965200*%
%ADD17O,1.950000X1.700000*%
%ADD18C,1.508000*%
%ADD19R,1.508000X1.508000*%
%ADD20R,0.965200X0.863600*%
%ADD21R,1.780000X3.150000*%
%ADD22C,1.498600*%
%ADD23R,1.700000X1.700000*%
%ADD24O,1.700000X1.700000*%
%ADD25R,1.500000X0.600000*%
G04 APERTURE END LIST*
D10*
%TO.C,Hole*%
X75000000Y-157450000D03*
%TD*%
D11*
%TO.C,J25*%
X184100000Y-56800000D03*
D12*
X193200000Y-54800000D03*
X190700000Y-54800000D03*
X188200000Y-54800000D03*
G36*
G01*
X184850000Y-55525000D02*
X184850000Y-54075000D01*
G75*
G02*
X185100000Y-53825000I250000J0D01*
G01*
X186300000Y-53825000D01*
G75*
G02*
X186550000Y-54075000I0J-250000D01*
G01*
X186550000Y-55525000D01*
G75*
G02*
X186300000Y-55775000I-250000J0D01*
G01*
X185100000Y-55775000D01*
G75*
G02*
X184850000Y-55525000I0J250000D01*
G01*
G37*
%TD*%
D11*
%TO.C,J5*%
X135800000Y-56800000D03*
D12*
X144900000Y-54800000D03*
X142400000Y-54800000D03*
X139900000Y-54800000D03*
G36*
G01*
X136550000Y-55525000D02*
X136550000Y-54075000D01*
G75*
G02*
X136800000Y-53825000I250000J0D01*
G01*
X138000000Y-53825000D01*
G75*
G02*
X138250000Y-54075000I0J-250000D01*
G01*
X138250000Y-55525000D01*
G75*
G02*
X138000000Y-55775000I-250000J0D01*
G01*
X136800000Y-55775000D01*
G75*
G02*
X136550000Y-55525000I0J250000D01*
G01*
G37*
%TD*%
D13*
%TO.C,U1*%
X200245000Y-66910000D03*
X200245000Y-69450000D03*
X197705000Y-66910000D03*
X197705000Y-69450000D03*
X195165000Y-66910000D03*
X195165000Y-69450000D03*
X192625000Y-66910000D03*
X192625000Y-69450000D03*
X190085000Y-66910000D03*
X190085000Y-69450000D03*
X187545000Y-66910000D03*
X187545000Y-69450000D03*
X185005000Y-66910000D03*
X185005000Y-69450000D03*
X182465000Y-66910000D03*
X182465000Y-69450000D03*
X179925000Y-66910000D03*
X179925000Y-69450000D03*
X177385000Y-66910000D03*
X177385000Y-69450000D03*
X174845000Y-66910000D03*
X174845000Y-69450000D03*
X172305000Y-66910000D03*
X172305000Y-69450000D03*
X169765000Y-66910000D03*
X169765000Y-69450000D03*
X167225000Y-66910000D03*
X167225000Y-69450000D03*
X164685000Y-66910000D03*
X164685000Y-69450000D03*
X162145000Y-66910000D03*
X162145000Y-69450000D03*
X159605000Y-66910000D03*
X159605000Y-69450000D03*
X157065000Y-66910000D03*
X157065000Y-69450000D03*
X154525000Y-66910000D03*
X154525000Y-69450000D03*
X151985000Y-66910000D03*
X151985000Y-69450000D03*
X149445000Y-66910000D03*
X149445000Y-69450000D03*
X146905000Y-66910000D03*
X146905000Y-69450000D03*
X144365000Y-66910000D03*
X144365000Y-69450000D03*
X141825000Y-66910000D03*
X141825000Y-69450000D03*
X139285000Y-66910000D03*
X139285000Y-69450000D03*
X136745000Y-66910000D03*
X136745000Y-69450000D03*
X134205000Y-66910000D03*
X134205000Y-69450000D03*
X131665000Y-66910000D03*
X131665000Y-69450000D03*
X129125000Y-66910000D03*
X129125000Y-69450000D03*
X126585000Y-66910000D03*
X126585000Y-69450000D03*
X124045000Y-66910000D03*
X124045000Y-69450000D03*
X121505000Y-66910000D03*
X121505000Y-69450000D03*
X118965000Y-66910000D03*
X118965000Y-69450000D03*
X116425000Y-66910000D03*
X116425000Y-69450000D03*
X113885000Y-66910000D03*
X113885000Y-69450000D03*
X179905000Y-74530000D03*
X179905000Y-77070000D03*
X179905000Y-120250000D03*
X179905000Y-122790000D03*
X135201000Y-74530000D03*
X135201000Y-77070000D03*
X132661000Y-74530000D03*
X132661000Y-77070000D03*
X130121000Y-74530000D03*
X130121000Y-77070000D03*
X127581000Y-74530000D03*
X127581000Y-77070000D03*
X125041000Y-74530000D03*
X125041000Y-77070000D03*
X122501000Y-74530000D03*
X122501000Y-77070000D03*
X119961000Y-74530000D03*
X119961000Y-77070000D03*
X117421000Y-74530000D03*
X117421000Y-77070000D03*
X114881000Y-74530000D03*
X114881000Y-77070000D03*
D14*
X107515000Y-122790000D03*
X159585000Y-89770000D03*
X108785000Y-74530000D03*
D13*
X200225000Y-127870000D03*
X200225000Y-130410000D03*
X177365000Y-74530000D03*
X177365000Y-77070000D03*
X174825000Y-74530000D03*
X174825000Y-77070000D03*
X172285000Y-74530000D03*
X172285000Y-77070000D03*
X169745000Y-74530000D03*
X169745000Y-77070000D03*
X167205000Y-74530000D03*
X167205000Y-77070000D03*
X164665000Y-74530000D03*
X164665000Y-77070000D03*
X162125000Y-74530000D03*
X162125000Y-77070000D03*
X159585000Y-74530000D03*
X159585000Y-77070000D03*
D14*
X183715000Y-75800000D03*
D13*
X157045000Y-74530000D03*
X157045000Y-77070000D03*
X154505000Y-74530000D03*
X154505000Y-77070000D03*
X151965000Y-74530000D03*
X151965000Y-77070000D03*
X149425000Y-74530000D03*
X149425000Y-77070000D03*
X146885000Y-74530000D03*
X146885000Y-77070000D03*
X144345000Y-74530000D03*
X144345000Y-77070000D03*
X141805000Y-74530000D03*
X141805000Y-77070000D03*
X139265000Y-74530000D03*
D15*
X139265000Y-77070000D03*
D13*
X112341000Y-74530000D03*
D15*
X112341000Y-77070000D03*
D14*
X183715000Y-121520000D03*
D13*
X177365000Y-120250000D03*
X177365000Y-122790000D03*
X174825000Y-120250000D03*
X174825000Y-122790000D03*
X172285000Y-120250000D03*
X172285000Y-122790000D03*
X169745000Y-120250000D03*
X169745000Y-122790000D03*
X167205000Y-120250000D03*
X167205000Y-122790000D03*
X164665000Y-120250000D03*
X164665000Y-122790000D03*
X162125000Y-120250000D03*
X162125000Y-122790000D03*
X159585000Y-120250000D03*
X159585000Y-122790000D03*
X157045000Y-120250000D03*
X157045000Y-122790000D03*
X154505000Y-120250000D03*
X154505000Y-122790000D03*
X151965000Y-120250000D03*
X151965000Y-122790000D03*
X149425000Y-120250000D03*
X149425000Y-122790000D03*
X146885000Y-120250000D03*
X146885000Y-122790000D03*
X144345000Y-120250000D03*
D15*
X144345000Y-122790000D03*
D13*
X139265000Y-120250000D03*
X139265000Y-122790000D03*
X136725000Y-120250000D03*
X136725000Y-122790000D03*
X134185000Y-120250000D03*
X134185000Y-122790000D03*
X131645000Y-120250000D03*
X131645000Y-122790000D03*
X129105000Y-120250000D03*
X129105000Y-122790000D03*
X126565000Y-120250000D03*
X126565000Y-122790000D03*
X124025000Y-120250000D03*
X124025000Y-122790000D03*
X121485000Y-120250000D03*
D15*
X121485000Y-122790000D03*
D13*
X111345000Y-66910000D03*
D15*
X111345000Y-69450000D03*
D13*
X197685000Y-127870000D03*
X197685000Y-130410000D03*
X195145000Y-127870000D03*
X195145000Y-130410000D03*
X192605000Y-127870000D03*
X192605000Y-130410000D03*
X190065000Y-127870000D03*
X190065000Y-130410000D03*
X187525000Y-127870000D03*
X187525000Y-130410000D03*
X184985000Y-127870000D03*
X184985000Y-130410000D03*
X182445000Y-127870000D03*
X182445000Y-130410000D03*
X179905000Y-127870000D03*
X179905000Y-130410000D03*
X177365000Y-127870000D03*
X177365000Y-130410000D03*
X174825000Y-127870000D03*
X174825000Y-130410000D03*
X172285000Y-127870000D03*
X172285000Y-130410000D03*
X169745000Y-127870000D03*
X169745000Y-130410000D03*
X167205000Y-127870000D03*
X167205000Y-130410000D03*
X164665000Y-127870000D03*
X164665000Y-130410000D03*
X162125000Y-127870000D03*
X162125000Y-130410000D03*
X159585000Y-127870000D03*
X159585000Y-130410000D03*
X157045000Y-127870000D03*
X157045000Y-130410000D03*
X154505000Y-127870000D03*
X154505000Y-130410000D03*
X151965000Y-127870000D03*
X151965000Y-130410000D03*
X149425000Y-127870000D03*
X149425000Y-130410000D03*
X146885000Y-127870000D03*
X146885000Y-130410000D03*
X144345000Y-127870000D03*
X144345000Y-130410000D03*
X141805000Y-127870000D03*
X141805000Y-130410000D03*
X139265000Y-127870000D03*
X139265000Y-130410000D03*
X136725000Y-127870000D03*
X136725000Y-130410000D03*
X134185000Y-127870000D03*
X134185000Y-130410000D03*
X131645000Y-127870000D03*
X131645000Y-130410000D03*
X129105000Y-127870000D03*
X129105000Y-130410000D03*
X126565000Y-127870000D03*
X126565000Y-130410000D03*
X124025000Y-127870000D03*
X124025000Y-130410000D03*
X121485000Y-127870000D03*
X121485000Y-130410000D03*
X118945000Y-127870000D03*
X118945000Y-130410000D03*
X116405000Y-127870000D03*
X116405000Y-130410000D03*
X113865000Y-127870000D03*
X113865000Y-130410000D03*
X111325000Y-127870000D03*
D15*
X111325000Y-130410000D03*
%TD*%
D10*
%TO.C,Hole*%
X229900000Y-41900000D03*
%TD*%
%TO.C,Hole*%
X229900000Y-157500000D03*
%TD*%
D16*
%TO.C,R2*%
X222900000Y-48400000D03*
X221299800Y-48400000D03*
%TD*%
%TO.C,R1*%
X221299800Y-58900000D03*
X222900000Y-58900000D03*
%TD*%
D10*
%TO.C,*%
X75000000Y-41900000D03*
%TD*%
D11*
%TO.C,J30*%
X98500000Y-150600000D03*
D17*
X96500000Y-141500000D03*
X96500000Y-144000000D03*
X96500000Y-146500000D03*
G36*
G01*
X97225000Y-149850000D02*
X95775000Y-149850000D01*
G75*
G02*
X95525000Y-149600000I0J250000D01*
G01*
X95525000Y-148400000D01*
G75*
G02*
X95775000Y-148150000I250000J0D01*
G01*
X97225000Y-148150000D01*
G75*
G02*
X97475000Y-148400000I0J-250000D01*
G01*
X97475000Y-149600000D01*
G75*
G02*
X97225000Y-149850000I-250000J0D01*
G01*
G37*
%TD*%
D11*
%TO.C,J29*%
X151900000Y-56800000D03*
D12*
X161000000Y-54800000D03*
X158500000Y-54800000D03*
X156000000Y-54800000D03*
G36*
G01*
X152650000Y-55525000D02*
X152650000Y-54075000D01*
G75*
G02*
X152900000Y-53825000I250000J0D01*
G01*
X154100000Y-53825000D01*
G75*
G02*
X154350000Y-54075000I0J-250000D01*
G01*
X154350000Y-55525000D01*
G75*
G02*
X154100000Y-55775000I-250000J0D01*
G01*
X152900000Y-55775000D01*
G75*
G02*
X152650000Y-55525000I0J250000D01*
G01*
G37*
%TD*%
D11*
%TO.C,J28*%
X184100000Y-143800000D03*
D12*
X193200000Y-141800000D03*
X190700000Y-141800000D03*
X188200000Y-141800000D03*
G36*
G01*
X184850000Y-142525000D02*
X184850000Y-141075000D01*
G75*
G02*
X185100000Y-140825000I250000J0D01*
G01*
X186300000Y-140825000D01*
G75*
G02*
X186550000Y-141075000I0J-250000D01*
G01*
X186550000Y-142525000D01*
G75*
G02*
X186300000Y-142775000I-250000J0D01*
G01*
X185100000Y-142775000D01*
G75*
G02*
X184850000Y-142525000I0J250000D01*
G01*
G37*
%TD*%
D11*
%TO.C,J27*%
X168000000Y-143700000D03*
D12*
X177100000Y-141700000D03*
X174600000Y-141700000D03*
X172100000Y-141700000D03*
G36*
G01*
X168750000Y-142425000D02*
X168750000Y-140975000D01*
G75*
G02*
X169000000Y-140725000I250000J0D01*
G01*
X170200000Y-140725000D01*
G75*
G02*
X170450000Y-140975000I0J-250000D01*
G01*
X170450000Y-142425000D01*
G75*
G02*
X170200000Y-142675000I-250000J0D01*
G01*
X169000000Y-142675000D01*
G75*
G02*
X168750000Y-142425000I0J250000D01*
G01*
G37*
%TD*%
D11*
%TO.C,J26*%
X151900000Y-143700000D03*
D12*
X161000000Y-141700000D03*
X158500000Y-141700000D03*
X156000000Y-141700000D03*
G36*
G01*
X152650000Y-142425000D02*
X152650000Y-140975000D01*
G75*
G02*
X152900000Y-140725000I250000J0D01*
G01*
X154100000Y-140725000D01*
G75*
G02*
X154350000Y-140975000I0J-250000D01*
G01*
X154350000Y-142425000D01*
G75*
G02*
X154100000Y-142675000I-250000J0D01*
G01*
X152900000Y-142675000D01*
G75*
G02*
X152650000Y-142425000I0J250000D01*
G01*
G37*
%TD*%
D11*
%TO.C,J24*%
X168000000Y-56800000D03*
D12*
X177100000Y-54800000D03*
X174600000Y-54800000D03*
X172100000Y-54800000D03*
G36*
G01*
X168750000Y-55525000D02*
X168750000Y-54075000D01*
G75*
G02*
X169000000Y-53825000I250000J0D01*
G01*
X170200000Y-53825000D01*
G75*
G02*
X170450000Y-54075000I0J-250000D01*
G01*
X170450000Y-55525000D01*
G75*
G02*
X170200000Y-55775000I-250000J0D01*
G01*
X169000000Y-55775000D01*
G75*
G02*
X168750000Y-55525000I0J250000D01*
G01*
G37*
%TD*%
%TO.C,J15*%
G36*
G01*
X221475000Y-146350000D02*
X220025000Y-146350000D01*
G75*
G02*
X219775000Y-146100000I0J250000D01*
G01*
X219775000Y-144900000D01*
G75*
G02*
X220025000Y-144650000I250000J0D01*
G01*
X221475000Y-144650000D01*
G75*
G02*
X221725000Y-144900000I0J-250000D01*
G01*
X221725000Y-146100000D01*
G75*
G02*
X221475000Y-146350000I-250000J0D01*
G01*
G37*
D17*
X220750000Y-143000000D03*
X220750000Y-140500000D03*
X220750000Y-138000000D03*
X220750000Y-135500000D03*
X220750000Y-133000000D03*
X220750000Y-130500000D03*
X220750000Y-128000000D03*
D11*
X222750000Y-147100000D03*
%TD*%
%TO.C,J9*%
X137700000Y-47100000D03*
D12*
X156800000Y-45100000D03*
X154300000Y-45100000D03*
X151800000Y-45100000D03*
X149300000Y-45100000D03*
X146800000Y-45100000D03*
X144300000Y-45100000D03*
X141800000Y-45100000D03*
G36*
G01*
X138450000Y-45825000D02*
X138450000Y-44375000D01*
G75*
G02*
X138700000Y-44125000I250000J0D01*
G01*
X139900000Y-44125000D01*
G75*
G02*
X140150000Y-44375000I0J-250000D01*
G01*
X140150000Y-45825000D01*
G75*
G02*
X139900000Y-46075000I-250000J0D01*
G01*
X138700000Y-46075000D01*
G75*
G02*
X138450000Y-45825000I0J250000D01*
G01*
G37*
%TD*%
D18*
%TO.C,J19*%
X219910000Y-107570000D03*
D19*
X219910000Y-110070000D03*
%TD*%
D11*
%TO.C,J1*%
X103700000Y-56600000D03*
D12*
X112800000Y-54600000D03*
X110300000Y-54600000D03*
X107800000Y-54600000D03*
G36*
G01*
X104450000Y-55325000D02*
X104450000Y-53875000D01*
G75*
G02*
X104700000Y-53625000I250000J0D01*
G01*
X105900000Y-53625000D01*
G75*
G02*
X106150000Y-53875000I0J-250000D01*
G01*
X106150000Y-55325000D01*
G75*
G02*
X105900000Y-55575000I-250000J0D01*
G01*
X104700000Y-55575000D01*
G75*
G02*
X104450000Y-55325000I0J250000D01*
G01*
G37*
%TD*%
D11*
%TO.C,J2*%
X103700000Y-143700000D03*
D12*
X112800000Y-141700000D03*
X110300000Y-141700000D03*
X107800000Y-141700000D03*
G36*
G01*
X104450000Y-142425000D02*
X104450000Y-140975000D01*
G75*
G02*
X104700000Y-140725000I250000J0D01*
G01*
X105900000Y-140725000D01*
G75*
G02*
X106150000Y-140975000I0J-250000D01*
G01*
X106150000Y-142425000D01*
G75*
G02*
X105900000Y-142675000I-250000J0D01*
G01*
X104700000Y-142675000D01*
G75*
G02*
X104450000Y-142425000I0J250000D01*
G01*
G37*
%TD*%
D11*
%TO.C,J3*%
X119800000Y-56800000D03*
D12*
X128900000Y-54800000D03*
X126400000Y-54800000D03*
X123900000Y-54800000D03*
G36*
G01*
X120550000Y-55525000D02*
X120550000Y-54075000D01*
G75*
G02*
X120800000Y-53825000I250000J0D01*
G01*
X122000000Y-53825000D01*
G75*
G02*
X122250000Y-54075000I0J-250000D01*
G01*
X122250000Y-55525000D01*
G75*
G02*
X122000000Y-55775000I-250000J0D01*
G01*
X120800000Y-55775000D01*
G75*
G02*
X120550000Y-55525000I0J250000D01*
G01*
G37*
%TD*%
D11*
%TO.C,J4*%
X119800000Y-143700000D03*
D12*
X128900000Y-141700000D03*
X126400000Y-141700000D03*
X123900000Y-141700000D03*
G36*
G01*
X120550000Y-142425000D02*
X120550000Y-140975000D01*
G75*
G02*
X120800000Y-140725000I250000J0D01*
G01*
X122000000Y-140725000D01*
G75*
G02*
X122250000Y-140975000I0J-250000D01*
G01*
X122250000Y-142425000D01*
G75*
G02*
X122000000Y-142675000I-250000J0D01*
G01*
X120800000Y-142675000D01*
G75*
G02*
X120550000Y-142425000I0J250000D01*
G01*
G37*
%TD*%
D11*
%TO.C,J6*%
X135800000Y-143700000D03*
D12*
X144900000Y-141700000D03*
X142400000Y-141700000D03*
X139900000Y-141700000D03*
G36*
G01*
X136550000Y-142425000D02*
X136550000Y-140975000D01*
G75*
G02*
X136800000Y-140725000I250000J0D01*
G01*
X138000000Y-140725000D01*
G75*
G02*
X138250000Y-140975000I0J-250000D01*
G01*
X138250000Y-142425000D01*
G75*
G02*
X138000000Y-142675000I-250000J0D01*
G01*
X136800000Y-142675000D01*
G75*
G02*
X136550000Y-142425000I0J250000D01*
G01*
G37*
%TD*%
D20*
%TO.C,C5*%
X205940000Y-98100200D03*
X205940000Y-96500000D03*
%TD*%
%TO.C,C1*%
X205940000Y-118649800D03*
X205940000Y-120250000D03*
%TD*%
%TO.C,C2*%
X199800000Y-123000200D03*
X199800000Y-121400000D03*
%TD*%
%TO.C,C3*%
X199800000Y-99899800D03*
X199800000Y-101500000D03*
%TD*%
%TO.C,C4*%
X199800000Y-84999900D03*
X199800000Y-86600100D03*
%TD*%
%TO.C,C6*%
X205940000Y-85130200D03*
X205940000Y-83530000D03*
%TD*%
D21*
%TO.C,D1*%
X216700000Y-58800000D03*
X211470000Y-58800000D03*
%TD*%
%TO.C,D2*%
X211470000Y-48500000D03*
X216700000Y-48500000D03*
%TD*%
D22*
%TO.C,J7*%
X191500002Y-45000000D03*
X194000000Y-45000000D03*
X196500000Y-45000000D03*
X199000000Y-45000000D03*
X201500000Y-45000000D03*
X204000000Y-45000000D03*
%TD*%
%TO.C,J8*%
G36*
G01*
X112450000Y-45925000D02*
X112450000Y-44475000D01*
G75*
G02*
X112700000Y-44225000I250000J0D01*
G01*
X113900000Y-44225000D01*
G75*
G02*
X114150000Y-44475000I0J-250000D01*
G01*
X114150000Y-45925000D01*
G75*
G02*
X113900000Y-46175000I-250000J0D01*
G01*
X112700000Y-46175000D01*
G75*
G02*
X112450000Y-45925000I0J250000D01*
G01*
G37*
D12*
X115800000Y-45200000D03*
X118300000Y-45200000D03*
X120800000Y-45200000D03*
X123300000Y-45200000D03*
X125800000Y-45200000D03*
X128300000Y-45200000D03*
X130800000Y-45200000D03*
D11*
X111700000Y-47200000D03*
%TD*%
%TO.C,J10*%
G36*
G01*
X164550000Y-45725000D02*
X164550000Y-44275000D01*
G75*
G02*
X164800000Y-44025000I250000J0D01*
G01*
X166000000Y-44025000D01*
G75*
G02*
X166250000Y-44275000I0J-250000D01*
G01*
X166250000Y-45725000D01*
G75*
G02*
X166000000Y-45975000I-250000J0D01*
G01*
X164800000Y-45975000D01*
G75*
G02*
X164550000Y-45725000I0J250000D01*
G01*
G37*
D12*
X167900000Y-45000000D03*
X170400000Y-45000000D03*
X172900000Y-45000000D03*
X175400000Y-45000000D03*
X177900000Y-45000000D03*
X180400000Y-45000000D03*
X182900000Y-45000000D03*
D11*
X163800000Y-47000000D03*
%TD*%
%TO.C,J11*%
X111700000Y-153200000D03*
D12*
X130800000Y-151200000D03*
X128300000Y-151200000D03*
X125800000Y-151200000D03*
X123300000Y-151200000D03*
X120800000Y-151200000D03*
X118300000Y-151200000D03*
X115800000Y-151200000D03*
G36*
G01*
X112450000Y-151925000D02*
X112450000Y-150475000D01*
G75*
G02*
X112700000Y-150225000I250000J0D01*
G01*
X113900000Y-150225000D01*
G75*
G02*
X114150000Y-150475000I0J-250000D01*
G01*
X114150000Y-151925000D01*
G75*
G02*
X113900000Y-152175000I-250000J0D01*
G01*
X112700000Y-152175000D01*
G75*
G02*
X112450000Y-151925000I0J250000D01*
G01*
G37*
%TD*%
%TO.C,J12*%
G36*
G01*
X138450000Y-151925000D02*
X138450000Y-150475000D01*
G75*
G02*
X138700000Y-150225000I250000J0D01*
G01*
X139900000Y-150225000D01*
G75*
G02*
X140150000Y-150475000I0J-250000D01*
G01*
X140150000Y-151925000D01*
G75*
G02*
X139900000Y-152175000I-250000J0D01*
G01*
X138700000Y-152175000D01*
G75*
G02*
X138450000Y-151925000I0J250000D01*
G01*
G37*
X141800000Y-151200000D03*
X144300000Y-151200000D03*
X146800000Y-151200000D03*
X149300000Y-151200000D03*
X151800000Y-151200000D03*
X154300000Y-151200000D03*
X156800000Y-151200000D03*
D11*
X137700000Y-153200000D03*
%TD*%
%TO.C,J13*%
X163800000Y-153200000D03*
D12*
X182900000Y-151200000D03*
X180400000Y-151200000D03*
X177900000Y-151200000D03*
X175400000Y-151200000D03*
X172900000Y-151200000D03*
X170400000Y-151200000D03*
X167900000Y-151200000D03*
G36*
G01*
X164550000Y-151925000D02*
X164550000Y-150475000D01*
G75*
G02*
X164800000Y-150225000I250000J0D01*
G01*
X166000000Y-150225000D01*
G75*
G02*
X166250000Y-150475000I0J-250000D01*
G01*
X166250000Y-151925000D01*
G75*
G02*
X166000000Y-152175000I-250000J0D01*
G01*
X164800000Y-152175000D01*
G75*
G02*
X164550000Y-151925000I0J250000D01*
G01*
G37*
%TD*%
D22*
%TO.C,J14*%
X191500002Y-151200000D03*
X194000000Y-151200000D03*
X196500000Y-151200000D03*
X199000000Y-151200000D03*
X201500000Y-151200000D03*
X204000000Y-151200000D03*
%TD*%
D23*
%TO.C,J17*%
X222450000Y-97390000D03*
D24*
X219910000Y-97390000D03*
%TD*%
%TO.C,J18*%
X219910000Y-78340000D03*
D23*
X222450000Y-78340000D03*
%TD*%
D19*
%TO.C,J20*%
X219910000Y-92290000D03*
D18*
X219910000Y-89790000D03*
%TD*%
%TO.C,J21*%
X219910000Y-70740000D03*
D19*
X219910000Y-73240000D03*
%TD*%
D24*
%TO.C,J23*%
X219910000Y-115170000D03*
D23*
X222450000Y-115170000D03*
%TD*%
D16*
%TO.C,R3*%
X221180000Y-118980000D03*
X219579800Y-118980000D03*
%TD*%
%TO.C,R4*%
X221180000Y-101200000D03*
X219579800Y-101200000D03*
%TD*%
%TO.C,R5*%
X219579800Y-82150000D03*
X221180000Y-82150000D03*
%TD*%
D25*
%TO.C,U3*%
X197350000Y-113265000D03*
X197350000Y-114535000D03*
X197350000Y-115805000D03*
X197350000Y-117075000D03*
X202650000Y-117075000D03*
X202650000Y-115805000D03*
X202650000Y-114535000D03*
X202650000Y-113265000D03*
%TD*%
%TO.C,U4*%
X202650000Y-91415000D03*
X202650000Y-92685000D03*
X202650000Y-93955000D03*
X202650000Y-95225000D03*
X197350000Y-95225000D03*
X197350000Y-93955000D03*
X197350000Y-92685000D03*
X197350000Y-91415000D03*
%TD*%
%TO.C,U5*%
X197350000Y-77815000D03*
X197350000Y-79085000D03*
X197350000Y-80355000D03*
X197350000Y-81625000D03*
X202650000Y-81625000D03*
X202650000Y-80355000D03*
X202650000Y-79085000D03*
X202650000Y-77815000D03*
%TD*%
D11*
%TO.C,J31*%
X86400000Y-47200000D03*
D12*
X93000000Y-45200000D03*
X90500000Y-45200000D03*
G36*
G01*
X87150000Y-45925000D02*
X87150000Y-44475000D01*
G75*
G02*
X87400000Y-44225000I250000J0D01*
G01*
X88600000Y-44225000D01*
G75*
G02*
X88850000Y-44475000I0J-250000D01*
G01*
X88850000Y-45925000D01*
G75*
G02*
X88600000Y-46175000I-250000J0D01*
G01*
X87400000Y-46175000D01*
G75*
G02*
X87150000Y-45925000I0J250000D01*
G01*
G37*
%TD*%
%TO.C,J32*%
G36*
G01*
X87150000Y-55325000D02*
X87150000Y-53875000D01*
G75*
G02*
X87400000Y-53625000I250000J0D01*
G01*
X88600000Y-53625000D01*
G75*
G02*
X88850000Y-53875000I0J-250000D01*
G01*
X88850000Y-55325000D01*
G75*
G02*
X88600000Y-55575000I-250000J0D01*
G01*
X87400000Y-55575000D01*
G75*
G02*
X87150000Y-55325000I0J250000D01*
G01*
G37*
X90500000Y-54600000D03*
X93000000Y-54600000D03*
D11*
X86400000Y-56600000D03*
%TD*%
M02*
