%TF.GenerationSoftware,KiCad,Pcbnew,(5.1.12)-1*%
%TF.CreationDate,2022-02-06T21:24:49-08:00*%
%TF.ProjectId,DriverBoard,44726976-6572-4426-9f61-72642e6b6963,rev?*%
%TF.SameCoordinates,Original*%
%TF.FileFunction,Copper,L4,Bot*%
%TF.FilePolarity,Positive*%
%FSLAX46Y46*%
G04 Gerber Fmt 4.6, Leading zero omitted, Abs format (unit mm)*
G04 Created by KiCad (PCBNEW (5.1.12)-1) date 2022-02-06 21:24:49*
%MOMM*%
%LPD*%
G01*
G04 APERTURE LIST*
%TA.AperFunction,ComponentPad*%
%ADD10C,5.000000*%
%TD*%
%TA.AperFunction,ComponentPad*%
%ADD11O,1.700000X1.950000*%
%TD*%
%TA.AperFunction,ComponentPad*%
%ADD12C,1.530000*%
%TD*%
%TA.AperFunction,ComponentPad*%
%ADD13R,1.530000X1.530000*%
%TD*%
%TA.AperFunction,ComponentPad*%
%ADD14O,1.950000X1.700000*%
%TD*%
%TA.AperFunction,ComponentPad*%
%ADD15C,1.508000*%
%TD*%
%TA.AperFunction,ComponentPad*%
%ADD16R,1.508000X1.508000*%
%TD*%
%TA.AperFunction,ComponentPad*%
%ADD17C,1.498600*%
%TD*%
%TA.AperFunction,ComponentPad*%
%ADD18R,1.700000X1.700000*%
%TD*%
%TA.AperFunction,ComponentPad*%
%ADD19O,1.700000X1.700000*%
%TD*%
%TA.AperFunction,ViaPad*%
%ADD20C,0.800000*%
%TD*%
%TA.AperFunction,Conductor*%
%ADD21C,0.250000*%
%TD*%
G04 APERTURE END LIST*
D10*
%TO.P,Hole,1*%
%TO.N,N/C*%
X75000000Y-157450000D03*
%TD*%
D11*
%TO.P,J25,4*%
%TO.N,+5V*%
X193200000Y-54800000D03*
%TO.P,J25,3*%
%TO.N,GND*%
X190700000Y-54800000D03*
%TO.P,J25,2*%
%TO.N,Drive6-Enc-Aout*%
X188200000Y-54800000D03*
%TO.P,J25,1*%
%TO.N,Drive6-Enc-Bout*%
%TA.AperFunction,ComponentPad*%
G36*
G01*
X184850000Y-55525000D02*
X184850000Y-54075000D01*
G75*
G02*
X185100000Y-53825000I250000J0D01*
G01*
X186300000Y-53825000D01*
G75*
G02*
X186550000Y-54075000I0J-250000D01*
G01*
X186550000Y-55525000D01*
G75*
G02*
X186300000Y-55775000I-250000J0D01*
G01*
X185100000Y-55775000D01*
G75*
G02*
X184850000Y-55525000I0J250000D01*
G01*
G37*
%TD.AperFunction*%
%TD*%
%TO.P,J5,4*%
%TO.N,+5V*%
X144900000Y-54800000D03*
%TO.P,J5,3*%
%TO.N,GND*%
X142400000Y-54800000D03*
%TO.P,J5,2*%
%TO.N,Drive3-Enc-Aout*%
X139900000Y-54800000D03*
%TO.P,J5,1*%
%TO.N,Drive3-Enc-Bout*%
%TA.AperFunction,ComponentPad*%
G36*
G01*
X136550000Y-55525000D02*
X136550000Y-54075000D01*
G75*
G02*
X136800000Y-53825000I250000J0D01*
G01*
X138000000Y-53825000D01*
G75*
G02*
X138250000Y-54075000I0J-250000D01*
G01*
X138250000Y-55525000D01*
G75*
G02*
X138000000Y-55775000I-250000J0D01*
G01*
X136800000Y-55775000D01*
G75*
G02*
X136550000Y-55525000I0J250000D01*
G01*
G37*
%TD.AperFunction*%
%TD*%
D12*
%TO.P,U1,NC*%
%TO.N,N/C*%
X200245000Y-66910000D03*
X200245000Y-69450000D03*
%TO.P,U1,91*%
%TO.N,Net-(U1-Pad91)*%
X197705000Y-66910000D03*
%TO.P,U1,89*%
%TO.N,LED1*%
X197705000Y-69450000D03*
%TO.P,U1,90*%
%TO.N,LED2*%
X195165000Y-66910000D03*
%TO.P,U1,92*%
%TO.N,Net-(U1-Pad92)*%
X195165000Y-69450000D03*
%TO.P,U1,93*%
%TO.N,Drive6-Enc-Bout*%
X192625000Y-66910000D03*
%TO.P,U1,79*%
%TO.N,Drive6-Enc-Aout*%
X192625000Y-69450000D03*
%TO.P,U1,141*%
%TO.N,Drive3-INA1*%
X190085000Y-66910000D03*
%TO.P,U1,167*%
%TO.N,N/C*%
X190085000Y-69450000D03*
%TO.P,U1,49*%
%TO.N,Drive3-INA2*%
X187545000Y-66910000D03*
%TO.P,U1,129*%
%TO.N,Drive4-Enc-Bout*%
X187545000Y-69450000D03*
%TO.P,U1,55*%
%TO.N,I2C-4-SDA*%
X185005000Y-66910000D03*
%TO.P,U1,50*%
%TO.N,I2C-4-INT1*%
X185005000Y-69450000D03*
%TO.P,U1,13*%
%TO.N,Drive3-INB1*%
X182465000Y-66910000D03*
%TO.P,U1,53*%
%TO.N,I2C-4-INT0*%
X182465000Y-69450000D03*
%TO.P,U1,64*%
%TO.N,Drive3-INB2*%
X179925000Y-66910000D03*
%TO.P,U1,66*%
%TO.N,Drive2-B1*%
X179925000Y-69450000D03*
%TO.P,U1,158*%
%TO.N,GND*%
X177385000Y-66910000D03*
%TO.P,U1,68*%
%TO.N,Drive5-Enc-Aout*%
X177385000Y-69450000D03*
%TO.P,U1,60*%
%TO.N,UART-7-RTS*%
X174845000Y-66910000D03*
%TO.P,U1,67*%
%TO.N,Drive3-PWMB*%
X174845000Y-69450000D03*
%TO.P,U1,54*%
%TO.N,I2C-4-SCL*%
X172305000Y-66910000D03*
%TO.P,U1,65*%
%TO.N,CAN3-STBY*%
X172305000Y-69450000D03*
%TO.P,U1,86*%
%TO.N,Steer3-PWMB*%
X169765000Y-66910000D03*
%TO.P,U1,63*%
%TO.N,UART-7-CTS*%
X169765000Y-69450000D03*
%TO.P,U1,85*%
%TO.N,Steer3-PWMA*%
X167225000Y-66910000D03*
%TO.P,U1,80*%
%TO.N,ROSReset*%
X167225000Y-69450000D03*
%TO.P,U1,58*%
%TO.N,UART-7-RXD*%
X164685000Y-66910000D03*
%TO.P,U1,81*%
%TO.N,Drive2-PWMA*%
X164685000Y-69450000D03*
%TO.P,U1,22*%
%TO.N,Drive5-Enc-Bout*%
X162145000Y-66910000D03*
%TO.P,U1,82*%
%TO.N,Drive2-PWMB*%
X162145000Y-69450000D03*
%TO.P,U1,59*%
%TO.N,UART-7-TXD*%
X159605000Y-66910000D03*
%TO.P,U1,158*%
%TO.N,GND*%
X159605000Y-69450000D03*
%TO.P,U1,14*%
%TO.N,Net-(U1-Pad14)*%
X157065000Y-66910000D03*
%TO.P,U1,37*%
%TO.N,Net-(U1-Pad37)*%
X157065000Y-69450000D03*
%TO.P,U1,15*%
%TO.N,Drive2-INA1*%
X154525000Y-66910000D03*
%TO.P,U1,36*%
%TO.N,Drive4-Enc-Aout*%
X154525000Y-69450000D03*
%TO.P,U1,44*%
%TO.N,Drive2-INA2*%
X151985000Y-66910000D03*
%TO.P,U1,102*%
%TO.N,Drive3-PWMA*%
X151985000Y-69450000D03*
%TO.P,U1,159*%
%TO.N,N/C*%
X149445000Y-66910000D03*
%TO.P,U1,133*%
%TO.N,CAN3-RXD*%
X149445000Y-69450000D03*
%TO.P,U1,74*%
%TO.N,Drive2-B2*%
X146905000Y-66910000D03*
%TO.P,U1,135*%
%TO.N,CAN2-RXD*%
X146905000Y-69450000D03*
%TO.P,U1,75*%
%TO.N,Drive1-INA1*%
X144365000Y-66910000D03*
%TO.P,U1,134*%
%TO.N,CAN3-TXD*%
X144365000Y-69450000D03*
%TO.P,U1,76*%
%TO.N,Drive1-INA2*%
X141825000Y-66910000D03*
%TO.P,U1,69*%
%TO.N,Drive3-Enc-Aout*%
X141825000Y-69450000D03*
%TO.P,U1,47*%
%TO.N,Drive3-Enc-Bout*%
X139285000Y-66910000D03*
%TO.P,U1,100*%
%TO.N,Drive1-PWMA*%
X139285000Y-69450000D03*
%TO.P,U1,48*%
%TO.N,CAN2-STBY*%
X136745000Y-66910000D03*
%TO.P,U1,101*%
%TO.N,Drive1-PWMB*%
X136745000Y-69450000D03*
%TO.P,U1,158*%
%TO.N,GND*%
X134205000Y-66910000D03*
%TO.P,U1,97*%
%TO.N,Drive1-INB2*%
X134205000Y-69450000D03*
%TO.P,U1,70*%
%TO.N,Drive1-INB1*%
X131665000Y-66910000D03*
%TO.P,U1,136*%
%TO.N,CAN2-TXD*%
X131665000Y-69450000D03*
%TO.P,U1,73*%
%TO.N,Net-(U1-Pad73)*%
X129125000Y-66910000D03*
%TO.P,U1,43*%
%TO.N,Steer6-Enc-Bout*%
X129125000Y-69450000D03*
%TO.P,U1,103*%
%TO.N,Net-(U1-Pad103)*%
X126585000Y-66910000D03*
%TO.P,U1,42*%
%TO.N,Net-(U1-Pad42)*%
X126585000Y-69450000D03*
%TO.P,U1,104*%
%TO.N,Drive2-Enc-Aout*%
X124045000Y-66910000D03*
%TO.P,U1,41*%
%TO.N,Steer1-PWMA*%
X124045000Y-69450000D03*
%TO.P,U1,77*%
%TO.N,Drive2-Enc-Bout*%
X121505000Y-66910000D03*
%TO.P,U1,158*%
%TO.N,GND*%
X121505000Y-69450000D03*
%TO.P,U1,157*%
%TO.N,Net-(U1-Pad157)*%
X118965000Y-66910000D03*
%TO.P,U1,155*%
%TO.N,Net-(U1-Pad155)*%
X118965000Y-69450000D03*
%TO.P,U1,45*%
%TO.N,Net-(U1-Pad45)*%
X116425000Y-66910000D03*
%TO.P,U1,140*%
%TO.N,TurretPWM2*%
X116425000Y-69450000D03*
%TO.P,U1,96*%
%TO.N,Drive1-Enc-Aout*%
X113885000Y-66910000D03*
%TO.P,U1,139*%
%TO.N,TurretPWM1*%
X113885000Y-69450000D03*
%TO.P,U1,70*%
%TO.N,Drive1-INB1*%
X179905000Y-74530000D03*
%TO.P,U1,141*%
%TO.N,Drive3-INA1*%
X179905000Y-77070000D03*
%TO.P,U1,57*%
%TO.N,CAN1-STBY*%
X179905000Y-120250000D03*
%TO.P,U1,56*%
%TO.N,I2C-2-INT*%
X179905000Y-122790000D03*
%TO.P,U1,50*%
%TO.N,I2C-4-INT1*%
X135201000Y-74530000D03*
%TO.P,U1,134*%
%TO.N,CAN3-TXD*%
X135201000Y-77070000D03*
%TO.P,U1,86*%
%TO.N,Steer3-PWMB*%
X132661000Y-74530000D03*
%TO.P,U1,40*%
%TO.N,Steer3-Enc-Aout*%
X132661000Y-77070000D03*
%TO.P,U1,85*%
%TO.N,Steer3-PWMA*%
X130121000Y-74530000D03*
%TO.P,U1,133*%
%TO.N,CAN3-RXD*%
X130121000Y-77070000D03*
%TO.P,U1,43*%
%TO.N,Steer6-Enc-Bout*%
X127581000Y-74530000D03*
%TO.P,U1,135*%
%TO.N,CAN2-RXD*%
X127581000Y-77070000D03*
%TO.P,U1,42*%
%TO.N,Net-(U1-Pad42)*%
X125041000Y-74530000D03*
%TO.P,U1,97*%
%TO.N,Drive1-INB2*%
X125041000Y-77070000D03*
%TO.P,U1,41*%
%TO.N,Steer1-PWMA*%
X122501000Y-74530000D03*
%TO.P,U1,110*%
%TO.N,Steer1-INA2*%
X122501000Y-77070000D03*
%TO.P,U1,158*%
%TO.N,GND*%
X119961000Y-74530000D03*
%TO.P,U1,73*%
%TO.N,Net-(U1-Pad73)*%
X119961000Y-77070000D03*
%TO.P,U1,154*%
%TO.N,Net-(U1-Pad154)*%
X117421000Y-74530000D03*
%TO.P,U1,74*%
%TO.N,Drive2-B2*%
X117421000Y-77070000D03*
%TO.P,U1,140*%
%TO.N,TurretPWM2*%
X114881000Y-74530000D03*
%TO.P,U1,76*%
%TO.N,Drive1-INA2*%
X114881000Y-77070000D03*
%TO.P,U1,NC*%
%TO.N,N/C*%
X200225000Y-127870000D03*
X200225000Y-130410000D03*
%TO.P,U1,69*%
%TO.N,Drive3-Enc-Aout*%
X177365000Y-74530000D03*
%TO.P,U1,46*%
%TO.N,Steer4-Enc-Aout*%
X177365000Y-77070000D03*
%TO.P,U1,68*%
%TO.N,Drive5-Enc-Aout*%
X174825000Y-74530000D03*
%TO.P,U1,34*%
%TO.N,Steer3-Enc-Bout*%
X174825000Y-77070000D03*
%TO.P,U1,67*%
%TO.N,Drive3-PWMB*%
X172285000Y-74530000D03*
%TO.P,U1,158*%
%TO.N,GND*%
X172285000Y-77070000D03*
%TO.P,U1,65*%
%TO.N,CAN3-STBY*%
X169745000Y-74530000D03*
%TO.P,U1,1*%
%TO.N,Steer5-Enc-Aout*%
X169745000Y-77070000D03*
%TO.P,U1,63*%
%TO.N,UART-7-CTS*%
X167205000Y-74530000D03*
%TO.P,U1,80*%
%TO.N,ROSReset*%
X167205000Y-77070000D03*
%TO.P,U1,158*%
%TO.N,GND*%
X164665000Y-74530000D03*
%TO.P,U1,81*%
%TO.N,Drive2-PWMA*%
X164665000Y-77070000D03*
%TO.P,U1,58*%
%TO.N,UART-7-RXD*%
X162125000Y-74530000D03*
%TO.P,U1,82*%
%TO.N,Drive2-PWMB*%
X162125000Y-77070000D03*
%TO.P,U1,59*%
%TO.N,UART-7-TXD*%
X159585000Y-74530000D03*
%TO.P,U1,158*%
%TO.N,GND*%
X159585000Y-77070000D03*
%TO.P,U1,124*%
%TO.N,SPI_1_MISO*%
X157045000Y-74530000D03*
%TO.P,U1,48*%
%TO.N,CAN2-STBY*%
X157045000Y-77070000D03*
%TO.P,U1,129*%
%TO.N,Drive4-Enc-Bout*%
X154505000Y-74530000D03*
%TO.P,U1,136*%
%TO.N,CAN2-TXD*%
X154505000Y-77070000D03*
%TO.P,U1,55*%
%TO.N,I2C-4-SDA*%
X151965000Y-74530000D03*
%TO.P,U1,14*%
%TO.N,Net-(U1-Pad14)*%
X151965000Y-77070000D03*
%TO.P,U1,66*%
%TO.N,Drive2-B1*%
X149425000Y-74530000D03*
%TO.P,U1,28*%
%TO.N,Net-(U1-Pad28)*%
X149425000Y-77070000D03*
%TO.P,U1,54*%
%TO.N,I2C-4-SCL*%
X146885000Y-74530000D03*
%TO.P,U1,47*%
%TO.N,Drive3-Enc-Bout*%
X146885000Y-77070000D03*
%TO.P,U1,64*%
%TO.N,Drive3-INB2*%
X144345000Y-74530000D03*
%TO.P,U1,158*%
%TO.N,GND*%
X144345000Y-77070000D03*
%TO.P,U1,60*%
%TO.N,UART-7-RTS*%
X141805000Y-74530000D03*
%TO.P,U1,159*%
%TO.N,N/C*%
X141805000Y-77070000D03*
%TO.P,U1,53*%
%TO.N,I2C-4-INT0*%
X139265000Y-74530000D03*
D13*
%TO.P,U1,156*%
%TO.N,Net-(U1-Pad156)*%
X139265000Y-77070000D03*
D12*
%TO.P,U1,139*%
%TO.N,TurretPWM1*%
X112341000Y-74530000D03*
D13*
%TO.P,U1,96*%
%TO.N,Drive1-Enc-Aout*%
X112341000Y-77070000D03*
D12*
%TO.P,U1,21*%
%TO.N,Steer2-PWMB*%
X177365000Y-120250000D03*
%TO.P,U1,115*%
%TO.N,CAN1-TXD*%
X177365000Y-122790000D03*
%TO.P,U1,19*%
%TO.N,Steer2-Enc-Aout*%
X174825000Y-120250000D03*
%TO.P,U1,114*%
%TO.N,CAN1-RXD*%
X174825000Y-122790000D03*
%TO.P,U1,20*%
%TO.N,Steer2-PWMA*%
X172285000Y-120250000D03*
%TO.P,U1,158*%
%TO.N,GND*%
X172285000Y-122790000D03*
%TO.P,U1,2*%
%TO.N,Steer3-INB2*%
X169745000Y-120250000D03*
%TO.P,U1,10*%
%TO.N,I2C-2-SDA*%
X169745000Y-122790000D03*
%TO.P,U1,5*%
%TO.N,Steer3-PWMB*%
X167205000Y-120250000D03*
%TO.P,U1,11*%
%TO.N,I2C-2-SCL*%
X167205000Y-122790000D03*
%TO.P,U1,4*%
%TO.N,Steer3-PWMA*%
X164665000Y-120250000D03*
%TO.P,U1,12*%
%TO.N,I2C-2-EXTRA*%
X164665000Y-122790000D03*
%TO.P,U1,3*%
%TO.N,Steer3-INB1*%
X162125000Y-120250000D03*
%TO.P,U1,43*%
%TO.N,Steer6-Enc-Bout*%
X162125000Y-122790000D03*
%TO.P,U1,1*%
%TO.N,Steer5-Enc-Aout*%
X159585000Y-120250000D03*
%TO.P,U1,NC*%
%TO.N,N/C*%
X159585000Y-122790000D03*
%TO.P,U1,158*%
%TO.N,GND*%
X157045000Y-120250000D03*
%TO.P,U1,22*%
%TO.N,Drive5-Enc-Bout*%
X157045000Y-122790000D03*
%TO.P,U1,117*%
%TO.N,Steer2-INA1*%
X154505000Y-120250000D03*
%TO.P,U1,15*%
%TO.N,Drive2-INA1*%
X154505000Y-122790000D03*
%TO.P,U1,118*%
%TO.N,Steer2-INB2*%
X151965000Y-120250000D03*
%TO.P,U1,13*%
%TO.N,Drive3-INB1*%
X151965000Y-122790000D03*
%TO.P,U1,119*%
%TO.N,Steer2-INB1*%
X149425000Y-120250000D03*
%TO.P,U1,29*%
%TO.N,Net-(U1-Pad29)*%
X149425000Y-122790000D03*
%TO.P,U1,122*%
%TO.N,Steer2-INA2*%
X146885000Y-120250000D03*
%TO.P,U1,26*%
%TO.N,Net-(U1-Pad26)*%
X146885000Y-122790000D03*
%TO.P,U1,123*%
%TO.N,SPI_1_MOSI*%
X144345000Y-120250000D03*
D13*
%TO.P,U1,37*%
%TO.N,Net-(U1-Pad37)*%
X144345000Y-122790000D03*
D12*
%TO.P,U1,88*%
%TO.N,Steer5-Enc-Bout*%
X139265000Y-120250000D03*
%TO.P,U1,153*%
%TO.N,Net-(U1-Pad153)*%
X139265000Y-122790000D03*
%TO.P,U1,87*%
%TO.N,Net-(U1-Pad87)*%
X136725000Y-120250000D03*
%TO.P,U1,158*%
%TO.N,GND*%
X136725000Y-122790000D03*
%TO.P,U1,116*%
%TO.N,Net-(U1-Pad116)*%
X134185000Y-120250000D03*
%TO.P,U1,158*%
%TO.N,GND*%
X134185000Y-122790000D03*
%TO.P,U1,113*%
%TO.N,SabreTX*%
X131645000Y-120250000D03*
%TO.P,U1,152*%
%TO.N,+5V*%
X131645000Y-122790000D03*
%TO.P,U1,112*%
%TO.N,Steer1-Enc-Aout*%
X129105000Y-120250000D03*
%TO.P,U1,151*%
%TO.N,+3V3*%
X129105000Y-122790000D03*
%TO.P,U1,111*%
%TO.N,Steer1-Enc-Bout*%
X126565000Y-120250000D03*
%TO.P,U1,25*%
%TO.N,Net-(U1-Pad25)*%
X126565000Y-122790000D03*
%TO.P,U1,99*%
%TO.N,Net-(U1-Pad99)*%
X124025000Y-120250000D03*
%TO.P,U1,150*%
%TO.N,Net-(U1-Pad150)*%
X124025000Y-122790000D03*
%TO.P,U1,98*%
%TO.N,Drive1-Enc-Bout*%
X121485000Y-120250000D03*
D13*
%TO.P,U1,NC*%
%TO.N,N/C*%
X121485000Y-122790000D03*
D12*
%TO.P,U1,98*%
%TO.N,Drive1-Enc-Bout*%
X111345000Y-66910000D03*
D13*
%TO.P,U1,99*%
%TO.N,Net-(U1-Pad99)*%
X111345000Y-69450000D03*
D12*
%TO.P,U1,126*%
%TO.N,SPI_1_SCK*%
X197685000Y-127870000D03*
%TO.P,U1,78*%
%TO.N,I2C-2-EXTRA*%
X197685000Y-130410000D03*
%TO.P,U1,128*%
%TO.N,SPI_1_INT*%
X195145000Y-127870000D03*
%TO.P,U1,NC*%
%TO.N,N/C*%
X195145000Y-130410000D03*
%TO.P,U1,125*%
%TO.N,SPI_1_CS*%
X192605000Y-127870000D03*
%TO.P,U1,127*%
%TO.N,Steer6-Enc-Aout*%
X192605000Y-130410000D03*
%TO.P,U1,132*%
%TO.N,Steer3-INA1*%
X190065000Y-127870000D03*
%TO.P,U1,124*%
%TO.N,SPI_1_MISO*%
X190065000Y-130410000D03*
%TO.P,U1,5*%
%TO.N,Steer3-PWMB*%
X187525000Y-127870000D03*
%TO.P,U1,142*%
%TO.N,Steer3-INA2*%
X187525000Y-130410000D03*
%TO.P,U1,177*%
%TO.N,N/C*%
X184985000Y-127870000D03*
%TO.P,U1,56*%
%TO.N,I2C-2-INT*%
X184985000Y-130410000D03*
%TO.P,U1,57*%
%TO.N,CAN1-STBY*%
X182445000Y-127870000D03*
%TO.P,U1,114*%
%TO.N,CAN1-RXD*%
X182445000Y-130410000D03*
%TO.P,U1,21*%
%TO.N,Steer2-PWMB*%
X179905000Y-127870000D03*
%TO.P,U1,115*%
%TO.N,CAN1-TXD*%
X179905000Y-130410000D03*
%TO.P,U1,20*%
%TO.N,Steer2-PWMA*%
X177365000Y-127870000D03*
%TO.P,U1,10*%
%TO.N,I2C-2-SDA*%
X177365000Y-130410000D03*
%TO.P,U1,12*%
%TO.N,I2C-2-EXTRA*%
X174825000Y-127870000D03*
%TO.P,U1,11*%
%TO.N,I2C-2-SCL*%
X174825000Y-130410000D03*
%TO.P,U1,4*%
%TO.N,Steer3-PWMA*%
X172285000Y-127870000D03*
%TO.P,U1,158*%
%TO.N,GND*%
X172285000Y-130410000D03*
%TO.P,U1,3*%
%TO.N,Steer3-INB1*%
X169745000Y-127870000D03*
%TO.P,U1,2*%
%TO.N,Steer3-INB2*%
X169745000Y-130410000D03*
%TO.P,U1,1*%
%TO.N,Steer5-Enc-Aout*%
X167205000Y-127870000D03*
%TO.P,U1,123*%
%TO.N,SPI_1_MOSI*%
X167205000Y-130410000D03*
%TO.P,U1,88*%
%TO.N,Steer5-Enc-Bout*%
X164665000Y-127870000D03*
%TO.P,U1,122*%
%TO.N,Steer2-INA2*%
X164665000Y-130410000D03*
%TO.P,U1,87*%
%TO.N,Net-(U1-Pad87)*%
X162125000Y-127870000D03*
%TO.P,U1,119*%
%TO.N,Steer2-INB1*%
X162125000Y-130410000D03*
%TO.P,U1,117*%
%TO.N,Steer2-INA1*%
X159585000Y-127870000D03*
%TO.P,U1,118*%
%TO.N,Steer2-INB2*%
X159585000Y-130410000D03*
%TO.P,U1,26*%
%TO.N,Net-(U1-Pad26)*%
X157045000Y-127870000D03*
%TO.P,U1,29*%
%TO.N,Net-(U1-Pad29)*%
X157045000Y-130410000D03*
%TO.P,U1,27*%
%TO.N,Net-(U1-Pad27)*%
X154505000Y-127870000D03*
%TO.P,U1,28*%
%TO.N,Net-(U1-Pad28)*%
X154505000Y-130410000D03*
%TO.P,U1,46*%
%TO.N,Steer4-Enc-Aout*%
X151965000Y-127870000D03*
%TO.P,U1,6*%
%TO.N,N/C*%
X151965000Y-130410000D03*
%TO.P,U1,40*%
%TO.N,Steer3-Enc-Aout*%
X149425000Y-127870000D03*
%TO.P,U1,24*%
%TO.N,Steer4-Enc-Bout*%
X149425000Y-130410000D03*
%TO.P,U1,35*%
%TO.N,Steer1-PWMB*%
X146885000Y-127870000D03*
%TO.P,U1,NC*%
%TO.N,N/C*%
X146885000Y-130410000D03*
%TO.P,U1,34*%
%TO.N,Steer3-Enc-Bout*%
X144345000Y-127870000D03*
%TO.P,U1,NC*%
%TO.N,N/C*%
X144345000Y-130410000D03*
X141805000Y-127870000D03*
X141805000Y-130410000D03*
%TO.P,U1,149*%
%TO.N,Net-(U1-Pad149)*%
X139265000Y-127870000D03*
%TO.P,U1,7*%
%TO.N,Steer1-INA1*%
X139265000Y-130410000D03*
%TO.P,U1,158*%
%TO.N,GND*%
X136725000Y-127870000D03*
%TO.P,U1,137*%
%TO.N,Net-(U1-Pad137)*%
X136725000Y-130410000D03*
%TO.P,U1,158*%
%TO.N,GND*%
X134185000Y-127870000D03*
X134185000Y-130410000D03*
%TO.P,U1,148*%
%TO.N,+5V*%
X131645000Y-127870000D03*
%TO.P,U1,110*%
%TO.N,Steer1-INA2*%
X131645000Y-130410000D03*
%TO.P,U1,147*%
%TO.N,+3V3*%
X129105000Y-127870000D03*
%TO.P,U1,109*%
%TO.N,Steer1-INB1*%
X129105000Y-130410000D03*
%TO.P,U1,25*%
%TO.N,Net-(U1-Pad25)*%
X126565000Y-127870000D03*
%TO.P,U1,105*%
%TO.N,Steer1-INB2*%
X126565000Y-130410000D03*
%TO.P,U1,146*%
%TO.N,+3V3*%
X124025000Y-127870000D03*
%TO.P,U1,19*%
%TO.N,Steer2-Enc-Aout*%
X124025000Y-130410000D03*
%TO.P,U1,NC*%
%TO.N,N/C*%
X121485000Y-127870000D03*
%TO.P,U1,18*%
%TO.N,Steer2-Enc-Bout*%
X121485000Y-130410000D03*
%TO.P,U1,158*%
%TO.N,GND*%
X118945000Y-127870000D03*
%TO.P,U1,138*%
%TO.N,Net-(U1-Pad138)*%
X118945000Y-130410000D03*
%TO.P,U1,145*%
%TO.N,Net-(U1-Pad145)*%
X116405000Y-127870000D03*
%TO.P,U1,17*%
%TO.N,N/C*%
X116405000Y-130410000D03*
%TO.P,U1,116*%
%TO.N,Net-(U1-Pad116)*%
X113865000Y-127870000D03*
%TO.P,U1,113*%
%TO.N,SabreTX*%
X113865000Y-130410000D03*
%TO.P,U1,112*%
%TO.N,Steer1-Enc-Aout*%
X111325000Y-127870000D03*
D13*
%TO.P,U1,111*%
%TO.N,Steer1-Enc-Bout*%
X111325000Y-130410000D03*
%TD*%
D10*
%TO.P,Hole,1*%
%TO.N,N/C*%
X229900000Y-41900000D03*
%TD*%
%TO.P,Hole,1*%
%TO.N,N/C*%
X229900000Y-157500000D03*
%TD*%
%TO.P,,1*%
%TO.N,N/C*%
X75000000Y-41900000D03*
%TD*%
D14*
%TO.P,J30,4*%
%TO.N,SabreTX*%
X96500000Y-141500000D03*
%TO.P,J30,3*%
X96500000Y-144000000D03*
%TO.P,J30,2*%
X96500000Y-146500000D03*
%TO.P,J30,1*%
%TA.AperFunction,ComponentPad*%
G36*
G01*
X97225000Y-149850000D02*
X95775000Y-149850000D01*
G75*
G02*
X95525000Y-149600000I0J250000D01*
G01*
X95525000Y-148400000D01*
G75*
G02*
X95775000Y-148150000I250000J0D01*
G01*
X97225000Y-148150000D01*
G75*
G02*
X97475000Y-148400000I0J-250000D01*
G01*
X97475000Y-149600000D01*
G75*
G02*
X97225000Y-149850000I-250000J0D01*
G01*
G37*
%TD.AperFunction*%
%TD*%
D11*
%TO.P,J29,4*%
%TO.N,+5V*%
X161000000Y-54800000D03*
%TO.P,J29,3*%
%TO.N,GND*%
X158500000Y-54800000D03*
%TO.P,J29,2*%
%TO.N,Drive4-Enc-Aout*%
X156000000Y-54800000D03*
%TO.P,J29,1*%
%TO.N,Drive4-Enc-Bout*%
%TA.AperFunction,ComponentPad*%
G36*
G01*
X152650000Y-55525000D02*
X152650000Y-54075000D01*
G75*
G02*
X152900000Y-53825000I250000J0D01*
G01*
X154100000Y-53825000D01*
G75*
G02*
X154350000Y-54075000I0J-250000D01*
G01*
X154350000Y-55525000D01*
G75*
G02*
X154100000Y-55775000I-250000J0D01*
G01*
X152900000Y-55775000D01*
G75*
G02*
X152650000Y-55525000I0J250000D01*
G01*
G37*
%TD.AperFunction*%
%TD*%
%TO.P,J28,4*%
%TO.N,+5V*%
X193200000Y-141800000D03*
%TO.P,J28,3*%
%TO.N,GND*%
X190700000Y-141800000D03*
%TO.P,J28,2*%
%TO.N,Steer6-Enc-Aout*%
X188200000Y-141800000D03*
%TO.P,J28,1*%
%TO.N,Steer6-Enc-Bout*%
%TA.AperFunction,ComponentPad*%
G36*
G01*
X184850000Y-142525000D02*
X184850000Y-141075000D01*
G75*
G02*
X185100000Y-140825000I250000J0D01*
G01*
X186300000Y-140825000D01*
G75*
G02*
X186550000Y-141075000I0J-250000D01*
G01*
X186550000Y-142525000D01*
G75*
G02*
X186300000Y-142775000I-250000J0D01*
G01*
X185100000Y-142775000D01*
G75*
G02*
X184850000Y-142525000I0J250000D01*
G01*
G37*
%TD.AperFunction*%
%TD*%
%TO.P,J27,4*%
%TO.N,+5V*%
X177100000Y-141700000D03*
%TO.P,J27,3*%
%TO.N,GND*%
X174600000Y-141700000D03*
%TO.P,J27,2*%
%TO.N,Steer5-Enc-Aout*%
X172100000Y-141700000D03*
%TO.P,J27,1*%
%TO.N,Steer5-Enc-Bout*%
%TA.AperFunction,ComponentPad*%
G36*
G01*
X168750000Y-142425000D02*
X168750000Y-140975000D01*
G75*
G02*
X169000000Y-140725000I250000J0D01*
G01*
X170200000Y-140725000D01*
G75*
G02*
X170450000Y-140975000I0J-250000D01*
G01*
X170450000Y-142425000D01*
G75*
G02*
X170200000Y-142675000I-250000J0D01*
G01*
X169000000Y-142675000D01*
G75*
G02*
X168750000Y-142425000I0J250000D01*
G01*
G37*
%TD.AperFunction*%
%TD*%
%TO.P,J26,4*%
%TO.N,+5V*%
X161000000Y-141700000D03*
%TO.P,J26,3*%
%TO.N,GND*%
X158500000Y-141700000D03*
%TO.P,J26,2*%
%TO.N,Steer4-Enc-Aout*%
X156000000Y-141700000D03*
%TO.P,J26,1*%
%TO.N,Steer4-Enc-Bout*%
%TA.AperFunction,ComponentPad*%
G36*
G01*
X152650000Y-142425000D02*
X152650000Y-140975000D01*
G75*
G02*
X152900000Y-140725000I250000J0D01*
G01*
X154100000Y-140725000D01*
G75*
G02*
X154350000Y-140975000I0J-250000D01*
G01*
X154350000Y-142425000D01*
G75*
G02*
X154100000Y-142675000I-250000J0D01*
G01*
X152900000Y-142675000D01*
G75*
G02*
X152650000Y-142425000I0J250000D01*
G01*
G37*
%TD.AperFunction*%
%TD*%
%TO.P,J24,4*%
%TO.N,+5V*%
X177100000Y-54800000D03*
%TO.P,J24,3*%
%TO.N,GND*%
X174600000Y-54800000D03*
%TO.P,J24,2*%
%TO.N,Drive5-Enc-Aout*%
X172100000Y-54800000D03*
%TO.P,J24,1*%
%TO.N,Drive5-Enc-Bout*%
%TA.AperFunction,ComponentPad*%
G36*
G01*
X168750000Y-55525000D02*
X168750000Y-54075000D01*
G75*
G02*
X169000000Y-53825000I250000J0D01*
G01*
X170200000Y-53825000D01*
G75*
G02*
X170450000Y-54075000I0J-250000D01*
G01*
X170450000Y-55525000D01*
G75*
G02*
X170200000Y-55775000I-250000J0D01*
G01*
X169000000Y-55775000D01*
G75*
G02*
X168750000Y-55525000I0J250000D01*
G01*
G37*
%TD.AperFunction*%
%TD*%
%TO.P,J15,1*%
%TO.N,Net-(J15-Pad1)*%
%TA.AperFunction,ComponentPad*%
G36*
G01*
X221475000Y-146350000D02*
X220025000Y-146350000D01*
G75*
G02*
X219775000Y-146100000I0J250000D01*
G01*
X219775000Y-144900000D01*
G75*
G02*
X220025000Y-144650000I250000J0D01*
G01*
X221475000Y-144650000D01*
G75*
G02*
X221725000Y-144900000I0J-250000D01*
G01*
X221725000Y-146100000D01*
G75*
G02*
X221475000Y-146350000I-250000J0D01*
G01*
G37*
%TD.AperFunction*%
D14*
%TO.P,J15,2*%
%TO.N,+5V*%
X220750000Y-143000000D03*
%TO.P,J15,3*%
%TO.N,GND*%
X220750000Y-140500000D03*
%TO.P,J15,4*%
%TO.N,SPI_1_CS*%
X220750000Y-138000000D03*
%TO.P,J15,5*%
%TO.N,SPI_1_MISO*%
X220750000Y-135500000D03*
%TO.P,J15,6*%
%TO.N,SPI_1_MOSI*%
X220750000Y-133000000D03*
%TO.P,J15,7*%
%TO.N,SPI_1_SCK*%
X220750000Y-130500000D03*
%TO.P,J15,8*%
%TO.N,SPI_1_INT*%
X220750000Y-128000000D03*
%TD*%
D11*
%TO.P,J9,8*%
%TO.N,Drive2-INA1*%
X156800000Y-45100000D03*
%TO.P,J9,7*%
%TO.N,Drive2-INA2*%
X154300000Y-45100000D03*
%TO.P,J9,6*%
%TO.N,Drive2-PWMA*%
X151800000Y-45100000D03*
%TO.P,J9,5*%
%TO.N,Drive2-B1*%
X149300000Y-45100000D03*
%TO.P,J9,4*%
%TO.N,Drive2-B2*%
X146800000Y-45100000D03*
%TO.P,J9,3*%
%TO.N,Drive2-PWMB*%
X144300000Y-45100000D03*
%TO.P,J9,2*%
%TO.N,GND*%
X141800000Y-45100000D03*
%TO.P,J9,1*%
%TO.N,Net-(J9-Pad1)*%
%TA.AperFunction,ComponentPad*%
G36*
G01*
X138450000Y-45825000D02*
X138450000Y-44375000D01*
G75*
G02*
X138700000Y-44125000I250000J0D01*
G01*
X139900000Y-44125000D01*
G75*
G02*
X140150000Y-44375000I0J-250000D01*
G01*
X140150000Y-45825000D01*
G75*
G02*
X139900000Y-46075000I-250000J0D01*
G01*
X138700000Y-46075000D01*
G75*
G02*
X138450000Y-45825000I0J250000D01*
G01*
G37*
%TD.AperFunction*%
%TD*%
D15*
%TO.P,J19,2*%
%TO.N,Net-(J19-Pad2)*%
X219910000Y-107570000D03*
D16*
%TO.P,J19,1*%
%TO.N,Net-(J19-Pad1)*%
X219910000Y-110070000D03*
%TD*%
D11*
%TO.P,J1,4*%
%TO.N,+5V*%
X112800000Y-54600000D03*
%TO.P,J1,3*%
%TO.N,GND*%
X110300000Y-54600000D03*
%TO.P,J1,2*%
%TO.N,Drive1-Enc-Aout*%
X107800000Y-54600000D03*
%TO.P,J1,1*%
%TO.N,Drive1-Enc-Bout*%
%TA.AperFunction,ComponentPad*%
G36*
G01*
X104450000Y-55325000D02*
X104450000Y-53875000D01*
G75*
G02*
X104700000Y-53625000I250000J0D01*
G01*
X105900000Y-53625000D01*
G75*
G02*
X106150000Y-53875000I0J-250000D01*
G01*
X106150000Y-55325000D01*
G75*
G02*
X105900000Y-55575000I-250000J0D01*
G01*
X104700000Y-55575000D01*
G75*
G02*
X104450000Y-55325000I0J250000D01*
G01*
G37*
%TD.AperFunction*%
%TD*%
%TO.P,J2,4*%
%TO.N,+5V*%
X112800000Y-141700000D03*
%TO.P,J2,3*%
%TO.N,GND*%
X110300000Y-141700000D03*
%TO.P,J2,2*%
%TO.N,Steer1-Enc-Aout*%
X107800000Y-141700000D03*
%TO.P,J2,1*%
%TO.N,Steer1-Enc-Bout*%
%TA.AperFunction,ComponentPad*%
G36*
G01*
X104450000Y-142425000D02*
X104450000Y-140975000D01*
G75*
G02*
X104700000Y-140725000I250000J0D01*
G01*
X105900000Y-140725000D01*
G75*
G02*
X106150000Y-140975000I0J-250000D01*
G01*
X106150000Y-142425000D01*
G75*
G02*
X105900000Y-142675000I-250000J0D01*
G01*
X104700000Y-142675000D01*
G75*
G02*
X104450000Y-142425000I0J250000D01*
G01*
G37*
%TD.AperFunction*%
%TD*%
%TO.P,J3,4*%
%TO.N,+5V*%
X128900000Y-54800000D03*
%TO.P,J3,3*%
%TO.N,GND*%
X126400000Y-54800000D03*
%TO.P,J3,2*%
%TO.N,Drive2-Enc-Aout*%
X123900000Y-54800000D03*
%TO.P,J3,1*%
%TO.N,Drive2-Enc-Bout*%
%TA.AperFunction,ComponentPad*%
G36*
G01*
X120550000Y-55525000D02*
X120550000Y-54075000D01*
G75*
G02*
X120800000Y-53825000I250000J0D01*
G01*
X122000000Y-53825000D01*
G75*
G02*
X122250000Y-54075000I0J-250000D01*
G01*
X122250000Y-55525000D01*
G75*
G02*
X122000000Y-55775000I-250000J0D01*
G01*
X120800000Y-55775000D01*
G75*
G02*
X120550000Y-55525000I0J250000D01*
G01*
G37*
%TD.AperFunction*%
%TD*%
%TO.P,J4,4*%
%TO.N,+5V*%
X128900000Y-141700000D03*
%TO.P,J4,3*%
%TO.N,GND*%
X126400000Y-141700000D03*
%TO.P,J4,2*%
%TO.N,Steer2-Enc-Aout*%
X123900000Y-141700000D03*
%TO.P,J4,1*%
%TO.N,Steer2-Enc-Bout*%
%TA.AperFunction,ComponentPad*%
G36*
G01*
X120550000Y-142425000D02*
X120550000Y-140975000D01*
G75*
G02*
X120800000Y-140725000I250000J0D01*
G01*
X122000000Y-140725000D01*
G75*
G02*
X122250000Y-140975000I0J-250000D01*
G01*
X122250000Y-142425000D01*
G75*
G02*
X122000000Y-142675000I-250000J0D01*
G01*
X120800000Y-142675000D01*
G75*
G02*
X120550000Y-142425000I0J250000D01*
G01*
G37*
%TD.AperFunction*%
%TD*%
%TO.P,J6,4*%
%TO.N,+5V*%
X144900000Y-141700000D03*
%TO.P,J6,3*%
%TO.N,GND*%
X142400000Y-141700000D03*
%TO.P,J6,2*%
%TO.N,Steer3-Enc-Aout*%
X139900000Y-141700000D03*
%TO.P,J6,1*%
%TO.N,Steer3-Enc-Bout*%
%TA.AperFunction,ComponentPad*%
G36*
G01*
X136550000Y-142425000D02*
X136550000Y-140975000D01*
G75*
G02*
X136800000Y-140725000I250000J0D01*
G01*
X138000000Y-140725000D01*
G75*
G02*
X138250000Y-140975000I0J-250000D01*
G01*
X138250000Y-142425000D01*
G75*
G02*
X138000000Y-142675000I-250000J0D01*
G01*
X136800000Y-142675000D01*
G75*
G02*
X136550000Y-142425000I0J250000D01*
G01*
G37*
%TD.AperFunction*%
%TD*%
D17*
%TO.P,J7,6*%
%TO.N,I2C-4-INT0*%
X191500002Y-45000000D03*
%TO.P,J7,5*%
%TO.N,I2C-4-INT1*%
X194000000Y-45000000D03*
%TO.P,J7,4*%
%TO.N,I2C-4-SCL*%
X196500000Y-45000000D03*
%TO.P,J7,3*%
%TO.N,I2C-4-SDA*%
X199000000Y-45000000D03*
%TO.P,J7,2*%
%TO.N,GND*%
X201500000Y-45000000D03*
%TO.P,J7,1*%
%TO.N,+3V3*%
X204000000Y-45000000D03*
%TD*%
%TO.P,J8,1*%
%TO.N,Net-(J8-Pad1)*%
%TA.AperFunction,ComponentPad*%
G36*
G01*
X112450000Y-45925000D02*
X112450000Y-44475000D01*
G75*
G02*
X112700000Y-44225000I250000J0D01*
G01*
X113900000Y-44225000D01*
G75*
G02*
X114150000Y-44475000I0J-250000D01*
G01*
X114150000Y-45925000D01*
G75*
G02*
X113900000Y-46175000I-250000J0D01*
G01*
X112700000Y-46175000D01*
G75*
G02*
X112450000Y-45925000I0J250000D01*
G01*
G37*
%TD.AperFunction*%
D11*
%TO.P,J8,2*%
%TO.N,GND*%
X115800000Y-45200000D03*
%TO.P,J8,3*%
%TO.N,Drive1-PWMB*%
X118300000Y-45200000D03*
%TO.P,J8,4*%
%TO.N,Drive1-INB2*%
X120800000Y-45200000D03*
%TO.P,J8,5*%
%TO.N,Drive1-INB1*%
X123300000Y-45200000D03*
%TO.P,J8,6*%
%TO.N,Drive1-PWMA*%
X125800000Y-45200000D03*
%TO.P,J8,7*%
%TO.N,Drive1-INA2*%
X128300000Y-45200000D03*
%TO.P,J8,8*%
%TO.N,Drive1-INA1*%
X130800000Y-45200000D03*
%TD*%
%TO.P,J10,1*%
%TO.N,Net-(J10-Pad1)*%
%TA.AperFunction,ComponentPad*%
G36*
G01*
X164550000Y-45725000D02*
X164550000Y-44275000D01*
G75*
G02*
X164800000Y-44025000I250000J0D01*
G01*
X166000000Y-44025000D01*
G75*
G02*
X166250000Y-44275000I0J-250000D01*
G01*
X166250000Y-45725000D01*
G75*
G02*
X166000000Y-45975000I-250000J0D01*
G01*
X164800000Y-45975000D01*
G75*
G02*
X164550000Y-45725000I0J250000D01*
G01*
G37*
%TD.AperFunction*%
%TO.P,J10,2*%
%TO.N,GND*%
X167900000Y-45000000D03*
%TO.P,J10,3*%
%TO.N,Drive3-PWMB*%
X170400000Y-45000000D03*
%TO.P,J10,4*%
%TO.N,Drive3-INB2*%
X172900000Y-45000000D03*
%TO.P,J10,5*%
%TO.N,Drive3-INB1*%
X175400000Y-45000000D03*
%TO.P,J10,6*%
%TO.N,Drive3-PWMA*%
X177900000Y-45000000D03*
%TO.P,J10,7*%
%TO.N,Drive3-INA2*%
X180400000Y-45000000D03*
%TO.P,J10,8*%
%TO.N,Drive3-INA1*%
X182900000Y-45000000D03*
%TD*%
%TO.P,J11,8*%
%TO.N,Steer1-INA1*%
X130800000Y-151200000D03*
%TO.P,J11,7*%
%TO.N,Steer1-INA2*%
X128300000Y-151200000D03*
%TO.P,J11,6*%
%TO.N,Steer1-PWMA*%
X125800000Y-151200000D03*
%TO.P,J11,5*%
%TO.N,Steer1-INB1*%
X123300000Y-151200000D03*
%TO.P,J11,4*%
%TO.N,Steer1-INB2*%
X120800000Y-151200000D03*
%TO.P,J11,3*%
%TO.N,Steer1-PWMB*%
X118300000Y-151200000D03*
%TO.P,J11,2*%
%TO.N,GND*%
X115800000Y-151200000D03*
%TO.P,J11,1*%
%TO.N,Net-(J11-Pad1)*%
%TA.AperFunction,ComponentPad*%
G36*
G01*
X112450000Y-151925000D02*
X112450000Y-150475000D01*
G75*
G02*
X112700000Y-150225000I250000J0D01*
G01*
X113900000Y-150225000D01*
G75*
G02*
X114150000Y-150475000I0J-250000D01*
G01*
X114150000Y-151925000D01*
G75*
G02*
X113900000Y-152175000I-250000J0D01*
G01*
X112700000Y-152175000D01*
G75*
G02*
X112450000Y-151925000I0J250000D01*
G01*
G37*
%TD.AperFunction*%
%TD*%
%TO.P,J12,1*%
%TO.N,Net-(J12-Pad1)*%
%TA.AperFunction,ComponentPad*%
G36*
G01*
X138450000Y-151925000D02*
X138450000Y-150475000D01*
G75*
G02*
X138700000Y-150225000I250000J0D01*
G01*
X139900000Y-150225000D01*
G75*
G02*
X140150000Y-150475000I0J-250000D01*
G01*
X140150000Y-151925000D01*
G75*
G02*
X139900000Y-152175000I-250000J0D01*
G01*
X138700000Y-152175000D01*
G75*
G02*
X138450000Y-151925000I0J250000D01*
G01*
G37*
%TD.AperFunction*%
%TO.P,J12,2*%
%TO.N,GND*%
X141800000Y-151200000D03*
%TO.P,J12,3*%
%TO.N,Steer2-PWMB*%
X144300000Y-151200000D03*
%TO.P,J12,4*%
%TO.N,Steer2-INB2*%
X146800000Y-151200000D03*
%TO.P,J12,5*%
%TO.N,Steer2-INB1*%
X149300000Y-151200000D03*
%TO.P,J12,6*%
%TO.N,Steer2-PWMA*%
X151800000Y-151200000D03*
%TO.P,J12,7*%
%TO.N,Steer2-INA2*%
X154300000Y-151200000D03*
%TO.P,J12,8*%
%TO.N,Steer2-INA1*%
X156800000Y-151200000D03*
%TD*%
%TO.P,J13,8*%
%TO.N,Steer3-INA1*%
X182900000Y-151200000D03*
%TO.P,J13,7*%
%TO.N,Steer3-INA2*%
X180400000Y-151200000D03*
%TO.P,J13,6*%
%TO.N,Steer3-PWMA*%
X177900000Y-151200000D03*
%TO.P,J13,5*%
%TO.N,Steer3-INB1*%
X175400000Y-151200000D03*
%TO.P,J13,4*%
%TO.N,Steer3-INB2*%
X172900000Y-151200000D03*
%TO.P,J13,3*%
%TO.N,Steer3-PWMB*%
X170400000Y-151200000D03*
%TO.P,J13,2*%
%TO.N,GND*%
X167900000Y-151200000D03*
%TO.P,J13,1*%
%TO.N,Net-(J13-Pad1)*%
%TA.AperFunction,ComponentPad*%
G36*
G01*
X164550000Y-151925000D02*
X164550000Y-150475000D01*
G75*
G02*
X164800000Y-150225000I250000J0D01*
G01*
X166000000Y-150225000D01*
G75*
G02*
X166250000Y-150475000I0J-250000D01*
G01*
X166250000Y-151925000D01*
G75*
G02*
X166000000Y-152175000I-250000J0D01*
G01*
X164800000Y-152175000D01*
G75*
G02*
X164550000Y-151925000I0J250000D01*
G01*
G37*
%TD.AperFunction*%
%TD*%
D17*
%TO.P,J14,6*%
%TO.N,+5V*%
X191500002Y-151200000D03*
%TO.P,J14,5*%
%TO.N,GND*%
X194000000Y-151200000D03*
%TO.P,J14,4*%
%TO.N,I2C-2-SDA*%
X196500000Y-151200000D03*
%TO.P,J14,3*%
%TO.N,I2C-2-SCL*%
X199000000Y-151200000D03*
%TO.P,J14,2*%
%TO.N,I2C-2-INT*%
X201500000Y-151200000D03*
%TO.P,J14,1*%
%TO.N,I2C-2-EXTRA*%
X204000000Y-151200000D03*
%TD*%
D18*
%TO.P,J17,1*%
%TO.N,Net-(J17-Pad1)*%
X222450000Y-97390000D03*
D19*
%TO.P,J17,2*%
X219910000Y-97390000D03*
%TD*%
%TO.P,J18,2*%
%TO.N,Net-(J18-Pad2)*%
X219910000Y-78340000D03*
D18*
%TO.P,J18,1*%
%TO.N,Net-(J18-Pad1)*%
X222450000Y-78340000D03*
%TD*%
D16*
%TO.P,J20,1*%
%TO.N,Net-(J17-Pad1)*%
X219910000Y-92290000D03*
D15*
%TO.P,J20,2*%
%TO.N,Net-(J20-Pad2)*%
X219910000Y-89790000D03*
%TD*%
%TO.P,J21,2*%
%TO.N,Net-(J21-Pad2)*%
X219910000Y-70740000D03*
D16*
%TO.P,J21,1*%
%TO.N,Net-(J18-Pad2)*%
X219910000Y-73240000D03*
%TD*%
D19*
%TO.P,J23,2*%
%TO.N,Net-(J19-Pad1)*%
X219910000Y-115170000D03*
D18*
%TO.P,J23,1*%
X222450000Y-115170000D03*
%TD*%
D11*
%TO.P,J31,3*%
%TO.N,TurretPWM1*%
X93000000Y-45200000D03*
%TO.P,J31,2*%
%TO.N,GND*%
X90500000Y-45200000D03*
%TO.P,J31,1*%
%TO.N,+5V*%
%TA.AperFunction,ComponentPad*%
G36*
G01*
X87150000Y-45925000D02*
X87150000Y-44475000D01*
G75*
G02*
X87400000Y-44225000I250000J0D01*
G01*
X88600000Y-44225000D01*
G75*
G02*
X88850000Y-44475000I0J-250000D01*
G01*
X88850000Y-45925000D01*
G75*
G02*
X88600000Y-46175000I-250000J0D01*
G01*
X87400000Y-46175000D01*
G75*
G02*
X87150000Y-45925000I0J250000D01*
G01*
G37*
%TD.AperFunction*%
%TD*%
%TO.P,J32,1*%
%TO.N,+5V*%
%TA.AperFunction,ComponentPad*%
G36*
G01*
X87150000Y-55325000D02*
X87150000Y-53875000D01*
G75*
G02*
X87400000Y-53625000I250000J0D01*
G01*
X88600000Y-53625000D01*
G75*
G02*
X88850000Y-53875000I0J-250000D01*
G01*
X88850000Y-55325000D01*
G75*
G02*
X88600000Y-55575000I-250000J0D01*
G01*
X87400000Y-55575000D01*
G75*
G02*
X87150000Y-55325000I0J250000D01*
G01*
G37*
%TD.AperFunction*%
%TO.P,J32,2*%
%TO.N,GND*%
X90500000Y-54600000D03*
%TO.P,J32,3*%
%TO.N,TurretPWM2*%
X93000000Y-54600000D03*
%TD*%
D20*
%TO.N,GND*%
X224600000Y-58900000D03*
X205900000Y-87400000D03*
X199300000Y-75200000D03*
X205000000Y-101500000D03*
X204670000Y-122790000D03*
X199300000Y-110700000D03*
X199300000Y-88800000D03*
X224600000Y-48400000D03*
%TO.N,+5V*%
X197000000Y-99900000D03*
X197000000Y-120900000D03*
X197000000Y-84900000D03*
%TO.N,+3V3*%
X209500000Y-83500000D03*
X209500000Y-96500000D03*
X209500000Y-117000000D03*
X209500000Y-107250000D03*
%TO.N,CAN3-TXD*%
X194665000Y-79500000D03*
%TD*%
D21*
%TO.N,GND*%
X110500000Y-141500000D02*
X110300000Y-141700000D01*
X126500000Y-141600000D02*
X126400000Y-141700000D01*
X142500000Y-141600000D02*
X142400000Y-141700000D01*
X158600000Y-141600000D02*
X158500000Y-141700000D01*
X190800000Y-141700000D02*
X190700000Y-141800000D01*
%TO.N,+5V*%
X113000000Y-141500000D02*
X112800000Y-141700000D01*
X129000000Y-141600000D02*
X128900000Y-141700000D01*
X145000000Y-141600000D02*
X144900000Y-141700000D01*
X193300000Y-141700000D02*
X193200000Y-141800000D01*
%TO.N,Steer1-Enc-Aout*%
X107800000Y-141700000D02*
X107800000Y-136475000D01*
X107800000Y-136475000D02*
X112600000Y-131675000D01*
X112600000Y-129145000D02*
X111325000Y-127870000D01*
X112600000Y-131675000D02*
X112600000Y-129145000D01*
%TO.N,Steer1-Enc-Bout*%
X105300000Y-136435000D02*
X111325000Y-130410000D01*
X105300000Y-141700000D02*
X105300000Y-136435000D01*
%TO.N,Drive2-Enc-Aout*%
X123900000Y-66765000D02*
X124045000Y-66910000D01*
X123900000Y-54800000D02*
X123900000Y-66765000D01*
%TO.N,Drive2-Enc-Bout*%
X121400000Y-66805000D02*
X121505000Y-66910000D01*
X121400000Y-54800000D02*
X121400000Y-66805000D01*
%TO.N,Steer2-Enc-Bout*%
X121400000Y-130495000D02*
X121485000Y-130410000D01*
X121400000Y-141700000D02*
X121400000Y-130495000D01*
%TO.N,Steer2-Enc-Aout*%
X123900000Y-130535000D02*
X124025000Y-130410000D01*
X123900000Y-141700000D02*
X123900000Y-130535000D01*
%TO.N,Drive3-Enc-Bout*%
X137400000Y-65025000D02*
X139285000Y-66910000D01*
X137400000Y-54800000D02*
X137400000Y-65025000D01*
%TO.N,Drive3-Enc-Aout*%
X139900000Y-54800000D02*
X139900000Y-65400000D01*
X139900000Y-65400000D02*
X140600000Y-66100000D01*
X140600000Y-68225000D02*
X141825000Y-69450000D01*
X140600000Y-66100000D02*
X140600000Y-68225000D01*
%TO.N,Steer3-Enc-Aout*%
X148300000Y-129150000D02*
X149425000Y-127870000D01*
X144100000Y-129150000D02*
X148300000Y-129150000D01*
X143050000Y-129886799D02*
X144100000Y-129150000D01*
X143050000Y-130745001D02*
X143050000Y-129886799D01*
X139900000Y-134100000D02*
X143050000Y-130745001D01*
X139900000Y-141700000D02*
X139900000Y-134100000D01*
%TO.N,Steer3-Enc-Bout*%
X138000000Y-129900000D02*
X139050000Y-129100000D01*
X138000000Y-130800000D02*
X138000000Y-129900000D01*
X137400000Y-131600000D02*
X138000000Y-130800000D01*
X137400000Y-141700000D02*
X137400000Y-131600000D01*
X143115000Y-129100000D02*
X142900000Y-129100000D01*
X142900000Y-129100000D02*
X143000000Y-129100000D01*
X144345000Y-127870000D02*
X143115000Y-129100000D01*
X139050000Y-129100000D02*
X142900000Y-129100000D01*
%TO.N,I2C-4-INT0*%
X200700000Y-72800000D02*
X184200000Y-72800000D01*
X184200000Y-72800000D02*
X182465000Y-71065000D01*
X203600000Y-69800000D02*
X200700000Y-72800000D01*
X203600000Y-64900000D02*
X203600000Y-69800000D01*
X206800000Y-61500000D02*
X203600000Y-64900000D01*
X182465000Y-71065000D02*
X182465000Y-69450000D01*
X206800000Y-43900000D02*
X206800000Y-61500000D01*
X205100000Y-42300000D02*
X206800000Y-43900000D01*
X193500000Y-42300000D02*
X205100000Y-42300000D01*
X191500002Y-45000000D02*
X193500000Y-42300000D01*
%TO.N,I2C-4-INT1*%
X185005000Y-71005000D02*
X185005000Y-69450000D01*
X185800000Y-71800000D02*
X185005000Y-71005000D01*
X200000000Y-71800000D02*
X185800000Y-71800000D01*
X202200000Y-69400000D02*
X200000000Y-71800000D01*
X202200000Y-64300000D02*
X202200000Y-69400000D01*
X205500000Y-60800000D02*
X202200000Y-64300000D01*
X205500000Y-44400000D02*
X205500000Y-60800000D01*
X204500000Y-43400000D02*
X205500000Y-44400000D01*
X195300000Y-43400000D02*
X204500000Y-43400000D01*
X194000000Y-45000000D02*
X195300000Y-43400000D01*
%TO.N,I2C-4-SCL*%
X173200000Y-65000000D02*
X172305000Y-66910000D01*
X192800000Y-65000000D02*
X173200000Y-65000000D01*
X199400000Y-58900000D02*
X192800000Y-65000000D01*
X199500000Y-51700000D02*
X199400000Y-58900000D01*
X197600000Y-49400000D02*
X199500000Y-51700000D01*
X197600000Y-46100000D02*
X197600000Y-49400000D01*
X196500000Y-45000000D02*
X197600000Y-46100000D01*
%TO.N,I2C-4-SDA*%
X186200000Y-70500000D02*
X186200000Y-68105000D01*
X196600000Y-70300000D02*
X195900000Y-71000000D01*
X201000000Y-60900000D02*
X196600000Y-64700000D01*
X195900000Y-71000000D02*
X186700000Y-71000000D01*
X196600000Y-64700000D02*
X196600000Y-70300000D01*
X201000000Y-50900000D02*
X201000000Y-60900000D01*
X186700000Y-71000000D02*
X186200000Y-70500000D01*
X199000000Y-48900000D02*
X201000000Y-50900000D01*
X186200000Y-68105000D02*
X185005000Y-66910000D01*
X199000000Y-45000000D02*
X199000000Y-48900000D01*
%TO.N,Steer2-INA1*%
X156800000Y-151200000D02*
X156800000Y-146200000D01*
X156800000Y-146200000D02*
X157900000Y-145100000D01*
X157900000Y-145100000D02*
X162600000Y-145100000D01*
X162600000Y-145100000D02*
X163100000Y-144600000D01*
X163100000Y-144600000D02*
X163100000Y-136700000D01*
X163100000Y-136700000D02*
X160900000Y-134500000D01*
X160900000Y-129185000D02*
X159585000Y-127870000D01*
X160900000Y-134500000D02*
X160900000Y-129185000D01*
%TO.N,I2C-2-INT*%
X181100000Y-134500000D02*
X184985000Y-130410000D01*
X189900000Y-153600000D02*
X181100000Y-144800000D01*
X200500000Y-153600000D02*
X189900000Y-153600000D01*
X181100000Y-144800000D02*
X181100000Y-134500000D01*
X201500000Y-152600000D02*
X200500000Y-153600000D01*
X201500000Y-151200000D02*
X201500000Y-152600000D01*
%TO.N,I2C-2-SCL*%
X199000000Y-151200000D02*
X199000000Y-136000000D01*
X193900000Y-130933201D02*
X199000000Y-136000000D01*
X193900000Y-126600000D02*
X193900000Y-130933201D01*
X192900000Y-125650000D02*
X193900000Y-126600000D01*
X170400000Y-125650000D02*
X192900000Y-125650000D01*
X167205000Y-122790000D02*
X170400000Y-125650000D01*
%TO.N,SabreTX*%
X99000000Y-149000000D02*
X96500000Y-149000000D01*
X100500000Y-147500000D02*
X99000000Y-149000000D01*
X115100000Y-143300000D02*
X115100000Y-131645000D01*
X113310001Y-145089999D02*
X115100000Y-143300000D01*
X115100000Y-131645000D02*
X113865000Y-130410000D01*
X100500000Y-147500000D02*
X102910001Y-145089999D01*
X102910001Y-145089999D02*
X113310001Y-145089999D01*
X96500000Y-141500000D02*
X96500000Y-144000000D01*
X96500000Y-144000000D02*
X96500000Y-146500000D01*
X96500000Y-146500000D02*
X96500000Y-149000000D01*
%TO.N,CAN3-TXD*%
X143000000Y-70800000D02*
X144365000Y-69450000D01*
X143000000Y-77500000D02*
X143000000Y-70800000D01*
X143800000Y-78500000D02*
X143000000Y-77500000D01*
X144800000Y-79500000D02*
X143800000Y-78500000D01*
X194665000Y-79500000D02*
X144800000Y-79500000D01*
%TO.N,Drive5-Enc-Aout*%
X176300000Y-68200000D02*
X177385000Y-69450000D01*
X171781799Y-68200000D02*
X176300000Y-68200000D01*
X171000000Y-67700000D02*
X171781799Y-68200000D01*
X171000000Y-55800000D02*
X171000000Y-67700000D01*
X172100000Y-54800000D02*
X171000000Y-55800000D01*
%TO.N,Drive5-Enc-Bout*%
X169600000Y-59455000D02*
X162145000Y-66910000D01*
X169600000Y-54800000D02*
X169600000Y-59455000D01*
%TO.N,Steer4-Enc-Aout*%
X150700000Y-129319999D02*
X151965000Y-127870000D01*
X150700000Y-133000000D02*
X150700000Y-129319999D01*
X156000000Y-138500000D02*
X150700000Y-133000000D01*
X156000000Y-141700000D02*
X156000000Y-138500000D01*
%TO.N,Steer4-Enc-Bout*%
X153500000Y-141700000D02*
X153500000Y-138500000D01*
X149425000Y-134425000D02*
X149425000Y-130410000D01*
X153500000Y-138500000D02*
X149425000Y-134425000D01*
%TO.N,Steer5-Enc-Aout*%
X172100000Y-141700000D02*
X172100000Y-139200000D01*
X172100000Y-139200000D02*
X170500000Y-139200000D01*
X170500000Y-139200000D02*
X165900000Y-134600000D01*
X165900000Y-129175000D02*
X167205000Y-127870000D01*
X165900000Y-134600000D02*
X165900000Y-129175000D01*
%TO.N,Steer5-Enc-Bout*%
X164665000Y-127870000D02*
X163400000Y-129135000D01*
X163400000Y-135500000D02*
X169600000Y-141700000D01*
X163400000Y-129135000D02*
X163400000Y-135500000D01*
%TO.N,Steer6-Enc-Aout*%
X192605000Y-132095000D02*
X192605000Y-130410000D01*
X188200000Y-137300000D02*
X192605000Y-132095000D01*
X188200000Y-141800000D02*
X188200000Y-137300000D01*
%TO.N,Steer6-Enc-Bout*%
X191300000Y-130800000D02*
X191300000Y-129100000D01*
X185700000Y-137500000D02*
X191300000Y-130800000D01*
X185700000Y-141800000D02*
X185700000Y-137500000D01*
X191300000Y-129100000D02*
X191300000Y-126700000D01*
X191300000Y-126700000D02*
X190800000Y-126200000D01*
X190800000Y-126200000D02*
X163200000Y-126200000D01*
X163200000Y-126200000D02*
X162200000Y-125200000D01*
X162125000Y-125125000D02*
X163200000Y-126200000D01*
X162125000Y-122790000D02*
X162125000Y-125125000D01*
%TO.N,Drive4-Enc-Aout*%
X155706422Y-68106422D02*
X154525000Y-69450000D01*
X155800000Y-68000000D02*
X155706422Y-68106422D01*
X155800000Y-55000000D02*
X156000000Y-54800000D01*
X155800000Y-68012844D02*
X155800000Y-55000000D01*
X155706422Y-68106422D02*
X155800000Y-68012844D01*
%TO.N,Drive4-Enc-Bout*%
X153200000Y-55100000D02*
X153500000Y-54800000D01*
X153200000Y-73400000D02*
X153200000Y-55100000D01*
X154505000Y-74530000D02*
X153200000Y-73400000D01*
%TO.N,SPI_1_MISO*%
X182800000Y-138500000D02*
X190065000Y-130410000D01*
X182800000Y-138473292D02*
X182800000Y-144500000D01*
X212000000Y-135500000D02*
X220750000Y-135500000D01*
X206100000Y-141400000D02*
X212000000Y-135500000D01*
X206100000Y-144300000D02*
X206100000Y-141400000D01*
X200200000Y-150200000D02*
X206100000Y-144300000D01*
X200200000Y-151800000D02*
X200200000Y-150200000D01*
X199500000Y-152500000D02*
X200200000Y-151800000D01*
X190800000Y-152500000D02*
X199500000Y-152500000D01*
X182800000Y-144500000D02*
X190800000Y-152500000D01*
%TO.N,SPI_1_MOSI*%
X168795000Y-132000000D02*
X172400000Y-132000000D01*
X167205000Y-130410000D02*
X168795000Y-132000000D01*
X172400000Y-132000000D02*
X170700000Y-132000000D01*
X224300000Y-148500000D02*
X224300000Y-136550000D01*
X217100000Y-155000000D02*
X224300000Y-148500000D01*
X189600000Y-155000000D02*
X217100000Y-155000000D01*
X179100000Y-144500000D02*
X189600000Y-155000000D01*
X179100000Y-137900000D02*
X179100000Y-144500000D01*
X172673002Y-132000000D02*
X179100000Y-137900000D01*
X224300000Y-136550000D02*
X220750000Y-133000000D01*
X172400000Y-132000000D02*
X172673002Y-132000000D01*
%TO.N,SPI_1_SCK*%
X220750000Y-130500000D02*
X205300000Y-130500000D01*
X205300000Y-130500000D02*
X201200000Y-126400000D01*
X199155000Y-126400000D02*
X197685000Y-127870000D01*
X201200000Y-126400000D02*
X199155000Y-126400000D01*
%TO.N,SPI_1_INT*%
X220750000Y-128000000D02*
X204400000Y-128000000D01*
X204400000Y-128000000D02*
X201800000Y-125400000D01*
X197615000Y-125400000D02*
X195145000Y-127870000D01*
X201800000Y-125400000D02*
X197615000Y-125400000D01*
%TD*%
M02*
