M48
; DRILL file {KiCad (5.1.12)-1} date 02/06/22 21:24:42
; FORMAT={-:-/ absolute / metric / decimal}
; #@! TF.CreationDate,2022-02-06T21:24:42-08:00
; #@! TF.GenerationSoftware,Kicad,Pcbnew,(5.1.12)-1
; #@! TF.FileFunction,Plated,1,4,PTH
FMAT,2
METRIC
T1C0.400
T2C0.950
T3C0.991
T4C1.000
T5C1.020
T6C2.500
T7C3.400
%
G90
G05
T1
X194.665Y-79.5
X197.0Y-84.9
X197.0Y-99.9
X197.0Y-120.9
X199.3Y-75.2
X199.3Y-88.8
X199.3Y-110.7
X204.67Y-122.79
X205.0Y-101.5
X205.9Y-87.4
X209.5Y-83.5
X209.5Y-96.5
X209.5Y-107.25
X209.5Y-117.0
X224.6Y-48.4
X224.6Y-58.9
T2
X88.0Y-45.2
X88.0Y-54.6
X90.5Y-45.2
X90.5Y-54.6
X93.0Y-45.2
X93.0Y-54.6
X96.5Y-141.5
X96.5Y-144.0
X96.5Y-146.5
X96.5Y-149.0
X105.3Y-54.6
X105.3Y-141.7
X107.8Y-54.6
X107.8Y-141.7
X110.3Y-54.6
X110.3Y-141.7
X112.8Y-54.6
X112.8Y-141.7
X113.3Y-45.2
X113.3Y-151.2
X115.8Y-45.2
X115.8Y-151.2
X118.3Y-45.2
X118.3Y-151.2
X120.8Y-45.2
X120.8Y-151.2
X121.4Y-54.8
X121.4Y-141.7
X123.3Y-45.2
X123.3Y-151.2
X123.9Y-54.8
X123.9Y-141.7
X125.8Y-45.2
X125.8Y-151.2
X126.4Y-54.8
X126.4Y-141.7
X128.3Y-45.2
X128.3Y-151.2
X128.9Y-54.8
X128.9Y-141.7
X130.8Y-45.2
X130.8Y-151.2
X137.4Y-54.8
X137.4Y-141.7
X139.3Y-45.1
X139.3Y-151.2
X139.9Y-54.8
X139.9Y-141.7
X141.8Y-45.1
X141.8Y-151.2
X142.4Y-54.8
X142.4Y-141.7
X144.3Y-45.1
X144.3Y-151.2
X144.9Y-54.8
X144.9Y-141.7
X146.8Y-45.1
X146.8Y-151.2
X149.3Y-45.1
X149.3Y-151.2
X151.8Y-45.1
X151.8Y-151.2
X153.5Y-54.8
X153.5Y-141.7
X154.3Y-45.1
X154.3Y-151.2
X156.0Y-54.8
X156.0Y-141.7
X156.8Y-45.1
X156.8Y-151.2
X158.5Y-54.8
X158.5Y-141.7
X161.0Y-54.8
X161.0Y-141.7
X165.4Y-45.0
X165.4Y-151.2
X167.9Y-45.0
X167.9Y-151.2
X169.6Y-54.8
X169.6Y-141.7
X170.4Y-45.0
X170.4Y-151.2
X172.1Y-54.8
X172.1Y-141.7
X172.9Y-45.0
X172.9Y-151.2
X174.6Y-54.8
X174.6Y-141.7
X175.4Y-45.0
X175.4Y-151.2
X177.1Y-54.8
X177.1Y-141.7
X177.9Y-45.0
X177.9Y-151.2
X180.4Y-45.0
X180.4Y-151.2
X182.9Y-45.0
X182.9Y-151.2
X185.7Y-54.8
X185.7Y-141.8
X188.2Y-54.8
X188.2Y-141.8
X190.7Y-54.8
X190.7Y-141.8
X193.2Y-54.8
X193.2Y-141.8
X220.75Y-128.0
X220.75Y-130.5
X220.75Y-133.0
X220.75Y-135.5
X220.75Y-138.0
X220.75Y-140.5
X220.75Y-143.0
X220.75Y-145.5
T3
X191.5Y-45.0
X191.5Y-151.2
X194.0Y-45.0
X194.0Y-151.2
X196.5Y-45.0
X196.5Y-151.2
X199.0Y-45.0
X199.0Y-151.2
X201.5Y-45.0
X201.5Y-151.2
X204.0Y-45.0
X204.0Y-151.2
T4
X219.91Y-70.74
X219.91Y-73.24
X219.91Y-78.34
X219.91Y-89.79
X219.91Y-92.29
X219.91Y-97.39
X219.91Y-107.57
X219.91Y-110.07
X219.91Y-115.17
X222.45Y-78.34
X222.45Y-97.39
X222.45Y-115.17
T5
X111.325Y-127.87
X111.325Y-130.41
X111.345Y-66.91
X111.345Y-69.45
X112.341Y-74.53
X112.341Y-77.07
X113.865Y-127.87
X113.865Y-130.41
X113.885Y-66.91
X113.885Y-69.45
X114.881Y-74.53
X114.881Y-77.07
X116.405Y-127.87
X116.405Y-130.41
X116.425Y-66.91
X116.425Y-69.45
X117.421Y-74.53
X117.421Y-77.07
X118.945Y-127.87
X118.945Y-130.41
X118.965Y-66.91
X118.965Y-69.45
X119.961Y-74.53
X119.961Y-77.07
X121.485Y-120.25
X121.485Y-122.79
X121.485Y-127.87
X121.485Y-130.41
X121.505Y-66.91
X121.505Y-69.45
X122.501Y-74.53
X122.501Y-77.07
X124.025Y-120.25
X124.025Y-122.79
X124.025Y-127.87
X124.025Y-130.41
X124.045Y-66.91
X124.045Y-69.45
X125.041Y-74.53
X125.041Y-77.07
X126.565Y-120.25
X126.565Y-122.79
X126.565Y-127.87
X126.565Y-130.41
X126.585Y-66.91
X126.585Y-69.45
X127.581Y-74.53
X127.581Y-77.07
X129.105Y-120.25
X129.105Y-122.79
X129.105Y-127.87
X129.105Y-130.41
X129.125Y-66.91
X129.125Y-69.45
X130.121Y-74.53
X130.121Y-77.07
X131.645Y-120.25
X131.645Y-122.79
X131.645Y-127.87
X131.645Y-130.41
X131.665Y-66.91
X131.665Y-69.45
X132.661Y-74.53
X132.661Y-77.07
X134.185Y-120.25
X134.185Y-122.79
X134.185Y-127.87
X134.185Y-130.41
X134.205Y-66.91
X134.205Y-69.45
X135.201Y-74.53
X135.201Y-77.07
X136.725Y-120.25
X136.725Y-122.79
X136.725Y-127.87
X136.725Y-130.41
X136.745Y-66.91
X136.745Y-69.45
X139.265Y-74.53
X139.265Y-77.07
X139.265Y-120.25
X139.265Y-122.79
X139.265Y-127.87
X139.265Y-130.41
X139.285Y-66.91
X139.285Y-69.45
X141.805Y-74.53
X141.805Y-77.07
X141.805Y-127.87
X141.805Y-130.41
X141.825Y-66.91
X141.825Y-69.45
X144.345Y-74.53
X144.345Y-77.07
X144.345Y-120.25
X144.345Y-122.79
X144.345Y-127.87
X144.345Y-130.41
X144.365Y-66.91
X144.365Y-69.45
X146.885Y-74.53
X146.885Y-77.07
X146.885Y-120.25
X146.885Y-122.79
X146.885Y-127.87
X146.885Y-130.41
X146.905Y-66.91
X146.905Y-69.45
X149.425Y-74.53
X149.425Y-77.07
X149.425Y-120.25
X149.425Y-122.79
X149.425Y-127.87
X149.425Y-130.41
X149.445Y-66.91
X149.445Y-69.45
X151.965Y-74.53
X151.965Y-77.07
X151.965Y-120.25
X151.965Y-122.79
X151.965Y-127.87
X151.965Y-130.41
X151.985Y-66.91
X151.985Y-69.45
X154.505Y-74.53
X154.505Y-77.07
X154.505Y-120.25
X154.505Y-122.79
X154.505Y-127.87
X154.505Y-130.41
X154.525Y-66.91
X154.525Y-69.45
X157.045Y-74.53
X157.045Y-77.07
X157.045Y-120.25
X157.045Y-122.79
X157.045Y-127.87
X157.045Y-130.41
X157.065Y-66.91
X157.065Y-69.45
X159.585Y-74.53
X159.585Y-77.07
X159.585Y-120.25
X159.585Y-122.79
X159.585Y-127.87
X159.585Y-130.41
X159.605Y-66.91
X159.605Y-69.45
X162.125Y-74.53
X162.125Y-77.07
X162.125Y-120.25
X162.125Y-122.79
X162.125Y-127.87
X162.125Y-130.41
X162.145Y-66.91
X162.145Y-69.45
X164.665Y-74.53
X164.665Y-77.07
X164.665Y-120.25
X164.665Y-122.79
X164.665Y-127.87
X164.665Y-130.41
X164.685Y-66.91
X164.685Y-69.45
X167.205Y-74.53
X167.205Y-77.07
X167.205Y-120.25
X167.205Y-122.79
X167.205Y-127.87
X167.205Y-130.41
X167.225Y-66.91
X167.225Y-69.45
X169.745Y-74.53
X169.745Y-77.07
X169.745Y-120.25
X169.745Y-122.79
X169.745Y-127.87
X169.745Y-130.41
X169.765Y-66.91
X169.765Y-69.45
X172.285Y-74.53
X172.285Y-77.07
X172.285Y-120.25
X172.285Y-122.79
X172.285Y-127.87
X172.285Y-130.41
X172.305Y-66.91
X172.305Y-69.45
X174.825Y-74.53
X174.825Y-77.07
X174.825Y-120.25
X174.825Y-122.79
X174.825Y-127.87
X174.825Y-130.41
X174.845Y-66.91
X174.845Y-69.45
X177.365Y-74.53
X177.365Y-77.07
X177.365Y-120.25
X177.365Y-122.79
X177.365Y-127.87
X177.365Y-130.41
X177.385Y-66.91
X177.385Y-69.45
X179.905Y-74.53
X179.905Y-77.07
X179.905Y-120.25
X179.905Y-122.79
X179.905Y-127.87
X179.905Y-130.41
X179.925Y-66.91
X179.925Y-69.45
X182.445Y-127.87
X182.445Y-130.41
X182.465Y-66.91
X182.465Y-69.45
X184.985Y-127.87
X184.985Y-130.41
X185.005Y-66.91
X185.005Y-69.45
X187.525Y-127.87
X187.525Y-130.41
X187.545Y-66.91
X187.545Y-69.45
X190.065Y-127.87
X190.065Y-130.41
X190.085Y-66.91
X190.085Y-69.45
X192.605Y-127.87
X192.605Y-130.41
X192.625Y-66.91
X192.625Y-69.45
X195.145Y-127.87
X195.145Y-130.41
X195.165Y-66.91
X195.165Y-69.45
X197.685Y-127.87
X197.685Y-130.41
X197.705Y-66.91
X197.705Y-69.45
X200.225Y-127.87
X200.225Y-130.41
X200.245Y-66.91
X200.245Y-69.45
T6
X75.0Y-41.9
X75.0Y-157.45
T7
X229.9Y-41.9
X229.9Y-157.5
T0
M30
