M48
; DRILL file {KiCad (5.1.12)-1} date 02/06/22 21:24:42
; FORMAT={-:-/ absolute / metric / decimal}
; #@! TF.CreationDate,2022-02-06T21:24:42-08:00
; #@! TF.GenerationSoftware,Kicad,Pcbnew,(5.1.12)-1
; #@! TF.FileFunction,NonPlated,1,4,NPTH
FMAT,2
METRIC
T1C1.200
T2C3.200
%
G90
G05
T1
X86.4Y-47.2
X86.4Y-56.6
X98.5Y-150.6
X103.7Y-56.6
X103.7Y-143.7
X111.7Y-47.2
X111.7Y-153.2
X119.8Y-56.8
X119.8Y-143.7
X135.8Y-56.8
X135.8Y-143.7
X137.7Y-47.1
X137.7Y-153.2
X151.9Y-56.8
X151.9Y-143.7
X163.8Y-47.0
X163.8Y-153.2
X168.0Y-56.8
X168.0Y-143.7
X184.1Y-56.8
X184.1Y-143.8
X222.75Y-147.1
T2
X107.515Y-122.79
X108.785Y-74.53
X159.585Y-89.77
X183.715Y-75.8
X183.715Y-121.52
T0
M30
